<?xml version="1.0" encoding="utf-8" standalone="no"?>
<!DOCTYPE svg PUBLIC "-//W3C//DTD SVG 1.1//EN"
  "http://www.w3.org/Graphics/SVG/1.1/DTD/svg11.dtd">
<svg height="249.273269pt" version="1.1" viewBox="0 0 862.165798 249.273269" width="862.165798pt" xmlns="http://www.w3.org/2000/svg" xmlns:xlink="http://www.w3.org/1999/xlink">
 <metadata>
  <rdf:RDF xmlns:cc="http://creativecommons.org/ns#" xmlns:dc="http://purl.org/dc/elements/1.1/" xmlns:rdf="http://www.w3.org/1999/02/22-rdf-syntax-ns#">
   <cc:Work>
    <dc:type rdf:resource="http://purl.org/dc/dcmitype/StillImage"/>
    <dc:date>2024-02-17T21:25:52.307132</dc:date>
    <dc:format>image/svg+xml</dc:format>
    <dc:creator>
     <cc:Agent>
      <dc:title>Matplotlib v3.4.1, https://matplotlib.org/</dc:title>
     </cc:Agent>
    </dc:creator>
   </cc:Work>
  </rdf:RDF>
 </metadata>
 <defs>
  <style type="text/css">*{stroke-linecap:butt;stroke-linejoin:round;}</style>
 </defs>
 <g id="figure_1">
  <g id="patch_1">
   <path d="M 0 249.273269 
L 862.165798 249.273269 
L 862.165798 0 
L 0 0 
z
" style="fill:#ffffff;"/>
  </g>
  <g id="axes_1">
   <g id="patch_2">
    <path d="M 65.019079 189.63625 
L 193.505921 189.63625 
L 193.505921 26.55625 
L 65.019079 26.55625 
z
" style="fill:#ffffff;"/>
   </g>
   <g id="matplotlib.axis_1">
    <g id="xtick_1">
     <g id="line2d_1">
      <defs>
       <path d="M 0 0 
L 0 6 
" id="me5ef7a7c82" style="stroke:#262626;stroke-width:1.25;"/>
      </defs>
      <g>
       <use style="fill:#262626;stroke:#262626;stroke-width:1.25;" x="70.85939" xlink:href="#me5ef7a7c82" y="189.63625"/>
      </g>
     </g>
     <g id="text_1">
      <!-- 0.0 -->
      <g style="fill:#262626;" transform="translate(62.112671 207.494531)scale(0.11 -0.11)">
       <defs>
        <path d="M 2034 4250 
Q 1547 4250 1301 3770 
Q 1056 3291 1056 2328 
Q 1056 1369 1301 889 
Q 1547 409 2034 409 
Q 2525 409 2770 889 
Q 3016 1369 3016 2328 
Q 3016 3291 2770 3770 
Q 2525 4250 2034 4250 
z
M 2034 4750 
Q 2819 4750 3233 4129 
Q 3647 3509 3647 2328 
Q 3647 1150 3233 529 
Q 2819 -91 2034 -91 
Q 1250 -91 836 529 
Q 422 1150 422 2328 
Q 422 3509 836 4129 
Q 1250 4750 2034 4750 
z
" id="DejaVuSans-30" transform="scale(0.015625)"/>
        <path d="M 684 794 
L 1344 794 
L 1344 0 
L 684 0 
L 684 794 
z
" id="DejaVuSans-2e" transform="scale(0.015625)"/>
       </defs>
       <use xlink:href="#DejaVuSans-30"/>
       <use x="63.623047" xlink:href="#DejaVuSans-2e"/>
       <use x="95.410156" xlink:href="#DejaVuSans-30"/>
      </g>
     </g>
    </g>
    <g id="xtick_2">
     <g id="line2d_2">
      <g>
       <use style="fill:#262626;stroke:#262626;stroke-width:1.25;" x="129.2625" xlink:href="#me5ef7a7c82" y="189.63625"/>
      </g>
     </g>
     <g id="text_2">
      <!-- 0.5 -->
      <g style="fill:#262626;" transform="translate(120.515781 207.494531)scale(0.11 -0.11)">
       <defs>
        <path d="M 691 4666 
L 3169 4666 
L 3169 4134 
L 1269 4134 
L 1269 2991 
Q 1406 3038 1543 3061 
Q 1681 3084 1819 3084 
Q 2600 3084 3056 2656 
Q 3513 2228 3513 1497 
Q 3513 744 3044 326 
Q 2575 -91 1722 -91 
Q 1428 -91 1123 -41 
Q 819 9 494 109 
L 494 744 
Q 775 591 1075 516 
Q 1375 441 1709 441 
Q 2250 441 2565 725 
Q 2881 1009 2881 1497 
Q 2881 1984 2565 2268 
Q 2250 2553 1709 2553 
Q 1456 2553 1204 2497 
Q 953 2441 691 2322 
L 691 4666 
z
" id="DejaVuSans-35" transform="scale(0.015625)"/>
       </defs>
       <use xlink:href="#DejaVuSans-30"/>
       <use x="63.623047" xlink:href="#DejaVuSans-2e"/>
       <use x="95.410156" xlink:href="#DejaVuSans-35"/>
      </g>
     </g>
    </g>
    <g id="xtick_3">
     <g id="line2d_3">
      <g>
       <use style="fill:#262626;stroke:#262626;stroke-width:1.25;" x="187.66561" xlink:href="#me5ef7a7c82" y="189.63625"/>
      </g>
     </g>
     <g id="text_3">
      <!-- 1.0 -->
      <g style="fill:#262626;" transform="translate(178.918891 207.494531)scale(0.11 -0.11)">
       <defs>
        <path d="M 794 531 
L 1825 531 
L 1825 4091 
L 703 3866 
L 703 4441 
L 1819 4666 
L 2450 4666 
L 2450 531 
L 3481 531 
L 3481 0 
L 794 0 
L 794 531 
z
" id="DejaVuSans-31" transform="scale(0.015625)"/>
       </defs>
       <use xlink:href="#DejaVuSans-31"/>
       <use x="63.623047" xlink:href="#DejaVuSans-2e"/>
       <use x="95.410156" xlink:href="#DejaVuSans-30"/>
      </g>
     </g>
    </g>
    <g id="text_4">
     <!-- $\frac{N*}{N}$ -->
     <g style="fill:#262626;" transform="translate(121.5825 225.302188)scale(0.12 -0.12)">
      <defs>
       <path d="M 1081 4666 
L 1931 4666 
L 3219 666 
L 4000 4666 
L 4616 4666 
L 3706 0 
L 2853 0 
L 1569 4025 
L 788 0 
L 172 0 
L 1081 4666 
z
" id="DejaVuSans-Oblique-4e" transform="scale(0.015625)"/>
       <path d="M 3009 3897 
L 1888 3291 
L 3009 2681 
L 2828 2375 
L 1778 3009 
L 1778 1831 
L 1422 1831 
L 1422 3009 
L 372 2375 
L 191 2681 
L 1313 3291 
L 191 3897 
L 372 4206 
L 1422 3572 
L 1422 4750 
L 1778 4750 
L 1778 3572 
L 2828 4206 
L 3009 3897 
z
" id="DejaVuSans-2a" transform="scale(0.015625)"/>
      </defs>
      <use transform="translate(0 44.046875)scale(0.7)" xlink:href="#DejaVuSans-Oblique-4e"/>
      <use transform="translate(66.000977 44.046875)scale(0.7)" xlink:href="#DejaVuSans-2a"/>
      <use transform="translate(31 -38.2375)scale(0.7)" xlink:href="#DejaVuSans-Oblique-4e"/>
      <path d="M 0 19.046875 
L 0 25.296875 
L 114.638672 25.296875 
L 114.638672 19.046875 
L 0 19.046875 
z
"/>
     </g>
    </g>
   </g>
   <g id="matplotlib.axis_2">
    <g id="ytick_1">
     <g id="line2d_4">
      <defs>
       <path d="M 0 0 
L -6 0 
" id="m5a4e150808" style="stroke:#262626;stroke-width:1.25;"/>
      </defs>
      <g>
       <use style="fill:#262626;stroke:#262626;stroke-width:1.25;" x="65.019079" xlink:href="#m5a4e150808" y="182.223523"/>
      </g>
     </g>
     <g id="text_5">
      <!-- 0.0 -->
      <g style="fill:#262626;" transform="translate(38.025641 186.402663)scale(0.11 -0.11)">
       <use xlink:href="#DejaVuSans-30"/>
       <use x="63.623047" xlink:href="#DejaVuSans-2e"/>
       <use x="95.410156" xlink:href="#DejaVuSans-30"/>
      </g>
     </g>
    </g>
    <g id="ytick_2">
     <g id="line2d_5">
      <g>
       <use style="fill:#262626;stroke:#262626;stroke-width:1.25;" x="65.019079" xlink:href="#m5a4e150808" y="152.572614"/>
      </g>
     </g>
     <g id="text_6">
      <!-- 0.2 -->
      <g style="fill:#262626;" transform="translate(38.025641 156.751754)scale(0.11 -0.11)">
       <defs>
        <path d="M 1228 531 
L 3431 531 
L 3431 0 
L 469 0 
L 469 531 
Q 828 903 1448 1529 
Q 2069 2156 2228 2338 
Q 2531 2678 2651 2914 
Q 2772 3150 2772 3378 
Q 2772 3750 2511 3984 
Q 2250 4219 1831 4219 
Q 1534 4219 1204 4116 
Q 875 4013 500 3803 
L 500 4441 
Q 881 4594 1212 4672 
Q 1544 4750 1819 4750 
Q 2544 4750 2975 4387 
Q 3406 4025 3406 3419 
Q 3406 3131 3298 2873 
Q 3191 2616 2906 2266 
Q 2828 2175 2409 1742 
Q 1991 1309 1228 531 
z
" id="DejaVuSans-32" transform="scale(0.015625)"/>
       </defs>
       <use xlink:href="#DejaVuSans-30"/>
       <use x="63.623047" xlink:href="#DejaVuSans-2e"/>
       <use x="95.410156" xlink:href="#DejaVuSans-32"/>
      </g>
     </g>
    </g>
    <g id="ytick_3">
     <g id="line2d_6">
      <g>
       <use style="fill:#262626;stroke:#262626;stroke-width:1.25;" x="65.019079" xlink:href="#m5a4e150808" y="122.921705"/>
      </g>
     </g>
     <g id="text_7">
      <!-- 0.4 -->
      <g style="fill:#262626;" transform="translate(38.025641 127.100845)scale(0.11 -0.11)">
       <defs>
        <path d="M 2419 4116 
L 825 1625 
L 2419 1625 
L 2419 4116 
z
M 2253 4666 
L 3047 4666 
L 3047 1625 
L 3713 1625 
L 3713 1100 
L 3047 1100 
L 3047 0 
L 2419 0 
L 2419 1100 
L 313 1100 
L 313 1709 
L 2253 4666 
z
" id="DejaVuSans-34" transform="scale(0.015625)"/>
       </defs>
       <use xlink:href="#DejaVuSans-30"/>
       <use x="63.623047" xlink:href="#DejaVuSans-2e"/>
       <use x="95.410156" xlink:href="#DejaVuSans-34"/>
      </g>
     </g>
    </g>
    <g id="ytick_4">
     <g id="line2d_7">
      <g>
       <use style="fill:#262626;stroke:#262626;stroke-width:1.25;" x="65.019079" xlink:href="#m5a4e150808" y="93.270795"/>
      </g>
     </g>
     <g id="text_8">
      <!-- 0.6 -->
      <g style="fill:#262626;" transform="translate(38.025641 97.449936)scale(0.11 -0.11)">
       <defs>
        <path d="M 2113 2584 
Q 1688 2584 1439 2293 
Q 1191 2003 1191 1497 
Q 1191 994 1439 701 
Q 1688 409 2113 409 
Q 2538 409 2786 701 
Q 3034 994 3034 1497 
Q 3034 2003 2786 2293 
Q 2538 2584 2113 2584 
z
M 3366 4563 
L 3366 3988 
Q 3128 4100 2886 4159 
Q 2644 4219 2406 4219 
Q 1781 4219 1451 3797 
Q 1122 3375 1075 2522 
Q 1259 2794 1537 2939 
Q 1816 3084 2150 3084 
Q 2853 3084 3261 2657 
Q 3669 2231 3669 1497 
Q 3669 778 3244 343 
Q 2819 -91 2113 -91 
Q 1303 -91 875 529 
Q 447 1150 447 2328 
Q 447 3434 972 4092 
Q 1497 4750 2381 4750 
Q 2619 4750 2861 4703 
Q 3103 4656 3366 4563 
z
" id="DejaVuSans-36" transform="scale(0.015625)"/>
       </defs>
       <use xlink:href="#DejaVuSans-30"/>
       <use x="63.623047" xlink:href="#DejaVuSans-2e"/>
       <use x="95.410156" xlink:href="#DejaVuSans-36"/>
      </g>
     </g>
    </g>
    <g id="ytick_5">
     <g id="line2d_8">
      <g>
       <use style="fill:#262626;stroke:#262626;stroke-width:1.25;" x="65.019079" xlink:href="#m5a4e150808" y="63.619886"/>
      </g>
     </g>
     <g id="text_9">
      <!-- 0.8 -->
      <g style="fill:#262626;" transform="translate(38.025641 67.799027)scale(0.11 -0.11)">
       <defs>
        <path d="M 2034 2216 
Q 1584 2216 1326 1975 
Q 1069 1734 1069 1313 
Q 1069 891 1326 650 
Q 1584 409 2034 409 
Q 2484 409 2743 651 
Q 3003 894 3003 1313 
Q 3003 1734 2745 1975 
Q 2488 2216 2034 2216 
z
M 1403 2484 
Q 997 2584 770 2862 
Q 544 3141 544 3541 
Q 544 4100 942 4425 
Q 1341 4750 2034 4750 
Q 2731 4750 3128 4425 
Q 3525 4100 3525 3541 
Q 3525 3141 3298 2862 
Q 3072 2584 2669 2484 
Q 3125 2378 3379 2068 
Q 3634 1759 3634 1313 
Q 3634 634 3220 271 
Q 2806 -91 2034 -91 
Q 1263 -91 848 271 
Q 434 634 434 1313 
Q 434 1759 690 2068 
Q 947 2378 1403 2484 
z
M 1172 3481 
Q 1172 3119 1398 2916 
Q 1625 2713 2034 2713 
Q 2441 2713 2670 2916 
Q 2900 3119 2900 3481 
Q 2900 3844 2670 4047 
Q 2441 4250 2034 4250 
Q 1625 4250 1398 4047 
Q 1172 3844 1172 3481 
z
" id="DejaVuSans-38" transform="scale(0.015625)"/>
       </defs>
       <use xlink:href="#DejaVuSans-30"/>
       <use x="63.623047" xlink:href="#DejaVuSans-2e"/>
       <use x="95.410156" xlink:href="#DejaVuSans-38"/>
      </g>
     </g>
    </g>
    <g id="ytick_6">
     <g id="line2d_9">
      <g>
       <use style="fill:#262626;stroke:#262626;stroke-width:1.25;" x="65.019079" xlink:href="#m5a4e150808" y="33.968977"/>
      </g>
     </g>
     <g id="text_10">
      <!-- 1.0 -->
      <g style="fill:#262626;" transform="translate(38.025641 38.148118)scale(0.11 -0.11)">
       <use xlink:href="#DejaVuSans-31"/>
       <use x="63.623047" xlink:href="#DejaVuSans-2e"/>
       <use x="95.410156" xlink:href="#DejaVuSans-30"/>
      </g>
     </g>
    </g>
    <g id="text_11">
     <!-- P($\leq \frac{N*}{N}$) -->
     <g style="fill:#262626;" transform="translate(29.345641 131.43625)rotate(-90)scale(0.12 -0.12)">
      <defs>
       <path d="M 1259 4147 
L 1259 2394 
L 2053 2394 
Q 2494 2394 2734 2622 
Q 2975 2850 2975 3272 
Q 2975 3691 2734 3919 
Q 2494 4147 2053 4147 
L 1259 4147 
z
M 628 4666 
L 2053 4666 
Q 2838 4666 3239 4311 
Q 3641 3956 3641 3272 
Q 3641 2581 3239 2228 
Q 2838 1875 2053 1875 
L 1259 1875 
L 1259 0 
L 628 0 
L 628 4666 
z
" id="DejaVuSans-50" transform="scale(0.015625)"/>
       <path d="M 1984 4856 
Q 1566 4138 1362 3434 
Q 1159 2731 1159 2009 
Q 1159 1288 1364 580 
Q 1569 -128 1984 -844 
L 1484 -844 
Q 1016 -109 783 600 
Q 550 1309 550 2009 
Q 550 2706 781 3412 
Q 1013 4119 1484 4856 
L 1984 4856 
z
" id="DejaVuSans-28" transform="scale(0.015625)"/>
       <path d="M 4684 3175 
L 1684 2309 
L 4684 1453 
L 4684 897 
L 678 2047 
L 678 2578 
L 4684 3725 
L 4684 3175 
z
M 678 531 
L 4684 531 
L 4684 0 
L 678 0 
L 678 531 
z
" id="DejaVuSans-2264" transform="scale(0.015625)"/>
       <path d="M 513 4856 
L 1013 4856 
Q 1481 4119 1714 3412 
Q 1947 2706 1947 2009 
Q 1947 1309 1714 600 
Q 1481 -109 1013 -844 
L 513 -844 
Q 928 -128 1133 580 
Q 1338 1288 1338 2009 
Q 1338 2731 1133 3434 
Q 928 4138 513 4856 
z
" id="DejaVuSans-29" transform="scale(0.015625)"/>
      </defs>
      <use transform="translate(0 0.25)" xlink:href="#DejaVuSans-50"/>
      <use transform="translate(60.302734 0.25)" xlink:href="#DejaVuSans-28"/>
      <use transform="translate(118.798828 0.25)" xlink:href="#DejaVuSans-2264"/>
      <use transform="translate(222.070312 44.046875)scale(0.7)" xlink:href="#DejaVuSans-Oblique-4e"/>
      <use transform="translate(288.071289 44.046875)scale(0.7)" xlink:href="#DejaVuSans-2a"/>
      <use transform="translate(253.070312 -38.2375)scale(0.7)" xlink:href="#DejaVuSans-Oblique-4e"/>
      <use transform="translate(349.208984 0.25)" xlink:href="#DejaVuSans-29"/>
      <path d="M 222.070312 19.046875 
L 222.070312 25.296875 
L 336.708984 25.296875 
L 336.708984 19.046875 
L 222.070312 19.046875 
z
"/>
     </g>
    </g>
   </g>
   <g id="PathCollection_1">
    <defs>
     <path d="M 0 1.224745 
C 0.324806 1.224745 0.636353 1.095698 0.866025 0.866025 
C 1.095698 0.636353 1.224745 0.324806 1.224745 0 
C 1.224745 -0.324806 1.095698 -0.636353 0.866025 -0.866025 
C 0.636353 -1.095698 0.324806 -1.224745 0 -1.224745 
C -0.324806 -1.224745 -0.636353 -1.095698 -0.866025 -0.866025 
C -1.095698 -0.636353 -1.224745 -0.324806 -1.224745 0 
C -1.224745 0.324806 -1.095698 0.636353 -0.866025 0.866025 
C -0.636353 1.095698 -0.324806 1.224745 0 1.224745 
z
" id="m96b8b00ec1" style="stroke:#43a2ca;stroke-opacity:0.9;"/>
    </defs>
    <g clip-path="url(#pd4615990ae)">
     <use style="fill:#43a2ca;fill-opacity:0.9;stroke:#43a2ca;stroke-opacity:0.9;" x="79.975973" xlink:href="#m96b8b00ec1" y="174.687095"/>
     <use style="fill:#43a2ca;fill-opacity:0.9;stroke:#43a2ca;stroke-opacity:0.9;" x="87.66809" xlink:href="#m96b8b00ec1" y="161.596272"/>
     <use style="fill:#43a2ca;fill-opacity:0.9;stroke:#43a2ca;stroke-opacity:0.9;" x="95.360207" xlink:href="#m96b8b00ec1" y="149.284161"/>
     <use style="fill:#43a2ca;fill-opacity:0.9;stroke:#43a2ca;stroke-opacity:0.9;" x="103.052324" xlink:href="#m96b8b00ec1" y="138.930582"/>
     <use style="fill:#43a2ca;fill-opacity:0.9;stroke:#43a2ca;stroke-opacity:0.9;" x="110.744441" xlink:href="#m96b8b00ec1" y="128.399951"/>
     <use style="fill:#43a2ca;fill-opacity:0.9;stroke:#43a2ca;stroke-opacity:0.9;" x="118.436558" xlink:href="#m96b8b00ec1" y="118.088676"/>
     <use style="fill:#43a2ca;fill-opacity:0.9;stroke:#43a2ca;stroke-opacity:0.9;" x="126.128675" xlink:href="#m96b8b00ec1" y="108.91805"/>
     <use style="fill:#43a2ca;fill-opacity:0.9;stroke:#43a2ca;stroke-opacity:0.9;" x="133.820792" xlink:href="#m96b8b00ec1" y="99.177099"/>
     <use style="fill:#43a2ca;fill-opacity:0.9;stroke:#43a2ca;stroke-opacity:0.9;" x="141.512908" xlink:href="#m96b8b00ec1" y="89.531724"/>
     <use style="fill:#43a2ca;fill-opacity:0.9;stroke:#43a2ca;stroke-opacity:0.9;" x="149.205025" xlink:href="#m96b8b00ec1" y="81.014464"/>
     <use style="fill:#43a2ca;fill-opacity:0.9;stroke:#43a2ca;stroke-opacity:0.9;" x="156.897142" xlink:href="#m96b8b00ec1" y="72.110198"/>
     <use style="fill:#43a2ca;fill-opacity:0.9;stroke:#43a2ca;stroke-opacity:0.9;" x="164.589259" xlink:href="#m96b8b00ec1" y="63.085286"/>
     <use style="fill:#43a2ca;fill-opacity:0.9;stroke:#43a2ca;stroke-opacity:0.9;" x="172.281376" xlink:href="#m96b8b00ec1" y="55.298166"/>
     <use style="fill:#43a2ca;fill-opacity:0.9;stroke:#43a2ca;stroke-opacity:0.9;" x="179.973493" xlink:href="#m96b8b00ec1" y="45.402099"/>
     <use style="fill:#43a2ca;fill-opacity:0.9;stroke:#43a2ca;stroke-opacity:0.9;" x="187.66561" xlink:href="#m96b8b00ec1" y="33.968977"/>
    </g>
   </g>
   <g id="line2d_10">
    <path clip-path="url(#pd4615990ae)" d="M 70.85939 182.223523 
L 187.66561 33.968977 
" style="fill:none;stroke:#1a1a1a;stroke-linecap:round;stroke-opacity:0.5;stroke-width:1.5;"/>
   </g>
   <g id="patch_3">
    <path d="M 65.019079 189.63625 
L 65.019079 26.55625 
" style="fill:none;stroke:#262626;stroke-linecap:square;stroke-linejoin:miter;stroke-width:1.25;"/>
   </g>
   <g id="patch_4">
    <path d="M 65.019079 189.63625 
L 193.505921 189.63625 
" style="fill:none;stroke:#262626;stroke-linecap:square;stroke-linejoin:miter;stroke-width:1.25;"/>
   </g>
   <g id="text_12">
    <!-- a) -->
    <g style="fill:#262626;" transform="translate(7.2 22.396875)scale(0.2 -0.2)">
     <defs>
      <path d="M 2547 1044 
L 2547 1747 
L 1806 1747 
Q 1378 1747 1168 1562 
Q 959 1378 959 997 
Q 959 650 1171 447 
Q 1384 244 1747 244 
Q 2106 244 2326 466 
Q 2547 688 2547 1044 
z
M 3122 2075 
L 3122 331 
L 3634 331 
L 3634 0 
L 2547 0 
L 2547 359 
Q 2356 128 2106 18 
Q 1856 -91 1522 -91 
Q 969 -91 644 203 
Q 319 497 319 997 
Q 319 1513 691 1797 
Q 1063 2081 1741 2081 
L 2547 2081 
L 2547 2309 
Q 2547 2688 2317 2895 
Q 2088 3103 1672 3103 
Q 1328 3103 1125 2947 
Q 922 2791 872 2484 
L 575 2484 
L 575 3156 
Q 875 3284 1158 3348 
Q 1441 3413 1709 3413 
Q 2400 3413 2761 3070 
Q 3122 2728 3122 2075 
z
" id="DejaVuSerif-61" transform="scale(0.015625)"/>
      <path d="M 453 -997 
L 453 -691 
Q 934 -359 1145 242 
Q 1356 844 1356 1931 
Q 1356 3022 1145 3623 
Q 934 4225 453 4556 
L 453 4863 
Q 1216 4522 1603 3783 
Q 1991 3044 1991 1931 
Q 1991 822 1603 83 
Q 1216 -656 453 -997 
z
" id="DejaVuSerif-29" transform="scale(0.015625)"/>
     </defs>
     <use xlink:href="#DejaVuSerif-61"/>
     <use x="59.619141" xlink:href="#DejaVuSerif-29"/>
    </g>
   </g>
   <g id="legend_1">
    <g id="patch_5">
     <path d="M 129.838158 145.4525 
L 184.363158 145.4525 
Q 186.363158 145.4525 186.363158 143.4525 
L 186.363158 115.09625 
Q 186.363158 113.09625 184.363158 113.09625 
L 129.838158 113.09625 
Q 127.838158 113.09625 127.838158 115.09625 
L 127.838158 143.4525 
Q 127.838158 145.4525 129.838158 145.4525 
z
" style="fill:#ffffff;opacity:0.35;stroke:#cccccc;stroke-linejoin:miter;"/>
    </g>
    <g id="line2d_11">
     <path d="M 131.838158 121.194688 
L 151.838158 121.194688 
" style="fill:none;stroke:#1a1a1a;stroke-linecap:round;stroke-opacity:0.5;stroke-width:1.5;"/>
    </g>
    <g id="line2d_12"/>
    <g id="text_13">
     <!-- y=x -->
     <g style="fill:#262626;" transform="translate(159.838158 124.694688)scale(0.1 -0.1)">
      <defs>
       <path d="M 2059 -325 
Q 1816 -950 1584 -1140 
Q 1353 -1331 966 -1331 
L 506 -1331 
L 506 -850 
L 844 -850 
Q 1081 -850 1212 -737 
Q 1344 -625 1503 -206 
L 1606 56 
L 191 3500 
L 800 3500 
L 1894 763 
L 2988 3500 
L 3597 3500 
L 2059 -325 
z
" id="DejaVuSans-79" transform="scale(0.015625)"/>
       <path d="M 678 2906 
L 4684 2906 
L 4684 2381 
L 678 2381 
L 678 2906 
z
M 678 1631 
L 4684 1631 
L 4684 1100 
L 678 1100 
L 678 1631 
z
" id="DejaVuSans-3d" transform="scale(0.015625)"/>
       <path d="M 3513 3500 
L 2247 1797 
L 3578 0 
L 2900 0 
L 1881 1375 
L 863 0 
L 184 0 
L 1544 1831 
L 300 3500 
L 978 3500 
L 1906 2253 
L 2834 3500 
L 3513 3500 
z
" id="DejaVuSans-78" transform="scale(0.015625)"/>
      </defs>
      <use xlink:href="#DejaVuSans-79"/>
      <use x="59.179688" xlink:href="#DejaVuSans-3d"/>
      <use x="142.96875" xlink:href="#DejaVuSans-78"/>
     </g>
    </g>
    <g id="PathCollection_2">
     <g>
      <use style="fill:#43a2ca;fill-opacity:0.9;stroke:#43a2ca;stroke-opacity:0.9;" x="141.838158" xlink:href="#m96b8b00ec1" y="136.747813"/>
     </g>
    </g>
    <g id="text_14">
     <!-- data -->
     <g style="fill:#262626;" transform="translate(159.838158 139.372813)scale(0.1 -0.1)">
      <defs>
       <path d="M 2906 2969 
L 2906 4863 
L 3481 4863 
L 3481 0 
L 2906 0 
L 2906 525 
Q 2725 213 2448 61 
Q 2172 -91 1784 -91 
Q 1150 -91 751 415 
Q 353 922 353 1747 
Q 353 2572 751 3078 
Q 1150 3584 1784 3584 
Q 2172 3584 2448 3432 
Q 2725 3281 2906 2969 
z
M 947 1747 
Q 947 1113 1208 752 
Q 1469 391 1925 391 
Q 2381 391 2643 752 
Q 2906 1113 2906 1747 
Q 2906 2381 2643 2742 
Q 2381 3103 1925 3103 
Q 1469 3103 1208 2742 
Q 947 2381 947 1747 
z
" id="DejaVuSans-64" transform="scale(0.015625)"/>
       <path d="M 2194 1759 
Q 1497 1759 1228 1600 
Q 959 1441 959 1056 
Q 959 750 1161 570 
Q 1363 391 1709 391 
Q 2188 391 2477 730 
Q 2766 1069 2766 1631 
L 2766 1759 
L 2194 1759 
z
M 3341 1997 
L 3341 0 
L 2766 0 
L 2766 531 
Q 2569 213 2275 61 
Q 1981 -91 1556 -91 
Q 1019 -91 701 211 
Q 384 513 384 1019 
Q 384 1609 779 1909 
Q 1175 2209 1959 2209 
L 2766 2209 
L 2766 2266 
Q 2766 2663 2505 2880 
Q 2244 3097 1772 3097 
Q 1472 3097 1187 3025 
Q 903 2953 641 2809 
L 641 3341 
Q 956 3463 1253 3523 
Q 1550 3584 1831 3584 
Q 2591 3584 2966 3190 
Q 3341 2797 3341 1997 
z
" id="DejaVuSans-61" transform="scale(0.015625)"/>
       <path d="M 1172 4494 
L 1172 3500 
L 2356 3500 
L 2356 3053 
L 1172 3053 
L 1172 1153 
Q 1172 725 1289 603 
Q 1406 481 1766 481 
L 2356 481 
L 2356 0 
L 1766 0 
Q 1100 0 847 248 
Q 594 497 594 1153 
L 594 3053 
L 172 3053 
L 172 3500 
L 594 3500 
L 594 4494 
L 1172 4494 
z
" id="DejaVuSans-74" transform="scale(0.015625)"/>
      </defs>
      <use xlink:href="#DejaVuSans-64"/>
      <use x="63.476562" xlink:href="#DejaVuSans-61"/>
      <use x="124.755859" xlink:href="#DejaVuSans-74"/>
      <use x="163.964844" xlink:href="#DejaVuSans-61"/>
     </g>
    </g>
   </g>
  </g>
  <g id="axes_2">
   <g id="patch_6">
    <path d="M 491.595395 189.63625 
L 620.082237 189.63625 
L 620.082237 26.55625 
L 491.595395 26.55625 
z
" style="fill:#ffffff;"/>
   </g>
   <g id="matplotlib.axis_3">
    <g id="xtick_4">
     <g id="line2d_13">
      <g>
       <use style="fill:#262626;stroke:#262626;stroke-width:1.25;" x="497.435706" xlink:href="#me5ef7a7c82" y="189.63625"/>
      </g>
     </g>
     <g id="text_15">
      <!-- 1960 -->
      <g style="fill:#262626;" transform="translate(489.684269 224.841902)rotate(-45)scale(0.11 -0.11)">
       <defs>
        <path d="M 703 97 
L 703 672 
Q 941 559 1184 500 
Q 1428 441 1663 441 
Q 2288 441 2617 861 
Q 2947 1281 2994 2138 
Q 2813 1869 2534 1725 
Q 2256 1581 1919 1581 
Q 1219 1581 811 2004 
Q 403 2428 403 3163 
Q 403 3881 828 4315 
Q 1253 4750 1959 4750 
Q 2769 4750 3195 4129 
Q 3622 3509 3622 2328 
Q 3622 1225 3098 567 
Q 2575 -91 1691 -91 
Q 1453 -91 1209 -44 
Q 966 3 703 97 
z
M 1959 2075 
Q 2384 2075 2632 2365 
Q 2881 2656 2881 3163 
Q 2881 3666 2632 3958 
Q 2384 4250 1959 4250 
Q 1534 4250 1286 3958 
Q 1038 3666 1038 3163 
Q 1038 2656 1286 2365 
Q 1534 2075 1959 2075 
z
" id="DejaVuSans-39" transform="scale(0.015625)"/>
       </defs>
       <use xlink:href="#DejaVuSans-31"/>
       <use x="63.623047" xlink:href="#DejaVuSans-39"/>
       <use x="127.246094" xlink:href="#DejaVuSans-36"/>
       <use x="190.869141" xlink:href="#DejaVuSans-30"/>
      </g>
     </g>
    </g>
    <g id="xtick_5">
     <g id="line2d_14">
      <g>
       <use style="fill:#262626;stroke:#262626;stroke-width:1.25;" x="520.79695" xlink:href="#me5ef7a7c82" y="189.63625"/>
      </g>
     </g>
     <g id="text_16">
      <!-- 1970 -->
      <g style="fill:#262626;" transform="translate(513.045513 224.841902)rotate(-45)scale(0.11 -0.11)">
       <defs>
        <path d="M 525 4666 
L 3525 4666 
L 3525 4397 
L 1831 0 
L 1172 0 
L 2766 4134 
L 525 4134 
L 525 4666 
z
" id="DejaVuSans-37" transform="scale(0.015625)"/>
       </defs>
       <use xlink:href="#DejaVuSans-31"/>
       <use x="63.623047" xlink:href="#DejaVuSans-39"/>
       <use x="127.246094" xlink:href="#DejaVuSans-37"/>
       <use x="190.869141" xlink:href="#DejaVuSans-30"/>
      </g>
     </g>
    </g>
    <g id="xtick_6">
     <g id="line2d_15">
      <g>
       <use style="fill:#262626;stroke:#262626;stroke-width:1.25;" x="544.158194" xlink:href="#me5ef7a7c82" y="189.63625"/>
      </g>
     </g>
     <g id="text_17">
      <!-- 1980 -->
      <g style="fill:#262626;" transform="translate(536.406757 224.841902)rotate(-45)scale(0.11 -0.11)">
       <use xlink:href="#DejaVuSans-31"/>
       <use x="63.623047" xlink:href="#DejaVuSans-39"/>
       <use x="127.246094" xlink:href="#DejaVuSans-38"/>
       <use x="190.869141" xlink:href="#DejaVuSans-30"/>
      </g>
     </g>
    </g>
    <g id="xtick_7">
     <g id="line2d_16">
      <g>
       <use style="fill:#262626;stroke:#262626;stroke-width:1.25;" x="567.519438" xlink:href="#me5ef7a7c82" y="189.63625"/>
      </g>
     </g>
     <g id="text_18">
      <!-- 1990 -->
      <g style="fill:#262626;" transform="translate(559.768001 224.841902)rotate(-45)scale(0.11 -0.11)">
       <use xlink:href="#DejaVuSans-31"/>
       <use x="63.623047" xlink:href="#DejaVuSans-39"/>
       <use x="127.246094" xlink:href="#DejaVuSans-39"/>
       <use x="190.869141" xlink:href="#DejaVuSans-30"/>
      </g>
     </g>
    </g>
    <g id="xtick_8">
     <g id="line2d_17">
      <g>
       <use style="fill:#262626;stroke:#262626;stroke-width:1.25;" x="590.880682" xlink:href="#me5ef7a7c82" y="189.63625"/>
      </g>
     </g>
     <g id="text_19">
      <!-- 2000 -->
      <g style="fill:#262626;" transform="translate(583.129245 224.841902)rotate(-45)scale(0.11 -0.11)">
       <use xlink:href="#DejaVuSans-32"/>
       <use x="63.623047" xlink:href="#DejaVuSans-30"/>
       <use x="127.246094" xlink:href="#DejaVuSans-30"/>
       <use x="190.869141" xlink:href="#DejaVuSans-30"/>
      </g>
     </g>
    </g>
    <g id="xtick_9">
     <g id="line2d_18">
      <g>
       <use style="fill:#262626;stroke:#262626;stroke-width:1.25;" x="614.241926" xlink:href="#me5ef7a7c82" y="189.63625"/>
      </g>
     </g>
     <g id="text_20">
      <!-- 2010 -->
      <g style="fill:#262626;" transform="translate(606.490489 224.841902)rotate(-45)scale(0.11 -0.11)">
       <use xlink:href="#DejaVuSans-32"/>
       <use x="63.623047" xlink:href="#DejaVuSans-30"/>
       <use x="127.246094" xlink:href="#DejaVuSans-31"/>
       <use x="190.869141" xlink:href="#DejaVuSans-30"/>
      </g>
     </g>
    </g>
    <g id="text_21">
     <!-- decade of formation -->
     <g style="fill:#262626;" transform="translate(495.104753 239.577644)scale(0.12 -0.12)">
      <defs>
       <path d="M 3597 1894 
L 3597 1613 
L 953 1613 
Q 991 1019 1311 708 
Q 1631 397 2203 397 
Q 2534 397 2845 478 
Q 3156 559 3463 722 
L 3463 178 
Q 3153 47 2828 -22 
Q 2503 -91 2169 -91 
Q 1331 -91 842 396 
Q 353 884 353 1716 
Q 353 2575 817 3079 
Q 1281 3584 2069 3584 
Q 2775 3584 3186 3129 
Q 3597 2675 3597 1894 
z
M 3022 2063 
Q 3016 2534 2758 2815 
Q 2500 3097 2075 3097 
Q 1594 3097 1305 2825 
Q 1016 2553 972 2059 
L 3022 2063 
z
" id="DejaVuSans-65" transform="scale(0.015625)"/>
       <path d="M 3122 3366 
L 3122 2828 
Q 2878 2963 2633 3030 
Q 2388 3097 2138 3097 
Q 1578 3097 1268 2742 
Q 959 2388 959 1747 
Q 959 1106 1268 751 
Q 1578 397 2138 397 
Q 2388 397 2633 464 
Q 2878 531 3122 666 
L 3122 134 
Q 2881 22 2623 -34 
Q 2366 -91 2075 -91 
Q 1284 -91 818 406 
Q 353 903 353 1747 
Q 353 2603 823 3093 
Q 1294 3584 2113 3584 
Q 2378 3584 2631 3529 
Q 2884 3475 3122 3366 
z
" id="DejaVuSans-63" transform="scale(0.015625)"/>
       <path id="DejaVuSans-20" transform="scale(0.015625)"/>
       <path d="M 1959 3097 
Q 1497 3097 1228 2736 
Q 959 2375 959 1747 
Q 959 1119 1226 758 
Q 1494 397 1959 397 
Q 2419 397 2687 759 
Q 2956 1122 2956 1747 
Q 2956 2369 2687 2733 
Q 2419 3097 1959 3097 
z
M 1959 3584 
Q 2709 3584 3137 3096 
Q 3566 2609 3566 1747 
Q 3566 888 3137 398 
Q 2709 -91 1959 -91 
Q 1206 -91 779 398 
Q 353 888 353 1747 
Q 353 2609 779 3096 
Q 1206 3584 1959 3584 
z
" id="DejaVuSans-6f" transform="scale(0.015625)"/>
       <path d="M 2375 4863 
L 2375 4384 
L 1825 4384 
Q 1516 4384 1395 4259 
Q 1275 4134 1275 3809 
L 1275 3500 
L 2222 3500 
L 2222 3053 
L 1275 3053 
L 1275 0 
L 697 0 
L 697 3053 
L 147 3053 
L 147 3500 
L 697 3500 
L 697 3744 
Q 697 4328 969 4595 
Q 1241 4863 1831 4863 
L 2375 4863 
z
" id="DejaVuSans-66" transform="scale(0.015625)"/>
       <path d="M 2631 2963 
Q 2534 3019 2420 3045 
Q 2306 3072 2169 3072 
Q 1681 3072 1420 2755 
Q 1159 2438 1159 1844 
L 1159 0 
L 581 0 
L 581 3500 
L 1159 3500 
L 1159 2956 
Q 1341 3275 1631 3429 
Q 1922 3584 2338 3584 
Q 2397 3584 2469 3576 
Q 2541 3569 2628 3553 
L 2631 2963 
z
" id="DejaVuSans-72" transform="scale(0.015625)"/>
       <path d="M 3328 2828 
Q 3544 3216 3844 3400 
Q 4144 3584 4550 3584 
Q 5097 3584 5394 3201 
Q 5691 2819 5691 2113 
L 5691 0 
L 5113 0 
L 5113 2094 
Q 5113 2597 4934 2840 
Q 4756 3084 4391 3084 
Q 3944 3084 3684 2787 
Q 3425 2491 3425 1978 
L 3425 0 
L 2847 0 
L 2847 2094 
Q 2847 2600 2669 2842 
Q 2491 3084 2119 3084 
Q 1678 3084 1418 2786 
Q 1159 2488 1159 1978 
L 1159 0 
L 581 0 
L 581 3500 
L 1159 3500 
L 1159 2956 
Q 1356 3278 1631 3431 
Q 1906 3584 2284 3584 
Q 2666 3584 2933 3390 
Q 3200 3197 3328 2828 
z
" id="DejaVuSans-6d" transform="scale(0.015625)"/>
       <path d="M 603 3500 
L 1178 3500 
L 1178 0 
L 603 0 
L 603 3500 
z
M 603 4863 
L 1178 4863 
L 1178 4134 
L 603 4134 
L 603 4863 
z
" id="DejaVuSans-69" transform="scale(0.015625)"/>
       <path d="M 3513 2113 
L 3513 0 
L 2938 0 
L 2938 2094 
Q 2938 2591 2744 2837 
Q 2550 3084 2163 3084 
Q 1697 3084 1428 2787 
Q 1159 2491 1159 1978 
L 1159 0 
L 581 0 
L 581 3500 
L 1159 3500 
L 1159 2956 
Q 1366 3272 1645 3428 
Q 1925 3584 2291 3584 
Q 2894 3584 3203 3211 
Q 3513 2838 3513 2113 
z
" id="DejaVuSans-6e" transform="scale(0.015625)"/>
      </defs>
      <use xlink:href="#DejaVuSans-64"/>
      <use x="63.476562" xlink:href="#DejaVuSans-65"/>
      <use x="125" xlink:href="#DejaVuSans-63"/>
      <use x="179.980469" xlink:href="#DejaVuSans-61"/>
      <use x="241.259766" xlink:href="#DejaVuSans-64"/>
      <use x="304.736328" xlink:href="#DejaVuSans-65"/>
      <use x="366.259766" xlink:href="#DejaVuSans-20"/>
      <use x="398.046875" xlink:href="#DejaVuSans-6f"/>
      <use x="459.228516" xlink:href="#DejaVuSans-66"/>
      <use x="494.433594" xlink:href="#DejaVuSans-20"/>
      <use x="526.220703" xlink:href="#DejaVuSans-66"/>
      <use x="561.425781" xlink:href="#DejaVuSans-6f"/>
      <use x="622.607422" xlink:href="#DejaVuSans-72"/>
      <use x="661.970703" xlink:href="#DejaVuSans-6d"/>
      <use x="759.382812" xlink:href="#DejaVuSans-61"/>
      <use x="820.662109" xlink:href="#DejaVuSans-74"/>
      <use x="859.871094" xlink:href="#DejaVuSans-69"/>
      <use x="887.654297" xlink:href="#DejaVuSans-6f"/>
      <use x="948.835938" xlink:href="#DejaVuSans-6e"/>
     </g>
    </g>
   </g>
   <g id="matplotlib.axis_4">
    <g id="ytick_7">
     <g id="line2d_19">
      <g>
       <use style="fill:#262626;stroke:#262626;stroke-width:1.25;" x="491.595395" xlink:href="#m5a4e150808" y="159.266941"/>
      </g>
     </g>
     <g id="text_22">
      <!-- 0.2 -->
      <g style="fill:#262626;" transform="translate(464.601957 163.446082)scale(0.11 -0.11)">
       <use xlink:href="#DejaVuSans-30"/>
       <use x="63.623047" xlink:href="#DejaVuSans-2e"/>
       <use x="95.410156" xlink:href="#DejaVuSans-32"/>
      </g>
     </g>
    </g>
    <g id="ytick_8">
     <g id="line2d_20">
      <g>
       <use style="fill:#262626;stroke:#262626;stroke-width:1.25;" x="491.595395" xlink:href="#m5a4e150808" y="124.312409"/>
      </g>
     </g>
     <g id="text_23">
      <!-- 0.3 -->
      <g style="fill:#262626;" transform="translate(464.601957 128.49155)scale(0.11 -0.11)">
       <defs>
        <path d="M 2597 2516 
Q 3050 2419 3304 2112 
Q 3559 1806 3559 1356 
Q 3559 666 3084 287 
Q 2609 -91 1734 -91 
Q 1441 -91 1130 -33 
Q 819 25 488 141 
L 488 750 
Q 750 597 1062 519 
Q 1375 441 1716 441 
Q 2309 441 2620 675 
Q 2931 909 2931 1356 
Q 2931 1769 2642 2001 
Q 2353 2234 1838 2234 
L 1294 2234 
L 1294 2753 
L 1863 2753 
Q 2328 2753 2575 2939 
Q 2822 3125 2822 3475 
Q 2822 3834 2567 4026 
Q 2313 4219 1838 4219 
Q 1578 4219 1281 4162 
Q 984 4106 628 3988 
L 628 4550 
Q 988 4650 1302 4700 
Q 1616 4750 1894 4750 
Q 2613 4750 3031 4423 
Q 3450 4097 3450 3541 
Q 3450 3153 3228 2886 
Q 3006 2619 2597 2516 
z
" id="DejaVuSans-33" transform="scale(0.015625)"/>
       </defs>
       <use xlink:href="#DejaVuSans-30"/>
       <use x="63.623047" xlink:href="#DejaVuSans-2e"/>
       <use x="95.410156" xlink:href="#DejaVuSans-33"/>
      </g>
     </g>
    </g>
    <g id="ytick_9">
     <g id="line2d_21">
      <g>
       <use style="fill:#262626;stroke:#262626;stroke-width:1.25;" x="491.595395" xlink:href="#m5a4e150808" y="89.357877"/>
      </g>
     </g>
     <g id="text_24">
      <!-- 0.4 -->
      <g style="fill:#262626;" transform="translate(464.601957 93.537018)scale(0.11 -0.11)">
       <use xlink:href="#DejaVuSans-30"/>
       <use x="63.623047" xlink:href="#DejaVuSans-2e"/>
       <use x="95.410156" xlink:href="#DejaVuSans-34"/>
      </g>
     </g>
    </g>
    <g id="ytick_10">
     <g id="line2d_22">
      <g>
       <use style="fill:#262626;stroke:#262626;stroke-width:1.25;" x="491.595395" xlink:href="#m5a4e150808" y="54.403345"/>
      </g>
     </g>
     <g id="text_25">
      <!-- 0.5 -->
      <g style="fill:#262626;" transform="translate(464.601957 58.582485)scale(0.11 -0.11)">
       <use xlink:href="#DejaVuSans-30"/>
       <use x="63.623047" xlink:href="#DejaVuSans-2e"/>
       <use x="95.410156" xlink:href="#DejaVuSans-35"/>
      </g>
     </g>
    </g>
    <g id="text_26">
     <!-- average impact, c5 -->
     <g style="fill:#262626;" transform="translate(458.106332 166.14625)rotate(-90)scale(0.12 -0.12)">
      <defs>
       <path d="M 191 3500 
L 800 3500 
L 1894 563 
L 2988 3500 
L 3597 3500 
L 2284 0 
L 1503 0 
L 191 3500 
z
" id="DejaVuSans-76" transform="scale(0.015625)"/>
       <path d="M 2906 1791 
Q 2906 2416 2648 2759 
Q 2391 3103 1925 3103 
Q 1463 3103 1205 2759 
Q 947 2416 947 1791 
Q 947 1169 1205 825 
Q 1463 481 1925 481 
Q 2391 481 2648 825 
Q 2906 1169 2906 1791 
z
M 3481 434 
Q 3481 -459 3084 -895 
Q 2688 -1331 1869 -1331 
Q 1566 -1331 1297 -1286 
Q 1028 -1241 775 -1147 
L 775 -588 
Q 1028 -725 1275 -790 
Q 1522 -856 1778 -856 
Q 2344 -856 2625 -561 
Q 2906 -266 2906 331 
L 2906 616 
Q 2728 306 2450 153 
Q 2172 0 1784 0 
Q 1141 0 747 490 
Q 353 981 353 1791 
Q 353 2603 747 3093 
Q 1141 3584 1784 3584 
Q 2172 3584 2450 3431 
Q 2728 3278 2906 2969 
L 2906 3500 
L 3481 3500 
L 3481 434 
z
" id="DejaVuSans-67" transform="scale(0.015625)"/>
       <path d="M 1159 525 
L 1159 -1331 
L 581 -1331 
L 581 3500 
L 1159 3500 
L 1159 2969 
Q 1341 3281 1617 3432 
Q 1894 3584 2278 3584 
Q 2916 3584 3314 3078 
Q 3713 2572 3713 1747 
Q 3713 922 3314 415 
Q 2916 -91 2278 -91 
Q 1894 -91 1617 61 
Q 1341 213 1159 525 
z
M 3116 1747 
Q 3116 2381 2855 2742 
Q 2594 3103 2138 3103 
Q 1681 3103 1420 2742 
Q 1159 2381 1159 1747 
Q 1159 1113 1420 752 
Q 1681 391 2138 391 
Q 2594 391 2855 752 
Q 3116 1113 3116 1747 
z
" id="DejaVuSans-70" transform="scale(0.015625)"/>
       <path d="M 750 794 
L 1409 794 
L 1409 256 
L 897 -744 
L 494 -744 
L 750 256 
L 750 794 
z
" id="DejaVuSans-2c" transform="scale(0.015625)"/>
      </defs>
      <use xlink:href="#DejaVuSans-61"/>
      <use x="61.279297" xlink:href="#DejaVuSans-76"/>
      <use x="120.458984" xlink:href="#DejaVuSans-65"/>
      <use x="181.982422" xlink:href="#DejaVuSans-72"/>
      <use x="223.095703" xlink:href="#DejaVuSans-61"/>
      <use x="284.375" xlink:href="#DejaVuSans-67"/>
      <use x="347.851562" xlink:href="#DejaVuSans-65"/>
      <use x="409.375" xlink:href="#DejaVuSans-20"/>
      <use x="441.162109" xlink:href="#DejaVuSans-69"/>
      <use x="468.945312" xlink:href="#DejaVuSans-6d"/>
      <use x="566.357422" xlink:href="#DejaVuSans-70"/>
      <use x="629.833984" xlink:href="#DejaVuSans-61"/>
      <use x="691.113281" xlink:href="#DejaVuSans-63"/>
      <use x="746.09375" xlink:href="#DejaVuSans-74"/>
      <use x="785.302734" xlink:href="#DejaVuSans-2c"/>
      <use x="817.089844" xlink:href="#DejaVuSans-20"/>
      <use x="848.876953" xlink:href="#DejaVuSans-63"/>
      <use x="903.857422" xlink:href="#DejaVuSans-35"/>
     </g>
    </g>
   </g>
   <g id="PolyCollection_1">
    <defs>
     <path d="M 497.435706 -73.136137 
L 497.435706 -67.049746 
L 520.79695 -94.918743 
L 544.158194 -122.313656 
L 567.519438 -160.225051 
L 590.880682 -184.89559 
L 614.241926 -212.682456 
L 614.241926 -215.304292 
L 614.241926 -215.304292 
L 590.880682 -186.954378 
L 567.519438 -163.1684 
L 544.158194 -126.118361 
L 520.79695 -99.946635 
L 497.435706 -73.136137 
z
" id="m76b5be9670" style="stroke:#1b9e77;stroke-opacity:0.2;"/>
    </defs>
    <g clip-path="url(#p668a78dd5a)">
     <use style="fill:#1b9e77;fill-opacity:0.2;stroke:#1b9e77;stroke-opacity:0.2;" x="0" xlink:href="#m76b5be9670" y="249.273269"/>
    </g>
   </g>
   <g id="PolyCollection_2">
    <defs>
     <path d="M 497.435706 -165.619157 
L 497.435706 -156.299241 
L 520.79695 -163.184186 
L 544.158194 -177.126793 
L 567.519438 -190.602345 
L 590.880682 -191.211709 
L 614.241926 -193.188031 
L 614.241926 -196.373923 
L 614.241926 -196.373923 
L 590.880682 -193.664964 
L 567.519438 -194.223842 
L 544.158194 -181.617889 
L 520.79695 -168.755052 
L 497.435706 -165.619157 
z
" id="m9a66c3aacb" style="stroke:#cd5c5c;stroke-opacity:0.2;"/>
    </defs>
    <g clip-path="url(#p668a78dd5a)">
     <use style="fill:#cd5c5c;fill-opacity:0.2;stroke:#cd5c5c;stroke-opacity:0.2;" x="0" xlink:href="#m9a66c3aacb" y="249.273269"/>
    </g>
   </g>
   <g id="line2d_23">
    <path clip-path="url(#p668a78dd5a)" d="M 497.435706 179.325665 
L 520.79695 151.711562 
L 544.158194 125.028516 
L 567.519438 87.530417 
L 590.880682 63.404347 
L 614.241926 35.330249 
" style="fill:none;stroke:#1b9e77;stroke-linecap:round;stroke-width:1.5;"/>
   </g>
   <g id="line2d_24">
    <path clip-path="url(#p668a78dd5a)" d="M 497.435706 88.300287 
L 520.79695 83.305194 
L 544.158194 69.901453 
L 567.519438 56.834718 
L 590.880682 56.73215 
L 614.241926 54.509049 
" style="fill:none;stroke:#cd5c5c;stroke-linecap:round;stroke-width:1.5;"/>
   </g>
   <g id="line2d_25"/>
   <g id="line2d_26"/>
   <g id="line2d_27"/>
   <g id="patch_7">
    <path d="M 491.595395 189.63625 
L 491.595395 26.55625 
" style="fill:none;stroke:#262626;stroke-linecap:square;stroke-linejoin:miter;stroke-width:1.25;"/>
   </g>
   <g id="patch_8">
    <path d="M 491.595395 189.63625 
L 620.082237 189.63625 
" style="fill:none;stroke:#262626;stroke-linecap:square;stroke-linejoin:miter;stroke-width:1.25;"/>
   </g>
   <g id="text_27">
    <!-- c) -->
    <g style="fill:#262626;" transform="translate(433.776316 22.396875)scale(0.2 -0.2)">
     <defs>
      <path d="M 3291 997 
Q 3169 466 2822 187 
Q 2475 -91 1925 -91 
Q 1200 -91 759 389 
Q 319 869 319 1663 
Q 319 2459 759 2936 
Q 1200 3413 1925 3413 
Q 2241 3413 2553 3339 
Q 2866 3266 3181 3116 
L 3181 2266 
L 2847 2266 
Q 2781 2703 2561 2903 
Q 2341 3103 1931 3103 
Q 1466 3103 1228 2742 
Q 991 2381 991 1663 
Q 991 944 1227 581 
Q 1463 219 1931 219 
Q 2303 219 2525 412 
Q 2747 606 2828 997 
L 3291 997 
z
" id="DejaVuSerif-63" transform="scale(0.015625)"/>
     </defs>
     <use xlink:href="#DejaVuSerif-63"/>
     <use x="56.005859" xlink:href="#DejaVuSerif-29"/>
    </g>
   </g>
   <g id="legend_2">
    <g id="patch_9">
     <path d="M 562.838816 167.848125 
L 644.301316 167.848125 
Q 646.301316 167.848125 646.301316 165.848125 
L 646.301316 115.09625 
Q 646.301316 113.09625 644.301316 113.09625 
L 562.838816 113.09625 
Q 560.838816 113.09625 560.838816 115.09625 
L 560.838816 165.848125 
Q 560.838816 167.848125 562.838816 167.848125 
z
" style="fill:#ffffff;opacity:0.8;stroke:#cccccc;stroke-linejoin:miter;"/>
    </g>
    <g id="line2d_28">
     <path d="M 564.838816 127.833438 
L 584.838816 127.833438 
" style="fill:none;stroke:#1b9e77;stroke-linecap:round;stroke-width:1.5;"/>
    </g>
    <g id="line2d_29"/>
    <g id="text_28">
     <!-- multi -->
     <g style="fill:#262626;" transform="translate(592.838816 124.694688)scale(0.1 -0.1)">
      <defs>
       <path d="M 544 1381 
L 544 3500 
L 1119 3500 
L 1119 1403 
Q 1119 906 1312 657 
Q 1506 409 1894 409 
Q 2359 409 2629 706 
Q 2900 1003 2900 1516 
L 2900 3500 
L 3475 3500 
L 3475 0 
L 2900 0 
L 2900 538 
Q 2691 219 2414 64 
Q 2138 -91 1772 -91 
Q 1169 -91 856 284 
Q 544 659 544 1381 
z
M 1991 3584 
L 1991 3584 
z
" id="DejaVuSans-75" transform="scale(0.015625)"/>
       <path d="M 603 4863 
L 1178 4863 
L 1178 0 
L 603 0 
L 603 4863 
z
" id="DejaVuSans-6c" transform="scale(0.015625)"/>
      </defs>
      <use xlink:href="#DejaVuSans-6d"/>
      <use x="97.412109" xlink:href="#DejaVuSans-75"/>
      <use x="160.791016" xlink:href="#DejaVuSans-6c"/>
      <use x="188.574219" xlink:href="#DejaVuSans-74"/>
      <use x="227.783203" xlink:href="#DejaVuSans-69"/>
     </g>
     <!-- university -->
     <g style="fill:#262626;" transform="translate(592.838816 135.8925)scale(0.1 -0.1)">
      <defs>
       <path d="M 2834 3397 
L 2834 2853 
Q 2591 2978 2328 3040 
Q 2066 3103 1784 3103 
Q 1356 3103 1142 2972 
Q 928 2841 928 2578 
Q 928 2378 1081 2264 
Q 1234 2150 1697 2047 
L 1894 2003 
Q 2506 1872 2764 1633 
Q 3022 1394 3022 966 
Q 3022 478 2636 193 
Q 2250 -91 1575 -91 
Q 1294 -91 989 -36 
Q 684 19 347 128 
L 347 722 
Q 666 556 975 473 
Q 1284 391 1588 391 
Q 1994 391 2212 530 
Q 2431 669 2431 922 
Q 2431 1156 2273 1281 
Q 2116 1406 1581 1522 
L 1381 1569 
Q 847 1681 609 1914 
Q 372 2147 372 2553 
Q 372 3047 722 3315 
Q 1072 3584 1716 3584 
Q 2034 3584 2315 3537 
Q 2597 3491 2834 3397 
z
" id="DejaVuSans-73" transform="scale(0.015625)"/>
      </defs>
      <use xlink:href="#DejaVuSans-75"/>
      <use x="63.378906" xlink:href="#DejaVuSans-6e"/>
      <use x="126.757812" xlink:href="#DejaVuSans-69"/>
      <use x="154.541016" xlink:href="#DejaVuSans-76"/>
      <use x="213.720703" xlink:href="#DejaVuSans-65"/>
      <use x="275.244141" xlink:href="#DejaVuSans-72"/>
      <use x="316.357422" xlink:href="#DejaVuSans-73"/>
      <use x="368.457031" xlink:href="#DejaVuSans-69"/>
      <use x="396.240234" xlink:href="#DejaVuSans-74"/>
      <use x="435.449219" xlink:href="#DejaVuSans-79"/>
     </g>
    </g>
    <g id="line2d_30">
     <path d="M 564.838816 153.709375 
L 584.838816 153.709375 
" style="fill:none;stroke:#cd5c5c;stroke-linecap:round;stroke-width:1.5;"/>
    </g>
    <g id="line2d_31"/>
    <g id="text_29">
     <!-- mono -->
     <g style="fill:#262626;" transform="translate(592.838816 150.570625)scale(0.1 -0.1)">
      <use xlink:href="#DejaVuSans-6d"/>
      <use x="97.412109" xlink:href="#DejaVuSans-6f"/>
      <use x="158.59375" xlink:href="#DejaVuSans-6e"/>
      <use x="221.972656" xlink:href="#DejaVuSans-6f"/>
     </g>
     <!-- university -->
     <g style="fill:#262626;" transform="translate(592.838816 161.768438)scale(0.1 -0.1)">
      <use xlink:href="#DejaVuSans-75"/>
      <use x="63.378906" xlink:href="#DejaVuSans-6e"/>
      <use x="126.757812" xlink:href="#DejaVuSans-69"/>
      <use x="154.541016" xlink:href="#DejaVuSans-76"/>
      <use x="213.720703" xlink:href="#DejaVuSans-65"/>
      <use x="275.244141" xlink:href="#DejaVuSans-72"/>
      <use x="316.357422" xlink:href="#DejaVuSans-73"/>
      <use x="368.457031" xlink:href="#DejaVuSans-69"/>
      <use x="396.240234" xlink:href="#DejaVuSans-74"/>
      <use x="435.449219" xlink:href="#DejaVuSans-79"/>
     </g>
    </g>
   </g>
  </g>
  <g id="axes_3">
   <g id="patch_10">
    <path d="M 291.155921 189.63625 
L 393.945395 189.63625 
L 393.945395 26.55625 
L 291.155921 26.55625 
z
" style="fill:#ffffff;"/>
   </g>
   <g id="matplotlib.axis_5"/>
   <g id="matplotlib.axis_6">
    <g id="ytick_11">
     <g id="line2d_32">
      <g>
       <use style="fill:#262626;stroke:#262626;stroke-width:1.25;" x="291.155921" xlink:href="#m5a4e150808" y="182.257839"/>
      </g>
     </g>
     <g id="text_30">
      <!-- 0.0 -->
      <g style="fill:#262626;" transform="translate(264.162484 186.43698)scale(0.11 -0.11)">
       <use xlink:href="#DejaVuSans-30"/>
       <use x="63.623047" xlink:href="#DejaVuSans-2e"/>
       <use x="95.410156" xlink:href="#DejaVuSans-30"/>
      </g>
     </g>
    </g>
    <g id="ytick_12">
     <g id="line2d_33">
      <g>
       <use style="fill:#262626;stroke:#262626;stroke-width:1.25;" x="291.155921" xlink:href="#m5a4e150808" y="147.006669"/>
      </g>
     </g>
     <g id="text_31">
      <!-- 0.5 -->
      <g style="fill:#262626;" transform="translate(264.162484 151.18581)scale(0.11 -0.11)">
       <use xlink:href="#DejaVuSans-30"/>
       <use x="63.623047" xlink:href="#DejaVuSans-2e"/>
       <use x="95.410156" xlink:href="#DejaVuSans-35"/>
      </g>
     </g>
    </g>
    <g id="ytick_13">
     <g id="line2d_34">
      <g>
       <use style="fill:#262626;stroke:#262626;stroke-width:1.25;" x="291.155921" xlink:href="#m5a4e150808" y="111.755499"/>
      </g>
     </g>
     <g id="text_32">
      <!-- 1.0 -->
      <g style="fill:#262626;" transform="translate(264.162484 115.93464)scale(0.11 -0.11)">
       <use xlink:href="#DejaVuSans-31"/>
       <use x="63.623047" xlink:href="#DejaVuSans-2e"/>
       <use x="95.410156" xlink:href="#DejaVuSans-30"/>
      </g>
     </g>
    </g>
    <g id="ytick_14">
     <g id="line2d_35">
      <g>
       <use style="fill:#262626;stroke:#262626;stroke-width:1.25;" x="291.155921" xlink:href="#m5a4e150808" y="76.504329"/>
      </g>
     </g>
     <g id="text_33">
      <!-- 1.5 -->
      <g style="fill:#262626;" transform="translate(264.162484 80.68347)scale(0.11 -0.11)">
       <use xlink:href="#DejaVuSans-31"/>
       <use x="63.623047" xlink:href="#DejaVuSans-2e"/>
       <use x="95.410156" xlink:href="#DejaVuSans-35"/>
      </g>
     </g>
    </g>
    <g id="ytick_15">
     <g id="line2d_36">
      <g>
       <use style="fill:#262626;stroke:#262626;stroke-width:1.25;" x="291.155921" xlink:href="#m5a4e150808" y="41.253159"/>
      </g>
     </g>
     <g id="text_34">
      <!-- 2.0 -->
      <g style="fill:#262626;" transform="translate(264.162484 45.4323)scale(0.11 -0.11)">
       <use xlink:href="#DejaVuSans-32"/>
       <use x="63.623047" xlink:href="#DejaVuSans-2e"/>
       <use x="95.410156" xlink:href="#DejaVuSans-30"/>
      </g>
     </g>
    </g>
    <g id="text_35">
     <!-- average impact, c5 -->
     <g style="fill:#262626;" transform="translate(257.666859 166.14625)rotate(-90)scale(0.12 -0.12)">
      <use xlink:href="#DejaVuSans-61"/>
      <use x="61.279297" xlink:href="#DejaVuSans-76"/>
      <use x="120.458984" xlink:href="#DejaVuSans-65"/>
      <use x="181.982422" xlink:href="#DejaVuSans-72"/>
      <use x="223.095703" xlink:href="#DejaVuSans-61"/>
      <use x="284.375" xlink:href="#DejaVuSans-67"/>
      <use x="347.851562" xlink:href="#DejaVuSans-65"/>
      <use x="409.375" xlink:href="#DejaVuSans-20"/>
      <use x="441.162109" xlink:href="#DejaVuSans-69"/>
      <use x="468.945312" xlink:href="#DejaVuSans-6d"/>
      <use x="566.357422" xlink:href="#DejaVuSans-70"/>
      <use x="629.833984" xlink:href="#DejaVuSans-61"/>
      <use x="691.113281" xlink:href="#DejaVuSans-63"/>
      <use x="746.09375" xlink:href="#DejaVuSans-74"/>
      <use x="785.302734" xlink:href="#DejaVuSans-2c"/>
      <use x="817.089844" xlink:href="#DejaVuSans-20"/>
      <use x="848.876953" xlink:href="#DejaVuSans-63"/>
      <use x="903.857422" xlink:href="#DejaVuSans-35"/>
     </g>
    </g>
   </g>
   <g id="patch_11">
    <path clip-path="url(#p620bed7ee8)" d="M 342.550658 182.257839 
L 342.550658 182.257839 
L 342.550658 182.257839 
L 342.550658 182.257839 
z
" style="fill:#b9dccc;stroke:#7a7a7a;stroke-linejoin:miter;"/>
   </g>
   <g id="patch_12">
    <path clip-path="url(#p620bed7ee8)" d="M 342.550658 182.257839 
L 342.550658 182.257839 
L 342.550658 182.257839 
L 342.550658 182.257839 
z
" style="fill:#f3cfb6;stroke:#7a7a7a;stroke-linejoin:miter;"/>
   </g>
   <g id="patch_13">
    <path clip-path="url(#p620bed7ee8)" d="M 342.550658 182.257839 
L 342.550658 182.257839 
L 342.550658 182.257839 
L 342.550658 182.257839 
z
" style="fill:#cfd6e4;stroke:#7a7a7a;stroke-linejoin:miter;"/>
   </g>
   <g id="patch_14">
    <path clip-path="url(#p620bed7ee8)" d="M 342.550658 182.257839 
L 342.550658 182.257839 
L 342.550658 182.257839 
L 342.550658 182.257839 
z
" style="fill:#ece1d1;stroke:#7a7a7a;stroke-linejoin:miter;"/>
   </g>
   <g id="patch_15">
    <path clip-path="url(#p620bed7ee8)" d="M 342.550658 182.257839 
L 342.550658 182.257839 
L 342.550658 182.257839 
L 342.550658 182.257839 
z
" style="fill:#e4f0ce;stroke:#7a7a7a;stroke-linejoin:miter;"/>
   </g>
   <g id="patch_16">
    <path clip-path="url(#p620bed7ee8)" d="M 342.550658 182.257839 
L 342.550658 182.257839 
L 342.550658 182.257839 
L 342.550658 182.257839 
z
" style="fill:#f5ebb8;stroke:#7a7a7a;stroke-linejoin:miter;"/>
   </g>
   <g id="patch_17">
    <path clip-path="url(#p620bed7ee8)" d="M 342.550658 182.257839 
L 342.550658 182.257839 
L 342.550658 182.257839 
L 342.550658 182.257839 
z
" style="fill:#efcfe3;stroke:#7a7a7a;stroke-linejoin:miter;"/>
   </g>
   <g id="line2d_37">
    <path clip-path="url(#p620bed7ee8)" d="M 307.308553 173.031797 
L 307.308553 182.165438 
" style="fill:none;stroke:#7a7a7a;"/>
   </g>
   <g id="line2d_38">
    <path clip-path="url(#p620bed7ee8)" d="M 307.308553 129.870793 
L 307.308553 65.132576 
" style="fill:none;stroke:#7a7a7a;"/>
   </g>
   <g id="line2d_39">
    <path clip-path="url(#p620bed7ee8)" d="M 304.371711 182.165438 
L 310.245395 182.165438 
" style="fill:none;stroke:#7a7a7a;stroke-linecap:round;"/>
   </g>
   <g id="line2d_40">
    <path clip-path="url(#p620bed7ee8)" d="M 304.371711 65.132576 
L 310.245395 65.132576 
" style="fill:none;stroke:#7a7a7a;stroke-linecap:round;"/>
   </g>
   <g id="line2d_41">
    <path clip-path="url(#p620bed7ee8)" d="M 319.055921 169.87555 
L 319.055921 182.189583 
" style="fill:none;stroke:#7a7a7a;"/>
   </g>
   <g id="line2d_42">
    <path clip-path="url(#p620bed7ee8)" d="M 319.055921 123.022424 
L 319.055921 52.827338 
" style="fill:none;stroke:#7a7a7a;"/>
   </g>
   <g id="line2d_43">
    <path clip-path="url(#p620bed7ee8)" d="M 316.119079 182.189583 
L 321.992763 182.189583 
" style="fill:none;stroke:#7a7a7a;stroke-linecap:round;"/>
   </g>
   <g id="line2d_44">
    <path clip-path="url(#p620bed7ee8)" d="M 316.119079 52.827338 
L 321.992763 52.827338 
" style="fill:none;stroke:#7a7a7a;stroke-linecap:round;"/>
   </g>
   <g id="line2d_45">
    <path clip-path="url(#p620bed7ee8)" d="M 330.803289 173.196569 
L 330.803289 182.163949 
" style="fill:none;stroke:#7a7a7a;"/>
   </g>
   <g id="line2d_46">
    <path clip-path="url(#p620bed7ee8)" d="M 330.803289 134.8161 
L 330.803289 77.246016 
" style="fill:none;stroke:#7a7a7a;"/>
   </g>
   <g id="line2d_47">
    <path clip-path="url(#p620bed7ee8)" d="M 327.866447 182.163949 
L 333.740132 182.163949 
" style="fill:none;stroke:#7a7a7a;stroke-linecap:round;"/>
   </g>
   <g id="line2d_48">
    <path clip-path="url(#p620bed7ee8)" d="M 327.866447 77.246016 
L 333.740132 77.246016 
" style="fill:none;stroke:#7a7a7a;stroke-linecap:round;"/>
   </g>
   <g id="line2d_49">
    <path clip-path="url(#p620bed7ee8)" d="M 342.550658 168.599997 
L 342.550658 182.179082 
" style="fill:none;stroke:#7a7a7a;"/>
   </g>
   <g id="line2d_50">
    <path clip-path="url(#p620bed7ee8)" d="M 342.550658 117.312207 
L 342.550658 40.383025 
" style="fill:none;stroke:#7a7a7a;"/>
   </g>
   <g id="line2d_51">
    <path clip-path="url(#p620bed7ee8)" d="M 339.613816 182.179082 
L 345.4875 182.179082 
" style="fill:none;stroke:#7a7a7a;stroke-linecap:round;"/>
   </g>
   <g id="line2d_52">
    <path clip-path="url(#p620bed7ee8)" d="M 339.613816 40.383025 
L 345.4875 40.383025 
" style="fill:none;stroke:#7a7a7a;stroke-linecap:round;"/>
   </g>
   <g id="line2d_53">
    <path clip-path="url(#p620bed7ee8)" d="M 354.298026 168.653338 
L 354.298026 182.223523 
" style="fill:none;stroke:#7a7a7a;"/>
   </g>
   <g id="line2d_54">
    <path clip-path="url(#p620bed7ee8)" d="M 354.298026 119.891024 
L 354.298026 46.752103 
" style="fill:none;stroke:#7a7a7a;"/>
   </g>
   <g id="line2d_55">
    <path clip-path="url(#p620bed7ee8)" d="M 351.361184 182.223523 
L 357.234868 182.223523 
" style="fill:none;stroke:#7a7a7a;stroke-linecap:round;"/>
   </g>
   <g id="line2d_56">
    <path clip-path="url(#p620bed7ee8)" d="M 351.361184 46.752103 
L 357.234868 46.752103 
" style="fill:none;stroke:#7a7a7a;stroke-linecap:round;"/>
   </g>
   <g id="line2d_57">
    <path clip-path="url(#p620bed7ee8)" d="M 366.045395 169.922741 
L 366.045395 182.165445 
" style="fill:none;stroke:#7a7a7a;"/>
   </g>
   <g id="line2d_58">
    <path clip-path="url(#p620bed7ee8)" d="M 366.045395 123.330511 
L 366.045395 53.457247 
" style="fill:none;stroke:#7a7a7a;"/>
   </g>
   <g id="line2d_59">
    <path clip-path="url(#p620bed7ee8)" d="M 363.108553 182.165445 
L 368.982237 182.165445 
" style="fill:none;stroke:#7a7a7a;stroke-linecap:round;"/>
   </g>
   <g id="line2d_60">
    <path clip-path="url(#p620bed7ee8)" d="M 363.108553 53.457247 
L 368.982237 53.457247 
" style="fill:none;stroke:#7a7a7a;stroke-linecap:round;"/>
   </g>
   <g id="line2d_61">
    <path clip-path="url(#p620bed7ee8)" d="M 377.792763 166.498994 
L 377.792763 182.222739 
" style="fill:none;stroke:#7a7a7a;"/>
   </g>
   <g id="line2d_62">
    <path clip-path="url(#p620bed7ee8)" d="M 377.792763 113.483284 
L 377.792763 33.968977 
" style="fill:none;stroke:#7a7a7a;"/>
   </g>
   <g id="line2d_63">
    <path clip-path="url(#p620bed7ee8)" d="M 374.855921 182.222739 
L 380.729605 182.222739 
" style="fill:none;stroke:#7a7a7a;stroke-linecap:round;"/>
   </g>
   <g id="line2d_64">
    <path clip-path="url(#p620bed7ee8)" d="M 374.855921 33.968977 
L 380.729605 33.968977 
" style="fill:none;stroke:#7a7a7a;stroke-linecap:round;"/>
   </g>
   <g id="patch_18">
    <path clip-path="url(#p620bed7ee8)" d="M 301.434868 173.031797 
L 313.182237 173.031797 
L 313.182237 129.870793 
L 301.434868 129.870793 
L 301.434868 173.031797 
z
" style="fill:#b9dccc;stroke:#7a7a7a;stroke-linejoin:miter;"/>
   </g>
   <g id="patch_19">
    <path clip-path="url(#p620bed7ee8)" d="M 313.182237 169.87555 
L 324.929605 169.87555 
L 324.929605 123.022424 
L 313.182237 123.022424 
L 313.182237 169.87555 
z
" style="fill:#f3cfb6;stroke:#7a7a7a;stroke-linejoin:miter;"/>
   </g>
   <g id="patch_20">
    <path clip-path="url(#p620bed7ee8)" d="M 324.929605 173.196569 
L 336.676974 173.196569 
L 336.676974 134.8161 
L 324.929605 134.8161 
L 324.929605 173.196569 
z
" style="fill:#cfd6e4;stroke:#7a7a7a;stroke-linejoin:miter;"/>
   </g>
   <g id="patch_21">
    <path clip-path="url(#p620bed7ee8)" d="M 336.676974 168.599997 
L 348.424342 168.599997 
L 348.424342 117.312207 
L 336.676974 117.312207 
L 336.676974 168.599997 
z
" style="fill:#ece1d1;stroke:#7a7a7a;stroke-linejoin:miter;"/>
   </g>
   <g id="patch_22">
    <path clip-path="url(#p620bed7ee8)" d="M 348.424342 168.653338 
L 360.171711 168.653338 
L 360.171711 119.891024 
L 348.424342 119.891024 
L 348.424342 168.653338 
z
" style="fill:#e4f0ce;stroke:#7a7a7a;stroke-linejoin:miter;"/>
   </g>
   <g id="patch_23">
    <path clip-path="url(#p620bed7ee8)" d="M 360.171711 169.922741 
L 371.919079 169.922741 
L 371.919079 123.330511 
L 360.171711 123.330511 
L 360.171711 169.922741 
z
" style="fill:#f5ebb8;stroke:#7a7a7a;stroke-linejoin:miter;"/>
   </g>
   <g id="patch_24">
    <path clip-path="url(#p620bed7ee8)" d="M 371.919079 166.498994 
L 383.666447 166.498994 
L 383.666447 113.483284 
L 371.919079 113.483284 
L 371.919079 166.498994 
z
" style="fill:#efcfe3;stroke:#7a7a7a;stroke-linejoin:miter;"/>
   </g>
   <g id="line2d_65">
    <path clip-path="url(#p620bed7ee8)" d="M 301.434868 157.277677 
L 313.182237 157.277677 
" style="fill:none;stroke:#7a7a7a;"/>
   </g>
   <g id="line2d_66">
    <path clip-path="url(#p620bed7ee8)" d="M 313.182237 152.395367 
L 324.929605 152.395367 
" style="fill:none;stroke:#7a7a7a;"/>
   </g>
   <g id="line2d_67">
    <path clip-path="url(#p620bed7ee8)" d="M 324.929605 159.368971 
L 336.676974 159.368971 
" style="fill:none;stroke:#7a7a7a;"/>
   </g>
   <g id="line2d_68">
    <path clip-path="url(#p620bed7ee8)" d="M 336.676974 149.491899 
L 348.424342 149.491899 
" style="fill:none;stroke:#7a7a7a;"/>
   </g>
   <g id="line2d_69">
    <path clip-path="url(#p620bed7ee8)" d="M 348.424342 150.455175 
L 360.171711 150.455175 
" style="fill:none;stroke:#7a7a7a;"/>
   </g>
   <g id="line2d_70">
    <path clip-path="url(#p620bed7ee8)" d="M 360.171711 152.919514 
L 371.919079 152.919514 
" style="fill:none;stroke:#7a7a7a;"/>
   </g>
   <g id="line2d_71">
    <path clip-path="url(#p620bed7ee8)" d="M 371.919079 146.364556 
L 383.666447 146.364556 
" style="fill:none;stroke:#7a7a7a;"/>
   </g>
   <g id="text_36">
    <!-- b) -->
    <g style="fill:#262626;" transform="translate(244.900658 22.396875)scale(0.2 -0.2)">
     <defs>
      <path d="M 738 331 
L 738 4531 
L 184 4531 
L 184 4863 
L 1313 4863 
L 1313 2803 
Q 1481 3116 1742 3264 
Q 2003 3413 2388 3413 
Q 3000 3413 3387 2928 
Q 3775 2444 3775 1663 
Q 3775 881 3387 395 
Q 3000 -91 2388 -91 
Q 2003 -91 1742 57 
Q 1481 206 1313 519 
L 1313 0 
L 184 0 
L 184 331 
L 738 331 
z
M 1313 1497 
Q 1313 897 1542 583 
Q 1772 269 2209 269 
Q 2650 269 2876 622 
Q 3103 975 3103 1663 
Q 3103 2353 2876 2703 
Q 2650 3053 2209 3053 
Q 1772 3053 1542 2737 
Q 1313 2422 1313 1825 
L 1313 1497 
z
" id="DejaVuSerif-62" transform="scale(0.015625)"/>
     </defs>
     <use xlink:href="#DejaVuSerif-62"/>
     <use x="64.013672" xlink:href="#DejaVuSerif-29"/>
    </g>
   </g>
   <g id="legend_3">
    <g id="patch_25">
     <path d="M 296.755921 91.66875 
L 425.557171 91.66875 
Q 427.157171 91.66875 427.157171 90.06875 
L 427.157171 32.15625 
Q 427.157171 30.55625 425.557171 30.55625 
L 296.755921 30.55625 
Q 295.155921 30.55625 295.155921 32.15625 
L 295.155921 90.06875 
Q 295.155921 91.66875 296.755921 91.66875 
z
" style="fill:#ffffff;opacity:0.35;stroke:#cccccc;stroke-linejoin:miter;"/>
    </g>
    <g id="text_37">
     <!-- core age composition -->
     <g style="fill:#262626;" transform="translate(318.112796 39.835)scale(0.08 -0.08)">
      <use xlink:href="#DejaVuSans-63"/>
      <use x="54.980469" xlink:href="#DejaVuSans-6f"/>
      <use x="116.162109" xlink:href="#DejaVuSans-72"/>
      <use x="155.025391" xlink:href="#DejaVuSans-65"/>
      <use x="216.548828" xlink:href="#DejaVuSans-20"/>
      <use x="248.335938" xlink:href="#DejaVuSans-61"/>
      <use x="309.615234" xlink:href="#DejaVuSans-67"/>
      <use x="373.091797" xlink:href="#DejaVuSans-65"/>
      <use x="434.615234" xlink:href="#DejaVuSans-20"/>
      <use x="466.402344" xlink:href="#DejaVuSans-63"/>
      <use x="521.382812" xlink:href="#DejaVuSans-6f"/>
      <use x="582.564453" xlink:href="#DejaVuSans-6d"/>
      <use x="679.976562" xlink:href="#DejaVuSans-70"/>
      <use x="743.453125" xlink:href="#DejaVuSans-6f"/>
      <use x="804.634766" xlink:href="#DejaVuSans-73"/>
      <use x="856.734375" xlink:href="#DejaVuSans-69"/>
      <use x="884.517578" xlink:href="#DejaVuSans-74"/>
      <use x="923.726562" xlink:href="#DejaVuSans-69"/>
      <use x="951.509766" xlink:href="#DejaVuSans-6f"/>
      <use x="1012.691406" xlink:href="#DejaVuSans-6e"/>
     </g>
    </g>
    <g id="patch_26">
     <path d="M 298.355921 51.5775 
L 314.355921 51.5775 
L 314.355921 45.9775 
L 298.355921 45.9775 
z
" style="fill:#b9dccc;stroke:#7a7a7a;stroke-linejoin:miter;"/>
    </g>
    <g id="text_38">
     <!-- Y -->
     <g style="fill:#262626;" transform="translate(320.755921 51.5775)scale(0.08 -0.08)">
      <defs>
       <path d="M -13 4666 
L 666 4666 
L 1959 2747 
L 3244 4666 
L 3922 4666 
L 2272 2222 
L 2272 0 
L 1638 0 
L 1638 2222 
L -13 4666 
z
" id="DejaVuSans-59" transform="scale(0.015625)"/>
      </defs>
      <use xlink:href="#DejaVuSans-59"/>
     </g>
    </g>
    <g id="patch_27">
     <path d="M 298.355921 63.32 
L 314.355921 63.32 
L 314.355921 57.72 
L 298.355921 57.72 
z
" style="fill:#f3cfb6;stroke:#7a7a7a;stroke-linejoin:miter;"/>
    </g>
    <g id="text_39">
     <!-- Em -->
     <g style="fill:#262626;" transform="translate(320.755921 63.32)scale(0.08 -0.08)">
      <defs>
       <path d="M 628 4666 
L 3578 4666 
L 3578 4134 
L 1259 4134 
L 1259 2753 
L 3481 2753 
L 3481 2222 
L 1259 2222 
L 1259 531 
L 3634 531 
L 3634 0 
L 628 0 
L 628 4666 
z
" id="DejaVuSans-45" transform="scale(0.015625)"/>
      </defs>
      <use xlink:href="#DejaVuSans-45"/>
      <use x="63.183594" xlink:href="#DejaVuSans-6d"/>
     </g>
    </g>
    <g id="patch_28">
     <path d="M 298.355921 75.0625 
L 314.355921 75.0625 
L 314.355921 69.4625 
L 298.355921 69.4625 
z
" style="fill:#cfd6e4;stroke:#7a7a7a;stroke-linejoin:miter;"/>
    </g>
    <g id="text_40">
     <!-- Es -->
     <g style="fill:#262626;" transform="translate(320.755921 75.0625)scale(0.08 -0.08)">
      <use xlink:href="#DejaVuSans-45"/>
      <use x="63.183594" xlink:href="#DejaVuSans-73"/>
     </g>
    </g>
    <g id="patch_29">
     <path d="M 298.355921 86.805 
L 314.355921 86.805 
L 314.355921 81.205 
L 298.355921 81.205 
z
" style="fill:#ece1d1;stroke:#7a7a7a;stroke-linejoin:miter;"/>
    </g>
    <g id="text_41">
     <!-- Y+Em -->
     <g style="fill:#262626;" transform="translate(320.755921 86.805)scale(0.08 -0.08)">
      <defs>
       <path d="M 2944 4013 
L 2944 2272 
L 4684 2272 
L 4684 1741 
L 2944 1741 
L 2944 0 
L 2419 0 
L 2419 1741 
L 678 1741 
L 678 2272 
L 2419 2272 
L 2419 4013 
L 2944 4013 
z
" id="DejaVuSans-2b" transform="scale(0.015625)"/>
      </defs>
      <use xlink:href="#DejaVuSans-59"/>
      <use x="61.083984" xlink:href="#DejaVuSans-2b"/>
      <use x="144.873047" xlink:href="#DejaVuSans-45"/>
      <use x="208.056641" xlink:href="#DejaVuSans-6d"/>
     </g>
    </g>
    <g id="patch_30">
     <path d="M 361.193421 51.5775 
L 377.193421 51.5775 
L 377.193421 45.9775 
L 361.193421 45.9775 
z
" style="fill:#e4f0ce;stroke:#7a7a7a;stroke-linejoin:miter;"/>
    </g>
    <g id="text_42">
     <!-- Y+Es -->
     <g style="fill:#262626;" transform="translate(383.593421 51.5775)scale(0.08 -0.08)">
      <use xlink:href="#DejaVuSans-59"/>
      <use x="61.083984" xlink:href="#DejaVuSans-2b"/>
      <use x="144.873047" xlink:href="#DejaVuSans-45"/>
      <use x="208.056641" xlink:href="#DejaVuSans-73"/>
     </g>
    </g>
    <g id="patch_31">
     <path d="M 361.193421 63.32 
L 377.193421 63.32 
L 377.193421 57.72 
L 361.193421 57.72 
z
" style="fill:#f5ebb8;stroke:#7a7a7a;stroke-linejoin:miter;"/>
    </g>
    <g id="text_43">
     <!-- Em+Es -->
     <g style="fill:#262626;" transform="translate(383.593421 63.32)scale(0.08 -0.08)">
      <use xlink:href="#DejaVuSans-45"/>
      <use x="63.183594" xlink:href="#DejaVuSans-6d"/>
      <use x="160.595703" xlink:href="#DejaVuSans-2b"/>
      <use x="244.384766" xlink:href="#DejaVuSans-45"/>
      <use x="307.568359" xlink:href="#DejaVuSans-73"/>
     </g>
    </g>
    <g id="patch_32">
     <path d="M 361.193421 75.0625 
L 377.193421 75.0625 
L 377.193421 69.4625 
L 361.193421 69.4625 
z
" style="fill:#efcfe3;stroke:#7a7a7a;stroke-linejoin:miter;"/>
    </g>
    <g id="text_44">
     <!-- Y+Em+Es -->
     <g style="fill:#262626;" transform="translate(383.593421 75.0625)scale(0.08 -0.08)">
      <use xlink:href="#DejaVuSans-59"/>
      <use x="61.083984" xlink:href="#DejaVuSans-2b"/>
      <use x="144.873047" xlink:href="#DejaVuSans-45"/>
      <use x="208.056641" xlink:href="#DejaVuSans-6d"/>
      <use x="305.46875" xlink:href="#DejaVuSans-2b"/>
      <use x="389.257812" xlink:href="#DejaVuSans-45"/>
      <use x="452.441406" xlink:href="#DejaVuSans-73"/>
     </g>
    </g>
   </g>
  </g>
  <g id="axes_4">
   <g id="patch_33">
    <path d="M 717.732237 189.63625 
L 846.219079 189.63625 
L 846.219079 26.55625 
L 717.732237 26.55625 
z
" style="fill:#ffffff;"/>
   </g>
   <g id="matplotlib.axis_7">
    <g id="xtick_10">
     <g id="line2d_72">
      <g>
       <use style="fill:#262626;stroke:#262626;stroke-width:1.25;" x="717.732237" xlink:href="#me5ef7a7c82" y="189.63625"/>
      </g>
     </g>
     <g id="text_45">
      <!-- 0.0 -->
      <g style="fill:#262626;" transform="translate(708.985518 207.494531)scale(0.11 -0.11)">
       <use xlink:href="#DejaVuSans-30"/>
       <use x="63.623047" xlink:href="#DejaVuSans-2e"/>
       <use x="95.410156" xlink:href="#DejaVuSans-30"/>
      </g>
     </g>
    </g>
    <g id="xtick_11">
     <g id="line2d_73">
      <g>
       <use style="fill:#262626;stroke:#262626;stroke-width:1.25;" x="781.975658" xlink:href="#me5ef7a7c82" y="189.63625"/>
      </g>
     </g>
     <g id="text_46">
      <!-- 0.5 -->
      <g style="fill:#262626;" transform="translate(773.228939 207.494531)scale(0.11 -0.11)">
       <use xlink:href="#DejaVuSans-30"/>
       <use x="63.623047" xlink:href="#DejaVuSans-2e"/>
       <use x="95.410156" xlink:href="#DejaVuSans-35"/>
      </g>
     </g>
    </g>
    <g id="xtick_12">
     <g id="line2d_74">
      <g>
       <use style="fill:#262626;stroke:#262626;stroke-width:1.25;" x="846.219079" xlink:href="#me5ef7a7c82" y="189.63625"/>
      </g>
     </g>
     <g id="text_47">
      <!-- 1.0 -->
      <g style="fill:#262626;" transform="translate(837.47236 207.494531)scale(0.11 -0.11)">
       <use xlink:href="#DejaVuSans-31"/>
       <use x="63.623047" xlink:href="#DejaVuSans-2e"/>
       <use x="95.410156" xlink:href="#DejaVuSans-30"/>
      </g>
     </g>
    </g>
    <g id="text_48">
     <!-- knowledge broadness -->
     <g style="fill:#262626;" transform="translate(716.501595 222.900313)scale(0.12 -0.12)">
      <defs>
       <path d="M 581 4863 
L 1159 4863 
L 1159 1991 
L 2875 3500 
L 3609 3500 
L 1753 1863 
L 3688 0 
L 2938 0 
L 1159 1709 
L 1159 0 
L 581 0 
L 581 4863 
z
" id="DejaVuSans-6b" transform="scale(0.015625)"/>
       <path d="M 269 3500 
L 844 3500 
L 1563 769 
L 2278 3500 
L 2956 3500 
L 3675 769 
L 4391 3500 
L 4966 3500 
L 4050 0 
L 3372 0 
L 2619 2869 
L 1863 0 
L 1184 0 
L 269 3500 
z
" id="DejaVuSans-77" transform="scale(0.015625)"/>
       <path d="M 3116 1747 
Q 3116 2381 2855 2742 
Q 2594 3103 2138 3103 
Q 1681 3103 1420 2742 
Q 1159 2381 1159 1747 
Q 1159 1113 1420 752 
Q 1681 391 2138 391 
Q 2594 391 2855 752 
Q 3116 1113 3116 1747 
z
M 1159 2969 
Q 1341 3281 1617 3432 
Q 1894 3584 2278 3584 
Q 2916 3584 3314 3078 
Q 3713 2572 3713 1747 
Q 3713 922 3314 415 
Q 2916 -91 2278 -91 
Q 1894 -91 1617 61 
Q 1341 213 1159 525 
L 1159 0 
L 581 0 
L 581 4863 
L 1159 4863 
L 1159 2969 
z
" id="DejaVuSans-62" transform="scale(0.015625)"/>
      </defs>
      <use xlink:href="#DejaVuSans-6b"/>
      <use x="57.910156" xlink:href="#DejaVuSans-6e"/>
      <use x="121.289062" xlink:href="#DejaVuSans-6f"/>
      <use x="182.470703" xlink:href="#DejaVuSans-77"/>
      <use x="264.257812" xlink:href="#DejaVuSans-6c"/>
      <use x="292.041016" xlink:href="#DejaVuSans-65"/>
      <use x="353.564453" xlink:href="#DejaVuSans-64"/>
      <use x="417.041016" xlink:href="#DejaVuSans-67"/>
      <use x="480.517578" xlink:href="#DejaVuSans-65"/>
      <use x="542.041016" xlink:href="#DejaVuSans-20"/>
      <use x="573.828125" xlink:href="#DejaVuSans-62"/>
      <use x="637.304688" xlink:href="#DejaVuSans-72"/>
      <use x="676.167969" xlink:href="#DejaVuSans-6f"/>
      <use x="737.349609" xlink:href="#DejaVuSans-61"/>
      <use x="798.628906" xlink:href="#DejaVuSans-64"/>
      <use x="862.105469" xlink:href="#DejaVuSans-6e"/>
      <use x="925.484375" xlink:href="#DejaVuSans-65"/>
      <use x="987.007812" xlink:href="#DejaVuSans-73"/>
      <use x="1039.107422" xlink:href="#DejaVuSans-73"/>
     </g>
    </g>
   </g>
   <g id="matplotlib.axis_8">
    <g id="ytick_16">
     <g id="line2d_75">
      <g>
       <use style="fill:#262626;stroke:#262626;stroke-width:1.25;" x="717.732237" xlink:href="#m5a4e150808" y="189.63625"/>
      </g>
     </g>
     <g id="text_49">
      <!-- 0.0 -->
      <g style="fill:#262626;" transform="translate(690.738799 193.815391)scale(0.11 -0.11)">
       <use xlink:href="#DejaVuSans-30"/>
       <use x="63.623047" xlink:href="#DejaVuSans-2e"/>
       <use x="95.410156" xlink:href="#DejaVuSans-30"/>
      </g>
     </g>
    </g>
    <g id="ytick_17">
     <g id="line2d_76">
      <g>
       <use style="fill:#262626;stroke:#262626;stroke-width:1.25;" x="717.732237" xlink:href="#m5a4e150808" y="131.393393"/>
      </g>
     </g>
     <g id="text_50">
      <!-- 0.5 -->
      <g style="fill:#262626;" transform="translate(690.738799 135.572533)scale(0.11 -0.11)">
       <use xlink:href="#DejaVuSans-30"/>
       <use x="63.623047" xlink:href="#DejaVuSans-2e"/>
       <use x="95.410156" xlink:href="#DejaVuSans-35"/>
      </g>
     </g>
    </g>
    <g id="ytick_18">
     <g id="line2d_77">
      <g>
       <use style="fill:#262626;stroke:#262626;stroke-width:1.25;" x="717.732237" xlink:href="#m5a4e150808" y="73.150536"/>
      </g>
     </g>
     <g id="text_51">
      <!-- 1.0 -->
      <g style="fill:#262626;" transform="translate(690.738799 77.329676)scale(0.11 -0.11)">
       <use xlink:href="#DejaVuSans-31"/>
       <use x="63.623047" xlink:href="#DejaVuSans-2e"/>
       <use x="95.410156" xlink:href="#DejaVuSans-30"/>
      </g>
     </g>
    </g>
    <g id="text_52">
     <!-- average impact, c5 -->
     <g style="fill:#262626;" transform="translate(684.243174 166.14625)rotate(-90)scale(0.12 -0.12)">
      <use xlink:href="#DejaVuSans-61"/>
      <use x="61.279297" xlink:href="#DejaVuSans-76"/>
      <use x="120.458984" xlink:href="#DejaVuSans-65"/>
      <use x="181.982422" xlink:href="#DejaVuSans-72"/>
      <use x="223.095703" xlink:href="#DejaVuSans-61"/>
      <use x="284.375" xlink:href="#DejaVuSans-67"/>
      <use x="347.851562" xlink:href="#DejaVuSans-65"/>
      <use x="409.375" xlink:href="#DejaVuSans-20"/>
      <use x="441.162109" xlink:href="#DejaVuSans-69"/>
      <use x="468.945312" xlink:href="#DejaVuSans-6d"/>
      <use x="566.357422" xlink:href="#DejaVuSans-70"/>
      <use x="629.833984" xlink:href="#DejaVuSans-61"/>
      <use x="691.113281" xlink:href="#DejaVuSans-63"/>
      <use x="746.09375" xlink:href="#DejaVuSans-74"/>
      <use x="785.302734" xlink:href="#DejaVuSans-2c"/>
      <use x="817.089844" xlink:href="#DejaVuSans-20"/>
      <use x="848.876953" xlink:href="#DejaVuSans-63"/>
      <use x="903.857422" xlink:href="#DejaVuSans-35"/>
     </g>
    </g>
   </g>
   <g id="PolyCollection_3">
    <defs>
     <path d="M 724.870395 -65.557398 
L 724.870395 -62.261387 
L 739.146711 -79.039879 
L 753.423026 -122.927039 
L 767.699342 -142.065347 
L 781.975658 -141.207531 
L 796.251974 -152.731097 
L 810.528289 -141.928581 
L 824.804605 -126.806302 
L 839.080921 -97.473047 
L 839.080921 -128.189006 
L 839.080921 -128.189006 
L 824.804605 -134.862179 
L 810.528289 -145.360283 
L 796.251974 -155.330701 
L 781.975658 -142.86918 
L 767.699342 -144.30418 
L 753.423026 -129.830321 
L 739.146711 -87.614208 
L 724.870395 -65.557398 
z
" id="mfdbc4b95e8" style="stroke:#dadaeb;stroke-opacity:0.2;"/>
    </defs>
    <g clip-path="url(#p7f2ea72f6d)">
     <use style="fill:#dadaeb;fill-opacity:0.2;stroke:#dadaeb;stroke-opacity:0.2;" x="0" xlink:href="#mfdbc4b95e8" y="249.273269"/>
    </g>
   </g>
   <g id="PolyCollection_4">
    <defs>
     <path d="M 724.870395 -71.104424 
L 724.870395 -64.167875 
L 739.146711 -67.179935 
L 753.423026 -95.490487 
L 767.699342 -130.163112 
L 781.975658 -138.6157 
L 796.251974 -148.199389 
L 810.528289 -145.437781 
L 824.804605 -131.228065 
L 839.080921 -109.997585 
L 839.080921 -129.153966 
L 839.080921 -129.153966 
L 824.804605 -136.324464 
L 810.528289 -148.053886 
L 796.251974 -150.366796 
L 781.975658 -140.575594 
L 767.699342 -133.667048 
L 753.423026 -102.834995 
L 739.146711 -74.927442 
L 724.870395 -71.104424 
z
" id="m727f311f6b" style="stroke:#9e9ac8;stroke-opacity:0.2;"/>
    </defs>
    <g clip-path="url(#p7f2ea72f6d)">
     <use style="fill:#9e9ac8;fill-opacity:0.2;stroke:#9e9ac8;stroke-opacity:0.2;" x="0" xlink:href="#m727f311f6b" y="249.273269"/>
    </g>
   </g>
   <g id="PolyCollection_5">
    <defs>
     <path d="M 724.870395 -72.346033 
L 724.870395 -62.521911 
L 739.146711 -67.511429 
L 753.423026 -74.904464 
L 767.699342 -100.991574 
L 781.975658 -126.113405 
L 796.251974 -133.306196 
L 810.528289 -132.353511 
L 824.804605 -123.959493 
L 839.080921 -112.282862 
L 839.080921 -122.31634 
L 839.080921 -122.31634 
L 824.804605 -126.691225 
L 810.528289 -134.134326 
L 796.251974 -135.423164 
L 781.975658 -128.801024 
L 767.699342 -107.763214 
L 753.423026 -82.347284 
L 739.146711 -76.192751 
L 724.870395 -72.346033 
z
" id="mb929450a92" style="stroke:#6950a3;stroke-opacity:0.2;"/>
    </defs>
    <g clip-path="url(#p7f2ea72f6d)">
     <use style="fill:#6950a3;fill-opacity:0.2;stroke:#6950a3;stroke-opacity:0.2;" x="0" xlink:href="#mb929450a92" y="249.273269"/>
    </g>
   </g>
   <g id="line2d_78">
    <path clip-path="url(#p7f2ea72f6d)" d="M 724.870395 185.498924 
L 739.146711 166.235959 
L 753.423026 123.038015 
L 767.699342 106.101379 
L 781.975658 107.231547 
L 796.251974 95.267673 
L 810.528289 105.661684 
L 824.804605 118.651639 
L 839.080921 138.156185 
" style="fill:none;stroke:#dadaeb;stroke-linecap:round;stroke-width:1.5;"/>
   </g>
   <g id="line2d_79">
    <path clip-path="url(#p7f2ea72f6d)" d="M 724.870395 182.028003 
L 739.146711 178.674178 
L 753.423026 150.078405 
L 767.699342 117.419197 
L 781.975658 109.664733 
L 796.251974 99.970919 
L 810.528289 102.550918 
L 824.804605 115.602462 
L 839.080921 130.508203 
" style="fill:none;stroke:#9e9ac8;stroke-linecap:round;stroke-width:1.5;"/>
   </g>
   <g id="line2d_80">
    <path clip-path="url(#p7f2ea72f6d)" d="M 724.870395 182.323934 
L 739.146711 177.830915 
L 753.423026 170.832608 
L 767.699342 144.912453 
L 781.975658 121.803327 
L 796.251974 114.976973 
L 810.528289 116.013646 
L 824.804605 123.952712 
L 839.080921 131.846195 
" style="fill:none;stroke:#6950a3;stroke-linecap:round;stroke-width:1.5;"/>
   </g>
   <g id="line2d_81"/>
   <g id="line2d_82"/>
   <g id="line2d_83"/>
   <g id="patch_34">
    <path d="M 717.732237 189.63625 
L 717.732237 26.55625 
" style="fill:none;stroke:#262626;stroke-linecap:square;stroke-linejoin:miter;stroke-width:1.25;"/>
   </g>
   <g id="patch_35">
    <path d="M 717.732237 189.63625 
L 846.219079 189.63625 
" style="fill:none;stroke:#262626;stroke-linecap:square;stroke-linejoin:miter;stroke-width:1.25;"/>
   </g>
   <g id="text_53">
    <!-- d) -->
    <g style="fill:#262626;" transform="translate(659.913158 22.396875)scale(0.2 -0.2)">
     <defs>
      <path d="M 3359 331 
L 3909 331 
L 3909 0 
L 2784 0 
L 2784 519 
Q 2616 206 2355 57 
Q 2094 -91 1709 -91 
Q 1097 -91 708 395 
Q 319 881 319 1663 
Q 319 2444 706 2928 
Q 1094 3413 1709 3413 
Q 2094 3413 2355 3264 
Q 2616 3116 2784 2803 
L 2784 4531 
L 2241 4531 
L 2241 4863 
L 3359 4863 
L 3359 331 
z
M 2784 1497 
L 2784 1825 
Q 2784 2422 2554 2737 
Q 2325 3053 1888 3053 
Q 1444 3053 1217 2703 
Q 991 2353 991 1663 
Q 991 975 1217 622 
Q 1444 269 1888 269 
Q 2325 269 2554 583 
Q 2784 897 2784 1497 
z
" id="DejaVuSerif-64" transform="scale(0.015625)"/>
     </defs>
     <use xlink:href="#DejaVuSerif-64"/>
     <use x="64.013672" xlink:href="#DejaVuSerif-29"/>
    </g>
   </g>
   <g id="legend_4">
    <g id="patch_36">
     <path d="M 787.575658 186.7325 
L 847.558158 186.7325 
Q 849.158158 186.7325 849.158158 185.1325 
L 849.158158 130.00425 
Q 849.158158 128.40425 847.558158 128.40425 
L 787.575658 128.40425 
Q 785.975658 128.40425 785.975658 130.00425 
L 785.975658 185.1325 
Q 785.975658 186.7325 787.575658 186.7325 
z
" style="fill:#ffffff;opacity:0.35;stroke:#cccccc;stroke-linejoin:miter;"/>
    </g>
    <g id="text_54">
     <!-- topic diversity -->
     <g style="fill:#262626;" transform="translate(789.175658 137.683)scale(0.08 -0.08)">
      <use xlink:href="#DejaVuSans-74"/>
      <use x="39.208984" xlink:href="#DejaVuSans-6f"/>
      <use x="100.390625" xlink:href="#DejaVuSans-70"/>
      <use x="163.867188" xlink:href="#DejaVuSans-69"/>
      <use x="191.650391" xlink:href="#DejaVuSans-63"/>
      <use x="246.630859" xlink:href="#DejaVuSans-20"/>
      <use x="278.417969" xlink:href="#DejaVuSans-64"/>
      <use x="341.894531" xlink:href="#DejaVuSans-69"/>
      <use x="369.677734" xlink:href="#DejaVuSans-76"/>
      <use x="428.857422" xlink:href="#DejaVuSans-65"/>
      <use x="490.380859" xlink:href="#DejaVuSans-72"/>
      <use x="531.494141" xlink:href="#DejaVuSans-73"/>
      <use x="583.59375" xlink:href="#DejaVuSans-69"/>
      <use x="611.376953" xlink:href="#DejaVuSans-74"/>
      <use x="650.585938" xlink:href="#DejaVuSans-79"/>
     </g>
     <!-- (quantiles) -->
     <g style="fill:#262626;" transform="translate(789.175658 146.64125)scale(0.08 -0.08)">
      <defs>
       <path d="M 947 1747 
Q 947 1113 1208 752 
Q 1469 391 1925 391 
Q 2381 391 2643 752 
Q 2906 1113 2906 1747 
Q 2906 2381 2643 2742 
Q 2381 3103 1925 3103 
Q 1469 3103 1208 2742 
Q 947 2381 947 1747 
z
M 2906 525 
Q 2725 213 2448 61 
Q 2172 -91 1784 -91 
Q 1150 -91 751 415 
Q 353 922 353 1747 
Q 353 2572 751 3078 
Q 1150 3584 1784 3584 
Q 2172 3584 2448 3432 
Q 2725 3281 2906 2969 
L 2906 3500 
L 3481 3500 
L 3481 -1331 
L 2906 -1331 
L 2906 525 
z
" id="DejaVuSans-71" transform="scale(0.015625)"/>
      </defs>
      <use xlink:href="#DejaVuSans-28"/>
      <use x="39.013672" xlink:href="#DejaVuSans-71"/>
      <use x="102.490234" xlink:href="#DejaVuSans-75"/>
      <use x="165.869141" xlink:href="#DejaVuSans-61"/>
      <use x="227.148438" xlink:href="#DejaVuSans-6e"/>
      <use x="290.527344" xlink:href="#DejaVuSans-74"/>
      <use x="329.736328" xlink:href="#DejaVuSans-69"/>
      <use x="357.519531" xlink:href="#DejaVuSans-6c"/>
      <use x="385.302734" xlink:href="#DejaVuSans-65"/>
      <use x="446.826172" xlink:href="#DejaVuSans-73"/>
      <use x="498.925781" xlink:href="#DejaVuSans-29"/>
     </g>
    </g>
    <g id="line2d_84">
     <path d="M 789.927533 155.58375 
L 805.927533 155.58375 
" style="fill:none;stroke:#dadaeb;stroke-linecap:round;stroke-width:1.5;"/>
    </g>
    <g id="line2d_85"/>
    <g id="text_55">
     <!-- low -->
     <g style="fill:#262626;" transform="translate(812.327533 158.38375)scale(0.08 -0.08)">
      <use xlink:href="#DejaVuSans-6c"/>
      <use x="27.783203" xlink:href="#DejaVuSans-6f"/>
      <use x="88.964844" xlink:href="#DejaVuSans-77"/>
     </g>
    </g>
    <g id="line2d_86">
     <path d="M 789.927533 167.32625 
L 805.927533 167.32625 
" style="fill:none;stroke:#9e9ac8;stroke-linecap:round;stroke-width:1.5;"/>
    </g>
    <g id="line2d_87"/>
    <g id="text_56">
     <!-- medium -->
     <g style="fill:#262626;" transform="translate(812.327533 170.12625)scale(0.08 -0.08)">
      <use xlink:href="#DejaVuSans-6d"/>
      <use x="97.412109" xlink:href="#DejaVuSans-65"/>
      <use x="158.935547" xlink:href="#DejaVuSans-64"/>
      <use x="222.412109" xlink:href="#DejaVuSans-69"/>
      <use x="250.195312" xlink:href="#DejaVuSans-75"/>
      <use x="313.574219" xlink:href="#DejaVuSans-6d"/>
     </g>
    </g>
    <g id="line2d_88">
     <path d="M 789.927533 179.06875 
L 805.927533 179.06875 
" style="fill:none;stroke:#6950a3;stroke-linecap:round;stroke-width:1.5;"/>
    </g>
    <g id="line2d_89"/>
    <g id="text_57">
     <!-- high -->
     <g style="fill:#262626;" transform="translate(812.327533 181.86875)scale(0.08 -0.08)">
      <defs>
       <path d="M 3513 2113 
L 3513 0 
L 2938 0 
L 2938 2094 
Q 2938 2591 2744 2837 
Q 2550 3084 2163 3084 
Q 1697 3084 1428 2787 
Q 1159 2491 1159 1978 
L 1159 0 
L 581 0 
L 581 4863 
L 1159 4863 
L 1159 2956 
Q 1366 3272 1645 3428 
Q 1925 3584 2291 3584 
Q 2894 3584 3203 3211 
Q 3513 2838 3513 2113 
z
" id="DejaVuSans-68" transform="scale(0.015625)"/>
      </defs>
      <use xlink:href="#DejaVuSans-68"/>
      <use x="63.378906" xlink:href="#DejaVuSans-69"/>
      <use x="91.162109" xlink:href="#DejaVuSans-67"/>
      <use x="154.638672" xlink:href="#DejaVuSans-68"/>
     </g>
    </g>
   </g>
  </g>
  <g id="axes_5">
   <g id="patch_37">
    <path d="M 755.353947 64.67225 
L 793.9 64.67225 
L 793.9 32.05625 
L 755.353947 32.05625 
z
" style="fill:#ffffff;"/>
   </g>
   <g id="matplotlib.axis_9">
    <g id="xtick_13">
     <g id="line2d_90">
      <g>
       <use style="fill:#262626;stroke:#262626;stroke-width:1.25;" x="755.353947" xlink:href="#me5ef7a7c82" y="64.67225"/>
      </g>
     </g>
     <g id="text_58">
      <!-- 0.0 -->
      <g style="fill:#262626;" transform="translate(748.992697 80.251)scale(0.08 -0.08)">
       <use xlink:href="#DejaVuSans-30"/>
       <use x="63.623047" xlink:href="#DejaVuSans-2e"/>
       <use x="95.410156" xlink:href="#DejaVuSans-30"/>
      </g>
     </g>
    </g>
    <g id="xtick_14">
     <g id="line2d_91">
      <g>
       <use style="fill:#262626;stroke:#262626;stroke-width:1.25;" x="774.626974" xlink:href="#me5ef7a7c82" y="64.67225"/>
      </g>
     </g>
     <g id="text_59">
      <!-- 0.5 -->
      <g style="fill:#262626;" transform="translate(768.265724 80.251)scale(0.08 -0.08)">
       <use xlink:href="#DejaVuSans-30"/>
       <use x="63.623047" xlink:href="#DejaVuSans-2e"/>
       <use x="95.410156" xlink:href="#DejaVuSans-35"/>
      </g>
     </g>
    </g>
    <g id="xtick_15">
     <g id="line2d_92">
      <g>
       <use style="fill:#262626;stroke:#262626;stroke-width:1.25;" x="793.9" xlink:href="#me5ef7a7c82" y="64.67225"/>
      </g>
     </g>
     <g id="text_60">
      <!-- 1.0 -->
      <g style="fill:#262626;" transform="translate(787.53875 80.251)scale(0.08 -0.08)">
       <use xlink:href="#DejaVuSans-31"/>
       <use x="63.623047" xlink:href="#DejaVuSans-2e"/>
       <use x="95.410156" xlink:href="#DejaVuSans-30"/>
      </g>
     </g>
    </g>
    <g id="text_61">
     <!-- knowledge broadness -->
     <g style="fill:#262626;" transform="translate(730.977599 91.9935)scale(0.08 -0.08)">
      <use xlink:href="#DejaVuSans-6b"/>
      <use x="57.910156" xlink:href="#DejaVuSans-6e"/>
      <use x="121.289062" xlink:href="#DejaVuSans-6f"/>
      <use x="182.470703" xlink:href="#DejaVuSans-77"/>
      <use x="264.257812" xlink:href="#DejaVuSans-6c"/>
      <use x="292.041016" xlink:href="#DejaVuSans-65"/>
      <use x="353.564453" xlink:href="#DejaVuSans-64"/>
      <use x="417.041016" xlink:href="#DejaVuSans-67"/>
      <use x="480.517578" xlink:href="#DejaVuSans-65"/>
      <use x="542.041016" xlink:href="#DejaVuSans-20"/>
      <use x="573.828125" xlink:href="#DejaVuSans-62"/>
      <use x="637.304688" xlink:href="#DejaVuSans-72"/>
      <use x="676.167969" xlink:href="#DejaVuSans-6f"/>
      <use x="737.349609" xlink:href="#DejaVuSans-61"/>
      <use x="798.628906" xlink:href="#DejaVuSans-64"/>
      <use x="862.105469" xlink:href="#DejaVuSans-6e"/>
      <use x="925.484375" xlink:href="#DejaVuSans-65"/>
      <use x="987.007812" xlink:href="#DejaVuSans-73"/>
      <use x="1039.107422" xlink:href="#DejaVuSans-73"/>
     </g>
    </g>
   </g>
   <g id="matplotlib.axis_10">
    <g id="ytick_19">
     <g id="line2d_93">
      <g>
       <use style="fill:#262626;stroke:#262626;stroke-width:1.25;" x="755.353947" xlink:href="#m5a4e150808" y="63.831055"/>
      </g>
     </g>
     <g id="text_62">
      <!-- 1.5 -->
      <g style="fill:#262626;" transform="translate(733.131447 66.87043)scale(0.08 -0.08)">
       <use xlink:href="#DejaVuSans-31"/>
       <use x="63.623047" xlink:href="#DejaVuSans-2e"/>
       <use x="95.410156" xlink:href="#DejaVuSans-35"/>
      </g>
     </g>
    </g>
    <g id="ytick_20">
     <g id="line2d_94">
      <g>
       <use style="fill:#262626;stroke:#262626;stroke-width:1.25;" x="755.353947" xlink:href="#m5a4e150808" y="46.870376"/>
      </g>
     </g>
     <g id="text_63">
      <!-- 2.0 -->
      <g style="fill:#262626;" transform="translate(733.131447 49.909751)scale(0.08 -0.08)">
       <use xlink:href="#DejaVuSans-32"/>
       <use x="63.623047" xlink:href="#DejaVuSans-2e"/>
       <use x="95.410156" xlink:href="#DejaVuSans-30"/>
      </g>
     </g>
    </g>
    <g id="text_64">
     <!-- productivity -->
     <g style="fill:#262626;" transform="translate(727.467697 72.273)rotate(-90)scale(0.08 -0.08)">
      <use xlink:href="#DejaVuSans-70"/>
      <use x="63.476562" xlink:href="#DejaVuSans-72"/>
      <use x="102.339844" xlink:href="#DejaVuSans-6f"/>
      <use x="163.521484" xlink:href="#DejaVuSans-64"/>
      <use x="226.998047" xlink:href="#DejaVuSans-75"/>
      <use x="290.376953" xlink:href="#DejaVuSans-63"/>
      <use x="345.357422" xlink:href="#DejaVuSans-74"/>
      <use x="384.566406" xlink:href="#DejaVuSans-69"/>
      <use x="412.349609" xlink:href="#DejaVuSans-76"/>
      <use x="471.529297" xlink:href="#DejaVuSans-69"/>
      <use x="499.3125" xlink:href="#DejaVuSans-74"/>
      <use x="538.521484" xlink:href="#DejaVuSans-79"/>
     </g>
    </g>
   </g>
   <g id="PolyCollection_6">
    <defs>
     <path d="M 757.28125 -215.734473 
L 757.28125 -212.130166 
L 761.135855 -201.623373 
L 764.990461 -194.502516 
L 768.845066 -186.846995 
L 772.699671 -186.083564 
L 776.554276 -189.5294 
L 780.408882 -194.289842 
L 784.263487 -193.516212 
L 788.118092 -193.931045 
L 791.972697 -191.793138 
L 791.972697 -212.824891 
L 791.972697 -212.824891 
L 788.118092 -197.32762 
L 784.263487 -194.747452 
L 780.408882 -195.10188 
L 776.554276 -190.117479 
L 772.699671 -186.653711 
L 768.845066 -187.859243 
L 764.990461 -197.851632 
L 761.135855 -204.924484 
L 757.28125 -215.734473 
z
" id="m2afa5b167d" style="stroke:#dadaeb;stroke-opacity:0.2;"/>
    </defs>
    <g clip-path="url(#pd7cafc8322)">
     <use style="fill:#dadaeb;fill-opacity:0.2;stroke:#dadaeb;stroke-opacity:0.2;" x="0" xlink:href="#m2afa5b167d" y="249.273269"/>
    </g>
   </g>
   <g id="PolyCollection_7">
    <defs>
     <path d="M 757.28125 -210.767884 
L 757.28125 -207.889032 
L 761.135855 -207.108113 
L 764.990461 -201.446338 
L 768.845066 -193.307235 
L 772.699671 -189.156897 
L 776.554276 -189.82278 
L 780.408882 -193.294264 
L 784.263487 -192.945634 
L 788.118092 -190.083688 
L 791.972697 -190.281987 
L 791.972697 -200.454766 
L 791.972697 -200.454766 
L 788.118092 -192.025562 
L 784.263487 -193.853288 
L 780.408882 -193.977423 
L 776.554276 -190.456019 
L 772.699671 -190.098464 
L 768.845066 -195.428575 
L 764.990461 -205.501829 
L 761.135855 -210.084109 
L 757.28125 -210.767884 
z
" id="m27331f979a" style="stroke:#9e9ac8;stroke-opacity:0.2;"/>
    </defs>
    <g clip-path="url(#pd7cafc8322)">
     <use style="fill:#9e9ac8;fill-opacity:0.2;stroke:#9e9ac8;stroke-opacity:0.2;" x="0" xlink:href="#m27331f979a" y="249.273269"/>
    </g>
   </g>
   <g id="PolyCollection_8">
    <defs>
     <path d="M 757.28125 -215.718082 
L 757.28125 -206.07628 
L 761.135855 -206.879635 
L 764.990461 -207.323393 
L 768.845066 -205.395005 
L 772.699671 -198.821439 
L 776.554276 -193.623331 
L 780.408882 -194.921991 
L 784.263487 -195.108138 
L 788.118092 -193.430216 
L 791.972697 -191.826521 
L 791.972697 -196.575305 
L 791.972697 -196.575305 
L 788.118092 -194.695402 
L 784.263487 -195.800567 
L 780.408882 -195.581793 
L 776.554276 -194.537613 
L 772.699671 -200.592259 
L 768.845066 -207.829026 
L 764.990461 -210.164462 
L 761.135855 -210.054998 
L 757.28125 -215.718082 
z
" id="ma5697fdf40" style="stroke:#6950a3;stroke-opacity:0.2;"/>
    </defs>
    <g clip-path="url(#pd7cafc8322)">
     <use style="fill:#6950a3;fill-opacity:0.2;stroke:#6950a3;stroke-opacity:0.2;" x="0" xlink:href="#ma5697fdf40" y="249.273269"/>
    </g>
   </g>
   <g id="line2d_95">
    <path clip-path="url(#pd7cafc8322)" d="M 757.28125 35.294411 
L 761.135855 45.894491 
L 764.990461 53.2079 
L 768.845066 61.930867 
L 772.699671 62.898572 
L 776.554276 59.459514 
L 780.408882 54.579974 
L 784.263487 55.155073 
L 788.118092 53.761488 
L 791.972697 47.489424 
" style="fill:none;stroke:#dadaeb;stroke-linecap:round;stroke-width:1.5;"/>
   </g>
   <g id="line2d_96">
    <path clip-path="url(#pd7cafc8322)" d="M 757.28125 39.907544 
L 761.135855 40.746659 
L 764.990461 45.797764 
L 768.845066 54.922828 
L 772.699671 59.639249 
L 776.554276 59.132491 
L 780.408882 55.636031 
L 784.263487 55.88239 
L 788.118092 58.177391 
L 791.972697 53.77683 
" style="fill:none;stroke:#9e9ac8;stroke-linecap:round;stroke-width:1.5;"/>
   </g>
   <g id="line2d_97">
    <path clip-path="url(#pd7cafc8322)" d="M 757.28125 38.286651 
L 761.135855 40.819457 
L 764.990461 40.474797 
L 768.845066 42.667682 
L 772.699671 49.569713 
L 776.554276 55.197421 
L 780.408882 54.028433 
L 784.263487 53.831929 
L 788.118092 55.179265 
L 791.972697 55.08132 
" style="fill:none;stroke:#6950a3;stroke-linecap:round;stroke-width:1.5;"/>
   </g>
   <g id="line2d_98"/>
   <g id="line2d_99"/>
   <g id="line2d_100"/>
   <g id="patch_38">
    <path d="M 755.353947 64.67225 
L 755.353947 32.05625 
" style="fill:none;stroke:#262626;stroke-linecap:square;stroke-linejoin:miter;stroke-width:1.25;"/>
   </g>
   <g id="patch_39">
    <path d="M 793.9 64.67225 
L 793.9 32.05625 
" style="fill:none;stroke:#262626;stroke-linecap:square;stroke-linejoin:miter;stroke-width:1.25;"/>
   </g>
   <g id="patch_40">
    <path d="M 755.353947 64.67225 
L 793.9 64.67225 
" style="fill:none;stroke:#262626;stroke-linecap:square;stroke-linejoin:miter;stroke-width:1.25;"/>
   </g>
   <g id="patch_41">
    <path d="M 755.353947 32.05625 
L 793.9 32.05625 
" style="fill:none;stroke:#262626;stroke-linecap:square;stroke-linejoin:miter;stroke-width:1.25;"/>
   </g>
   <g id="legend_5"/>
  </g>
 </g>
 <defs>
  <clipPath id="pd4615990ae">
   <rect height="163.08" width="128.486842" x="65.019079" y="26.55625"/>
  </clipPath>
  <clipPath id="p668a78dd5a">
   <rect height="163.08" width="128.486842" x="491.595395" y="26.55625"/>
  </clipPath>
  <clipPath id="p620bed7ee8">
   <rect height="163.08" width="102.789474" x="291.155921" y="26.55625"/>
  </clipPath>
  <clipPath id="p7f2ea72f6d">
   <rect height="163.08" width="128.486842" x="717.732237" y="26.55625"/>
  </clipPath>
  <clipPath id="pd7cafc8322">
   <rect height="32.616" width="38.546053" x="755.353947" y="32.05625"/>
  </clipPath>
 </defs>
</svg>
