<?xml version="1.0" encoding="utf-8" standalone="no"?>
<!DOCTYPE svg PUBLIC "-//W3C//DTD SVG 1.1//EN"
  "http://www.w3.org/Graphics/SVG/1.1/DTD/svg11.dtd">
<svg height="228.129pt" version="1.1" viewBox="0 0 635.733675 228.129" width="635.733675pt" xmlns="http://www.w3.org/2000/svg" xmlns:xlink="http://www.w3.org/1999/xlink">
 <metadata>
  <rdf:RDF xmlns:cc="http://creativecommons.org/ns#" xmlns:dc="http://purl.org/dc/elements/1.1/" xmlns:rdf="http://www.w3.org/1999/02/22-rdf-syntax-ns#">
   <cc:Work>
    <dc:type rdf:resource="http://purl.org/dc/dcmitype/StillImage"/>
    <dc:date>2024-01-02T15:57:09.411536</dc:date>
    <dc:format>image/svg+xml</dc:format>
    <dc:creator>
     <cc:Agent>
      <dc:title>Matplotlib v3.4.1, https://matplotlib.org/</dc:title>
     </cc:Agent>
    </dc:creator>
   </cc:Work>
  </rdf:RDF>
 </metadata>
 <defs>
  <style type="text/css">*{stroke-linecap:butt;stroke-linejoin:round;}</style>
 </defs>
 <g id="figure_1">
  <g id="patch_1">
   <path d="M 0 228.129 
L 635.733675 228.129 
L 635.733675 0 
L 0 0 
z
" style="fill:#ffffff;"/>
  </g>
  <g id="axes_1">
   <g id="patch_2">
    <path d="M 61.786957 157.02025 
L 183.091304 157.02025 
L 183.091304 26.55625 
L 61.786957 26.55625 
z
" style="fill:#ffffff;"/>
   </g>
   <g id="matplotlib.axis_1">
    <g id="xtick_1">
     <g id="line2d_1">
      <defs>
       <path d="M 0 0 
L 0 6 
" id="m79e44d204f" style="stroke:#262626;stroke-width:1.25;"/>
      </defs>
      <g>
       <use style="fill:#262626;stroke:#262626;stroke-width:1.25;" x="92.113043" xlink:href="#m79e44d204f" y="157.02025"/>
      </g>
     </g>
     <g id="text_1">
      <!-- multi -->
      <g style="fill:#262626;" transform="translate(82.830762 207.779703)rotate(-90)scale(0.11 -0.11)">
       <defs>
        <path d="M 3328 2828 
Q 3544 3216 3844 3400 
Q 4144 3584 4550 3584 
Q 5097 3584 5394 3201 
Q 5691 2819 5691 2113 
L 5691 0 
L 5113 0 
L 5113 2094 
Q 5113 2597 4934 2840 
Q 4756 3084 4391 3084 
Q 3944 3084 3684 2787 
Q 3425 2491 3425 1978 
L 3425 0 
L 2847 0 
L 2847 2094 
Q 2847 2600 2669 2842 
Q 2491 3084 2119 3084 
Q 1678 3084 1418 2786 
Q 1159 2488 1159 1978 
L 1159 0 
L 581 0 
L 581 3500 
L 1159 3500 
L 1159 2956 
Q 1356 3278 1631 3431 
Q 1906 3584 2284 3584 
Q 2666 3584 2933 3390 
Q 3200 3197 3328 2828 
z
" id="DejaVuSans-6d" transform="scale(0.015625)"/>
        <path d="M 544 1381 
L 544 3500 
L 1119 3500 
L 1119 1403 
Q 1119 906 1312 657 
Q 1506 409 1894 409 
Q 2359 409 2629 706 
Q 2900 1003 2900 1516 
L 2900 3500 
L 3475 3500 
L 3475 0 
L 2900 0 
L 2900 538 
Q 2691 219 2414 64 
Q 2138 -91 1772 -91 
Q 1169 -91 856 284 
Q 544 659 544 1381 
z
M 1991 3584 
L 1991 3584 
z
" id="DejaVuSans-75" transform="scale(0.015625)"/>
        <path d="M 603 4863 
L 1178 4863 
L 1178 0 
L 603 0 
L 603 4863 
z
" id="DejaVuSans-6c" transform="scale(0.015625)"/>
        <path d="M 1172 4494 
L 1172 3500 
L 2356 3500 
L 2356 3053 
L 1172 3053 
L 1172 1153 
Q 1172 725 1289 603 
Q 1406 481 1766 481 
L 2356 481 
L 2356 0 
L 1766 0 
Q 1100 0 847 248 
Q 594 497 594 1153 
L 594 3053 
L 172 3053 
L 172 3500 
L 594 3500 
L 594 4494 
L 1172 4494 
z
" id="DejaVuSans-74" transform="scale(0.015625)"/>
        <path d="M 603 3500 
L 1178 3500 
L 1178 0 
L 603 0 
L 603 3500 
z
M 603 4863 
L 1178 4863 
L 1178 4134 
L 603 4134 
L 603 4863 
z
" id="DejaVuSans-69" transform="scale(0.015625)"/>
       </defs>
       <use xlink:href="#DejaVuSans-6d"/>
       <use x="97.412109" xlink:href="#DejaVuSans-75"/>
       <use x="160.791016" xlink:href="#DejaVuSans-6c"/>
       <use x="188.574219" xlink:href="#DejaVuSans-74"/>
       <use x="227.783203" xlink:href="#DejaVuSans-69"/>
      </g>
      <!-- university -->
      <g style="fill:#262626;" transform="translate(95.148356 220.929)rotate(-90)scale(0.11 -0.11)">
       <defs>
        <path d="M 3513 2113 
L 3513 0 
L 2938 0 
L 2938 2094 
Q 2938 2591 2744 2837 
Q 2550 3084 2163 3084 
Q 1697 3084 1428 2787 
Q 1159 2491 1159 1978 
L 1159 0 
L 581 0 
L 581 3500 
L 1159 3500 
L 1159 2956 
Q 1366 3272 1645 3428 
Q 1925 3584 2291 3584 
Q 2894 3584 3203 3211 
Q 3513 2838 3513 2113 
z
" id="DejaVuSans-6e" transform="scale(0.015625)"/>
        <path d="M 191 3500 
L 800 3500 
L 1894 563 
L 2988 3500 
L 3597 3500 
L 2284 0 
L 1503 0 
L 191 3500 
z
" id="DejaVuSans-76" transform="scale(0.015625)"/>
        <path d="M 3597 1894 
L 3597 1613 
L 953 1613 
Q 991 1019 1311 708 
Q 1631 397 2203 397 
Q 2534 397 2845 478 
Q 3156 559 3463 722 
L 3463 178 
Q 3153 47 2828 -22 
Q 2503 -91 2169 -91 
Q 1331 -91 842 396 
Q 353 884 353 1716 
Q 353 2575 817 3079 
Q 1281 3584 2069 3584 
Q 2775 3584 3186 3129 
Q 3597 2675 3597 1894 
z
M 3022 2063 
Q 3016 2534 2758 2815 
Q 2500 3097 2075 3097 
Q 1594 3097 1305 2825 
Q 1016 2553 972 2059 
L 3022 2063 
z
" id="DejaVuSans-65" transform="scale(0.015625)"/>
        <path d="M 2631 2963 
Q 2534 3019 2420 3045 
Q 2306 3072 2169 3072 
Q 1681 3072 1420 2755 
Q 1159 2438 1159 1844 
L 1159 0 
L 581 0 
L 581 3500 
L 1159 3500 
L 1159 2956 
Q 1341 3275 1631 3429 
Q 1922 3584 2338 3584 
Q 2397 3584 2469 3576 
Q 2541 3569 2628 3553 
L 2631 2963 
z
" id="DejaVuSans-72" transform="scale(0.015625)"/>
        <path d="M 2834 3397 
L 2834 2853 
Q 2591 2978 2328 3040 
Q 2066 3103 1784 3103 
Q 1356 3103 1142 2972 
Q 928 2841 928 2578 
Q 928 2378 1081 2264 
Q 1234 2150 1697 2047 
L 1894 2003 
Q 2506 1872 2764 1633 
Q 3022 1394 3022 966 
Q 3022 478 2636 193 
Q 2250 -91 1575 -91 
Q 1294 -91 989 -36 
Q 684 19 347 128 
L 347 722 
Q 666 556 975 473 
Q 1284 391 1588 391 
Q 1994 391 2212 530 
Q 2431 669 2431 922 
Q 2431 1156 2273 1281 
Q 2116 1406 1581 1522 
L 1381 1569 
Q 847 1681 609 1914 
Q 372 2147 372 2553 
Q 372 3047 722 3315 
Q 1072 3584 1716 3584 
Q 2034 3584 2315 3537 
Q 2597 3491 2834 3397 
z
" id="DejaVuSans-73" transform="scale(0.015625)"/>
        <path d="M 2059 -325 
Q 1816 -950 1584 -1140 
Q 1353 -1331 966 -1331 
L 506 -1331 
L 506 -850 
L 844 -850 
Q 1081 -850 1212 -737 
Q 1344 -625 1503 -206 
L 1606 56 
L 191 3500 
L 800 3500 
L 1894 763 
L 2988 3500 
L 3597 3500 
L 2059 -325 
z
" id="DejaVuSans-79" transform="scale(0.015625)"/>
       </defs>
       <use xlink:href="#DejaVuSans-75"/>
       <use x="63.378906" xlink:href="#DejaVuSans-6e"/>
       <use x="126.757812" xlink:href="#DejaVuSans-69"/>
       <use x="154.541016" xlink:href="#DejaVuSans-76"/>
       <use x="213.720703" xlink:href="#DejaVuSans-65"/>
       <use x="275.244141" xlink:href="#DejaVuSans-72"/>
       <use x="316.357422" xlink:href="#DejaVuSans-73"/>
       <use x="368.457031" xlink:href="#DejaVuSans-69"/>
       <use x="396.240234" xlink:href="#DejaVuSans-74"/>
       <use x="435.449219" xlink:href="#DejaVuSans-79"/>
      </g>
      <!-- core -->
      <g style="fill:#262626;" transform="translate(107.46595 205.635562)rotate(-90)scale(0.11 -0.11)">
       <defs>
        <path d="M 3122 3366 
L 3122 2828 
Q 2878 2963 2633 3030 
Q 2388 3097 2138 3097 
Q 1578 3097 1268 2742 
Q 959 2388 959 1747 
Q 959 1106 1268 751 
Q 1578 397 2138 397 
Q 2388 397 2633 464 
Q 2878 531 3122 666 
L 3122 134 
Q 2881 22 2623 -34 
Q 2366 -91 2075 -91 
Q 1284 -91 818 406 
Q 353 903 353 1747 
Q 353 2603 823 3093 
Q 1294 3584 2113 3584 
Q 2378 3584 2631 3529 
Q 2884 3475 3122 3366 
z
" id="DejaVuSans-63" transform="scale(0.015625)"/>
        <path d="M 1959 3097 
Q 1497 3097 1228 2736 
Q 959 2375 959 1747 
Q 959 1119 1226 758 
Q 1494 397 1959 397 
Q 2419 397 2687 759 
Q 2956 1122 2956 1747 
Q 2956 2369 2687 2733 
Q 2419 3097 1959 3097 
z
M 1959 3584 
Q 2709 3584 3137 3096 
Q 3566 2609 3566 1747 
Q 3566 888 3137 398 
Q 2709 -91 1959 -91 
Q 1206 -91 779 398 
Q 353 888 353 1747 
Q 353 2609 779 3096 
Q 1206 3584 1959 3584 
z
" id="DejaVuSans-6f" transform="scale(0.015625)"/>
       </defs>
       <use xlink:href="#DejaVuSans-63"/>
       <use x="54.980469" xlink:href="#DejaVuSans-6f"/>
       <use x="116.162109" xlink:href="#DejaVuSans-72"/>
       <use x="155.025391" xlink:href="#DejaVuSans-65"/>
      </g>
     </g>
    </g>
    <g id="xtick_2">
     <g id="line2d_2">
      <g>
       <use style="fill:#262626;stroke:#262626;stroke-width:1.25;" x="152.765217" xlink:href="#m79e44d204f" y="157.02025"/>
      </g>
     </g>
     <g id="text_2">
      <!-- mono -->
      <g style="fill:#262626;" transform="translate(143.482936 209.298219)rotate(-90)scale(0.11 -0.11)">
       <use xlink:href="#DejaVuSans-6d"/>
       <use x="97.412109" xlink:href="#DejaVuSans-6f"/>
       <use x="158.59375" xlink:href="#DejaVuSans-6e"/>
       <use x="221.972656" xlink:href="#DejaVuSans-6f"/>
      </g>
      <!-- university -->
      <g style="fill:#262626;" transform="translate(155.80053 220.929)rotate(-90)scale(0.11 -0.11)">
       <use xlink:href="#DejaVuSans-75"/>
       <use x="63.378906" xlink:href="#DejaVuSans-6e"/>
       <use x="126.757812" xlink:href="#DejaVuSans-69"/>
       <use x="154.541016" xlink:href="#DejaVuSans-76"/>
       <use x="213.720703" xlink:href="#DejaVuSans-65"/>
       <use x="275.244141" xlink:href="#DejaVuSans-72"/>
       <use x="316.357422" xlink:href="#DejaVuSans-73"/>
       <use x="368.457031" xlink:href="#DejaVuSans-69"/>
       <use x="396.240234" xlink:href="#DejaVuSans-74"/>
       <use x="435.449219" xlink:href="#DejaVuSans-79"/>
      </g>
      <!-- core -->
      <g style="fill:#262626;" transform="translate(168.118124 205.635562)rotate(-90)scale(0.11 -0.11)">
       <use xlink:href="#DejaVuSans-63"/>
       <use x="54.980469" xlink:href="#DejaVuSans-6f"/>
       <use x="116.162109" xlink:href="#DejaVuSans-72"/>
       <use x="155.025391" xlink:href="#DejaVuSans-65"/>
      </g>
     </g>
    </g>
   </g>
   <g id="matplotlib.axis_2">
    <g id="ytick_1">
     <g id="line2d_3">
      <defs>
       <path d="M 0 0 
L -6 0 
" id="mb151ca0116" style="stroke:#262626;stroke-width:1.25;"/>
      </defs>
      <g>
       <use style="fill:#262626;stroke:#262626;stroke-width:1.25;" x="61.786957" xlink:href="#mb151ca0116" y="154.705531"/>
      </g>
     </g>
     <g id="text_3">
      <!-- 0 -->
      <g style="fill:#262626;" transform="translate(45.288207 158.884672)scale(0.11 -0.11)">
       <defs>
        <path d="M 2034 4250 
Q 1547 4250 1301 3770 
Q 1056 3291 1056 2328 
Q 1056 1369 1301 889 
Q 1547 409 2034 409 
Q 2525 409 2770 889 
Q 3016 1369 3016 2328 
Q 3016 3291 2770 3770 
Q 2525 4250 2034 4250 
z
M 2034 4750 
Q 2819 4750 3233 4129 
Q 3647 3509 3647 2328 
Q 3647 1150 3233 529 
Q 2819 -91 2034 -91 
Q 1250 -91 836 529 
Q 422 1150 422 2328 
Q 422 3509 836 4129 
Q 1250 4750 2034 4750 
z
" id="DejaVuSans-30" transform="scale(0.015625)"/>
       </defs>
       <use xlink:href="#DejaVuSans-30"/>
      </g>
     </g>
    </g>
    <g id="ytick_2">
     <g id="line2d_4">
      <g>
       <use style="fill:#262626;stroke:#262626;stroke-width:1.25;" x="61.786957" xlink:href="#mb151ca0116" y="125.781826"/>
      </g>
     </g>
     <g id="text_4">
      <!-- 1 -->
      <g style="fill:#262626;" transform="translate(45.288207 129.960967)scale(0.11 -0.11)">
       <defs>
        <path d="M 794 531 
L 1825 531 
L 1825 4091 
L 703 3866 
L 703 4441 
L 1819 4666 
L 2450 4666 
L 2450 531 
L 3481 531 
L 3481 0 
L 794 0 
L 794 531 
z
" id="DejaVuSans-31" transform="scale(0.015625)"/>
       </defs>
       <use xlink:href="#DejaVuSans-31"/>
      </g>
     </g>
    </g>
    <g id="ytick_3">
     <g id="line2d_5">
      <g>
       <use style="fill:#262626;stroke:#262626;stroke-width:1.25;" x="61.786957" xlink:href="#mb151ca0116" y="96.85812"/>
      </g>
     </g>
     <g id="text_5">
      <!-- 2 -->
      <g style="fill:#262626;" transform="translate(45.288207 101.037261)scale(0.11 -0.11)">
       <defs>
        <path d="M 1228 531 
L 3431 531 
L 3431 0 
L 469 0 
L 469 531 
Q 828 903 1448 1529 
Q 2069 2156 2228 2338 
Q 2531 2678 2651 2914 
Q 2772 3150 2772 3378 
Q 2772 3750 2511 3984 
Q 2250 4219 1831 4219 
Q 1534 4219 1204 4116 
Q 875 4013 500 3803 
L 500 4441 
Q 881 4594 1212 4672 
Q 1544 4750 1819 4750 
Q 2544 4750 2975 4387 
Q 3406 4025 3406 3419 
Q 3406 3131 3298 2873 
Q 3191 2616 2906 2266 
Q 2828 2175 2409 1742 
Q 1991 1309 1228 531 
z
" id="DejaVuSans-32" transform="scale(0.015625)"/>
       </defs>
       <use xlink:href="#DejaVuSans-32"/>
      </g>
     </g>
    </g>
    <g id="ytick_4">
     <g id="line2d_6">
      <g>
       <use style="fill:#262626;stroke:#262626;stroke-width:1.25;" x="61.786957" xlink:href="#mb151ca0116" y="67.934415"/>
      </g>
     </g>
     <g id="text_6">
      <!-- 3 -->
      <g style="fill:#262626;" transform="translate(45.288207 72.113556)scale(0.11 -0.11)">
       <defs>
        <path d="M 2597 2516 
Q 3050 2419 3304 2112 
Q 3559 1806 3559 1356 
Q 3559 666 3084 287 
Q 2609 -91 1734 -91 
Q 1441 -91 1130 -33 
Q 819 25 488 141 
L 488 750 
Q 750 597 1062 519 
Q 1375 441 1716 441 
Q 2309 441 2620 675 
Q 2931 909 2931 1356 
Q 2931 1769 2642 2001 
Q 2353 2234 1838 2234 
L 1294 2234 
L 1294 2753 
L 1863 2753 
Q 2328 2753 2575 2939 
Q 2822 3125 2822 3475 
Q 2822 3834 2567 4026 
Q 2313 4219 1838 4219 
Q 1578 4219 1281 4162 
Q 984 4106 628 3988 
L 628 4550 
Q 988 4650 1302 4700 
Q 1616 4750 1894 4750 
Q 2613 4750 3031 4423 
Q 3450 4097 3450 3541 
Q 3450 3153 3228 2886 
Q 3006 2619 2597 2516 
z
" id="DejaVuSans-33" transform="scale(0.015625)"/>
       </defs>
       <use xlink:href="#DejaVuSans-33"/>
      </g>
     </g>
    </g>
    <g id="ytick_5">
     <g id="line2d_7">
      <g>
       <use style="fill:#262626;stroke:#262626;stroke-width:1.25;" x="61.786957" xlink:href="#mb151ca0116" y="39.01071"/>
      </g>
     </g>
     <g id="text_7">
      <!-- 4 -->
      <g style="fill:#262626;" transform="translate(45.288207 43.18985)scale(0.11 -0.11)">
       <defs>
        <path d="M 2419 4116 
L 825 1625 
L 2419 1625 
L 2419 4116 
z
M 2253 4666 
L 3047 4666 
L 3047 1625 
L 3713 1625 
L 3713 1100 
L 3047 1100 
L 3047 0 
L 2419 0 
L 2419 1100 
L 313 1100 
L 313 1709 
L 2253 4666 
z
" id="DejaVuSans-34" transform="scale(0.015625)"/>
       </defs>
       <use xlink:href="#DejaVuSans-34"/>
      </g>
     </g>
    </g>
    <g id="text_8">
     <!-- productivity -->
     <g style="fill:#262626;" transform="translate(38.792582 127.651375)rotate(-90)scale(0.12 -0.12)">
      <defs>
       <path d="M 1159 525 
L 1159 -1331 
L 581 -1331 
L 581 3500 
L 1159 3500 
L 1159 2969 
Q 1341 3281 1617 3432 
Q 1894 3584 2278 3584 
Q 2916 3584 3314 3078 
Q 3713 2572 3713 1747 
Q 3713 922 3314 415 
Q 2916 -91 2278 -91 
Q 1894 -91 1617 61 
Q 1341 213 1159 525 
z
M 3116 1747 
Q 3116 2381 2855 2742 
Q 2594 3103 2138 3103 
Q 1681 3103 1420 2742 
Q 1159 2381 1159 1747 
Q 1159 1113 1420 752 
Q 1681 391 2138 391 
Q 2594 391 2855 752 
Q 3116 1113 3116 1747 
z
" id="DejaVuSans-70" transform="scale(0.015625)"/>
       <path d="M 2906 2969 
L 2906 4863 
L 3481 4863 
L 3481 0 
L 2906 0 
L 2906 525 
Q 2725 213 2448 61 
Q 2172 -91 1784 -91 
Q 1150 -91 751 415 
Q 353 922 353 1747 
Q 353 2572 751 3078 
Q 1150 3584 1784 3584 
Q 2172 3584 2448 3432 
Q 2725 3281 2906 2969 
z
M 947 1747 
Q 947 1113 1208 752 
Q 1469 391 1925 391 
Q 2381 391 2643 752 
Q 2906 1113 2906 1747 
Q 2906 2381 2643 2742 
Q 2381 3103 1925 3103 
Q 1469 3103 1208 2742 
Q 947 2381 947 1747 
z
" id="DejaVuSans-64" transform="scale(0.015625)"/>
      </defs>
      <use xlink:href="#DejaVuSans-70"/>
      <use x="63.476562" xlink:href="#DejaVuSans-72"/>
      <use x="102.339844" xlink:href="#DejaVuSans-6f"/>
      <use x="163.521484" xlink:href="#DejaVuSans-64"/>
      <use x="226.998047" xlink:href="#DejaVuSans-75"/>
      <use x="290.376953" xlink:href="#DejaVuSans-63"/>
      <use x="345.357422" xlink:href="#DejaVuSans-74"/>
      <use x="384.566406" xlink:href="#DejaVuSans-69"/>
      <use x="412.349609" xlink:href="#DejaVuSans-76"/>
      <use x="471.529297" xlink:href="#DejaVuSans-69"/>
      <use x="499.3125" xlink:href="#DejaVuSans-74"/>
      <use x="538.521484" xlink:href="#DejaVuSans-79"/>
     </g>
    </g>
   </g>
   <g id="line2d_8">
    <path clip-path="url(#p927b93ec8d)" d="M 92.113043 127.172256 
L 92.113043 151.090068 
" style="fill:none;stroke:#373737;"/>
   </g>
   <g id="line2d_9">
    <path clip-path="url(#p927b93ec8d)" d="M 92.113043 89.29688 
L 92.113043 32.486432 
" style="fill:none;stroke:#373737;"/>
   </g>
   <g id="line2d_10">
    <path clip-path="url(#p927b93ec8d)" d="M 87.56413 151.090068 
L 96.661957 151.090068 
" style="fill:none;stroke:#373737;stroke-linecap:round;"/>
   </g>
   <g id="line2d_11">
    <path clip-path="url(#p927b93ec8d)" d="M 87.56413 32.486432 
L 96.661957 32.486432 
" style="fill:none;stroke:#373737;stroke-linecap:round;"/>
   </g>
   <g id="line2d_12">
    <path clip-path="url(#p927b93ec8d)" d="M 152.765217 128.14217 
L 152.765217 151.069342 
" style="fill:none;stroke:#373737;"/>
   </g>
   <g id="line2d_13">
    <path clip-path="url(#p927b93ec8d)" d="M 152.765217 90.43063 
L 152.765217 33.867858 
" style="fill:none;stroke:#373737;"/>
   </g>
   <g id="line2d_14">
    <path clip-path="url(#p927b93ec8d)" d="M 148.216304 151.069342 
L 157.31413 151.069342 
" style="fill:none;stroke:#373737;stroke-linecap:round;"/>
   </g>
   <g id="line2d_15">
    <path clip-path="url(#p927b93ec8d)" d="M 148.216304 33.867858 
L 157.31413 33.867858 
" style="fill:none;stroke:#373737;stroke-linecap:round;"/>
   </g>
   <g id="patch_3">
    <path clip-path="url(#p927b93ec8d)" d="M 83.015217 127.172256 
L 101.21087 127.172256 
L 101.21087 89.29688 
L 83.015217 89.29688 
L 83.015217 127.172256 
z
" style="fill:#2b8e70;stroke:#373737;stroke-linejoin:miter;"/>
   </g>
   <g id="patch_4">
    <path clip-path="url(#p927b93ec8d)" d="M 143.667391 128.14217 
L 161.863043 128.14217 
L 161.863043 90.43063 
L 143.667391 90.43063 
L 143.667391 128.14217 
z
" style="fill:#7c78ab;stroke:#373737;stroke-linejoin:miter;"/>
   </g>
   <g id="line2d_16">
    <path clip-path="url(#p927b93ec8d)" d="M 83.015217 112.493126 
L 101.21087 112.493126 
" style="fill:none;stroke:#373737;"/>
   </g>
   <g id="line2d_17">
    <path clip-path="url(#p927b93ec8d)" d="M 143.667391 113.418124 
L 161.863043 113.418124 
" style="fill:none;stroke:#373737;"/>
   </g>
   <g id="patch_5">
    <path d="M 61.786957 157.02025 
L 61.786957 26.55625 
" style="fill:none;stroke:#262626;stroke-linecap:square;stroke-linejoin:miter;stroke-width:1.25;"/>
   </g>
   <g id="patch_6">
    <path d="M 61.786957 157.02025 
L 183.091304 157.02025 
" style="fill:none;stroke:#262626;stroke-linecap:square;stroke-linejoin:miter;stroke-width:1.25;"/>
   </g>
   <g id="text_9">
    <!-- a) -->
    <g style="fill:#262626;" transform="translate(7.2 22.396875)scale(0.2 -0.2)">
     <defs>
      <path d="M 2547 1044 
L 2547 1747 
L 1806 1747 
Q 1378 1747 1168 1562 
Q 959 1378 959 997 
Q 959 650 1171 447 
Q 1384 244 1747 244 
Q 2106 244 2326 466 
Q 2547 688 2547 1044 
z
M 3122 2075 
L 3122 331 
L 3634 331 
L 3634 0 
L 2547 0 
L 2547 359 
Q 2356 128 2106 18 
Q 1856 -91 1522 -91 
Q 969 -91 644 203 
Q 319 497 319 997 
Q 319 1513 691 1797 
Q 1063 2081 1741 2081 
L 2547 2081 
L 2547 2309 
Q 2547 2688 2317 2895 
Q 2088 3103 1672 3103 
Q 1328 3103 1125 2947 
Q 922 2791 872 2484 
L 575 2484 
L 575 3156 
Q 875 3284 1158 3348 
Q 1441 3413 1709 3413 
Q 2400 3413 2761 3070 
Q 3122 2728 3122 2075 
z
" id="DejaVuSerif-61" transform="scale(0.015625)"/>
      <path d="M 453 -997 
L 453 -691 
Q 934 -359 1145 242 
Q 1356 844 1356 1931 
Q 1356 3022 1145 3623 
Q 934 4225 453 4556 
L 453 4863 
Q 1216 4522 1603 3783 
Q 1991 3044 1991 1931 
Q 1991 822 1603 83 
Q 1216 -656 453 -997 
z
" id="DejaVuSerif-29" transform="scale(0.015625)"/>
     </defs>
     <use xlink:href="#DejaVuSerif-61"/>
     <use x="59.619141" xlink:href="#DejaVuSerif-29"/>
    </g>
   </g>
  </g>
  <g id="axes_2">
   <g id="patch_7">
    <path d="M 280.134783 157.02025 
L 401.43913 157.02025 
L 401.43913 26.55625 
L 280.134783 26.55625 
z
" style="fill:#ffffff;"/>
   </g>
   <g id="matplotlib.axis_3"/>
   <g id="matplotlib.axis_4">
    <g id="ytick_6">
     <g id="line2d_18">
      <g>
       <use style="fill:#262626;stroke:#262626;stroke-width:1.25;" x="280.134783" xlink:href="#mb151ca0116" y="154.518047"/>
      </g>
     </g>
     <g id="text_10">
      <!-- 0 -->
      <g style="fill:#262626;" transform="translate(263.636033 158.697188)scale(0.11 -0.11)">
       <use xlink:href="#DejaVuSans-30"/>
      </g>
     </g>
    </g>
    <g id="ytick_7">
     <g id="line2d_19">
      <g>
       <use style="fill:#262626;stroke:#262626;stroke-width:1.25;" x="280.134783" xlink:href="#mb151ca0116" y="127.094215"/>
      </g>
     </g>
     <g id="text_11">
      <!-- 1 -->
      <g style="fill:#262626;" transform="translate(263.636033 131.273356)scale(0.11 -0.11)">
       <use xlink:href="#DejaVuSans-31"/>
      </g>
     </g>
    </g>
    <g id="ytick_8">
     <g id="line2d_20">
      <g>
       <use style="fill:#262626;stroke:#262626;stroke-width:1.25;" x="280.134783" xlink:href="#mb151ca0116" y="99.670383"/>
      </g>
     </g>
     <g id="text_12">
      <!-- 2 -->
      <g style="fill:#262626;" transform="translate(263.636033 103.849524)scale(0.11 -0.11)">
       <use xlink:href="#DejaVuSans-32"/>
      </g>
     </g>
    </g>
    <g id="ytick_9">
     <g id="line2d_21">
      <g>
       <use style="fill:#262626;stroke:#262626;stroke-width:1.25;" x="280.134783" xlink:href="#mb151ca0116" y="72.246551"/>
      </g>
     </g>
     <g id="text_13">
      <!-- 3 -->
      <g style="fill:#262626;" transform="translate(263.636033 76.425691)scale(0.11 -0.11)">
       <use xlink:href="#DejaVuSans-33"/>
      </g>
     </g>
    </g>
    <g id="ytick_10">
     <g id="line2d_22">
      <g>
       <use style="fill:#262626;stroke:#262626;stroke-width:1.25;" x="280.134783" xlink:href="#mb151ca0116" y="44.822719"/>
      </g>
     </g>
     <g id="text_14">
      <!-- 4 -->
      <g style="fill:#262626;" transform="translate(263.636033 49.001859)scale(0.11 -0.11)">
       <use xlink:href="#DejaVuSans-34"/>
      </g>
     </g>
    </g>
    <g id="text_15">
     <!-- productivity -->
     <g style="fill:#262626;" transform="translate(257.140408 127.651375)rotate(-90)scale(0.12 -0.12)">
      <use xlink:href="#DejaVuSans-70"/>
      <use x="63.476562" xlink:href="#DejaVuSans-72"/>
      <use x="102.339844" xlink:href="#DejaVuSans-6f"/>
      <use x="163.521484" xlink:href="#DejaVuSans-64"/>
      <use x="226.998047" xlink:href="#DejaVuSans-75"/>
      <use x="290.376953" xlink:href="#DejaVuSans-63"/>
      <use x="345.357422" xlink:href="#DejaVuSans-74"/>
      <use x="384.566406" xlink:href="#DejaVuSans-69"/>
      <use x="412.349609" xlink:href="#DejaVuSans-76"/>
      <use x="471.529297" xlink:href="#DejaVuSans-69"/>
      <use x="499.3125" xlink:href="#DejaVuSans-74"/>
      <use x="538.521484" xlink:href="#DejaVuSans-79"/>
     </g>
    </g>
   </g>
   <g id="patch_8">
    <path clip-path="url(#pb113b16423)" d="M 340.786957 154.518047 
L 340.786957 154.518047 
L 340.786957 154.518047 
L 340.786957 154.518047 
z
" style="fill:#b9dccc;stroke:#7a7a7a;stroke-linejoin:miter;"/>
   </g>
   <g id="patch_9">
    <path clip-path="url(#pb113b16423)" d="M 340.786957 154.518047 
L 340.786957 154.518047 
L 340.786957 154.518047 
L 340.786957 154.518047 
z
" style="fill:#f3cfb6;stroke:#7a7a7a;stroke-linejoin:miter;"/>
   </g>
   <g id="patch_10">
    <path clip-path="url(#pb113b16423)" d="M 340.786957 154.518047 
L 340.786957 154.518047 
L 340.786957 154.518047 
L 340.786957 154.518047 
z
" style="fill:#cfd6e4;stroke:#7a7a7a;stroke-linejoin:miter;"/>
   </g>
   <g id="patch_11">
    <path clip-path="url(#pb113b16423)" d="M 340.786957 154.518047 
L 340.786957 154.518047 
L 340.786957 154.518047 
L 340.786957 154.518047 
z
" style="fill:#ece1d1;stroke:#7a7a7a;stroke-linejoin:miter;"/>
   </g>
   <g id="patch_12">
    <path clip-path="url(#pb113b16423)" d="M 340.786957 154.518047 
L 340.786957 154.518047 
L 340.786957 154.518047 
L 340.786957 154.518047 
z
" style="fill:#e4f0ce;stroke:#7a7a7a;stroke-linejoin:miter;"/>
   </g>
   <g id="patch_13">
    <path clip-path="url(#pb113b16423)" d="M 340.786957 154.518047 
L 340.786957 154.518047 
L 340.786957 154.518047 
L 340.786957 154.518047 
z
" style="fill:#f5ebb8;stroke:#7a7a7a;stroke-linejoin:miter;"/>
   </g>
   <g id="patch_14">
    <path clip-path="url(#pb113b16423)" d="M 340.786957 154.518047 
L 340.786957 154.518047 
L 340.786957 154.518047 
L 340.786957 154.518047 
z
" style="fill:#efcfe3;stroke:#7a7a7a;stroke-linejoin:miter;"/>
   </g>
   <g id="line2d_23">
    <path clip-path="url(#pb113b16423)" d="M 299.196894 129.323897 
L 299.196894 150.978209 
" style="fill:none;stroke:#7a7a7a;"/>
   </g>
   <g id="line2d_24">
    <path clip-path="url(#pb113b16423)" d="M 299.196894 93.912893 
L 299.196894 40.811996 
" style="fill:none;stroke:#7a7a7a;"/>
   </g>
   <g id="line2d_25">
    <path clip-path="url(#pb113b16423)" d="M 295.731056 150.978209 
L 302.662733 150.978209 
" style="fill:none;stroke:#7a7a7a;stroke-linecap:round;"/>
   </g>
   <g id="line2d_26">
    <path clip-path="url(#pb113b16423)" d="M 295.731056 40.811996 
L 302.662733 40.811996 
" style="fill:none;stroke:#7a7a7a;stroke-linecap:round;"/>
   </g>
   <g id="line2d_27">
    <path clip-path="url(#pb113b16423)" d="M 313.060248 129.431797 
L 313.060248 151.008471 
" style="fill:none;stroke:#7a7a7a;"/>
   </g>
   <g id="line2d_28">
    <path clip-path="url(#pb113b16423)" d="M 313.060248 95.955868 
L 313.060248 45.752173 
" style="fill:none;stroke:#7a7a7a;"/>
   </g>
   <g id="line2d_29">
    <path clip-path="url(#pb113b16423)" d="M 309.59441 151.008471 
L 316.526087 151.008471 
" style="fill:none;stroke:#7a7a7a;stroke-linecap:round;"/>
   </g>
   <g id="line2d_30">
    <path clip-path="url(#pb113b16423)" d="M 309.59441 45.752173 
L 316.526087 45.752173 
" style="fill:none;stroke:#7a7a7a;stroke-linecap:round;"/>
   </g>
   <g id="line2d_31">
    <path clip-path="url(#pb113b16423)" d="M 326.923602 128.912228 
L 326.923602 150.663137 
" style="fill:none;stroke:#7a7a7a;"/>
   </g>
   <g id="line2d_32">
    <path clip-path="url(#pb113b16423)" d="M 326.923602 91.350286 
L 326.923602 35.07627 
" style="fill:none;stroke:#7a7a7a;"/>
   </g>
   <g id="line2d_33">
    <path clip-path="url(#pb113b16423)" d="M 323.457764 150.663137 
L 330.389441 150.663137 
" style="fill:none;stroke:#7a7a7a;stroke-linecap:round;"/>
   </g>
   <g id="line2d_34">
    <path clip-path="url(#pb113b16423)" d="M 323.457764 35.07627 
L 330.389441 35.07627 
" style="fill:none;stroke:#7a7a7a;stroke-linecap:round;"/>
   </g>
   <g id="line2d_35">
    <path clip-path="url(#pb113b16423)" d="M 340.786957 128.805909 
L 340.786957 151.090068 
" style="fill:none;stroke:#7a7a7a;"/>
   </g>
   <g id="line2d_36">
    <path clip-path="url(#pb113b16423)" d="M 340.786957 92.982144 
L 340.786957 39.264959 
" style="fill:none;stroke:#7a7a7a;"/>
   </g>
   <g id="line2d_37">
    <path clip-path="url(#pb113b16423)" d="M 337.321118 151.090068 
L 344.252795 151.090068 
" style="fill:none;stroke:#7a7a7a;stroke-linecap:round;"/>
   </g>
   <g id="line2d_38">
    <path clip-path="url(#pb113b16423)" d="M 337.321118 39.264959 
L 344.252795 39.264959 
" style="fill:none;stroke:#7a7a7a;stroke-linecap:round;"/>
   </g>
   <g id="line2d_39">
    <path clip-path="url(#pb113b16423)" d="M 354.650311 128.674639 
L 354.650311 151.070417 
" style="fill:none;stroke:#7a7a7a;"/>
   </g>
   <g id="line2d_40">
    <path clip-path="url(#pb113b16423)" d="M 354.650311 94.413551 
L 354.650311 43.039055 
" style="fill:none;stroke:#7a7a7a;"/>
   </g>
   <g id="line2d_41">
    <path clip-path="url(#pb113b16423)" d="M 351.184472 151.070417 
L 358.116149 151.070417 
" style="fill:none;stroke:#7a7a7a;stroke-linecap:round;"/>
   </g>
   <g id="line2d_42">
    <path clip-path="url(#pb113b16423)" d="M 351.184472 43.039055 
L 358.116149 43.039055 
" style="fill:none;stroke:#7a7a7a;stroke-linecap:round;"/>
   </g>
   <g id="line2d_43">
    <path clip-path="url(#pb113b16423)" d="M 368.513665 128.808205 
L 368.513665 151.019395 
" style="fill:none;stroke:#7a7a7a;"/>
   </g>
   <g id="line2d_44">
    <path clip-path="url(#pb113b16423)" d="M 368.513665 92.798995 
L 368.513665 38.805675 
" style="fill:none;stroke:#7a7a7a;"/>
   </g>
   <g id="line2d_45">
    <path clip-path="url(#pb113b16423)" d="M 365.047826 151.019395 
L 371.979503 151.019395 
" style="fill:none;stroke:#7a7a7a;stroke-linecap:round;"/>
   </g>
   <g id="line2d_46">
    <path clip-path="url(#pb113b16423)" d="M 365.047826 38.805675 
L 371.979503 38.805675 
" style="fill:none;stroke:#7a7a7a;stroke-linecap:round;"/>
   </g>
   <g id="line2d_47">
    <path clip-path="url(#pb113b16423)" d="M 382.377019 128.329444 
L 382.377019 150.765881 
" style="fill:none;stroke:#7a7a7a;"/>
   </g>
   <g id="line2d_48">
    <path clip-path="url(#pb113b16423)" d="M 382.377019 89.991383 
L 382.377019 32.486432 
" style="fill:none;stroke:#7a7a7a;"/>
   </g>
   <g id="line2d_49">
    <path clip-path="url(#pb113b16423)" d="M 378.91118 150.765881 
L 385.842857 150.765881 
" style="fill:none;stroke:#7a7a7a;stroke-linecap:round;"/>
   </g>
   <g id="line2d_50">
    <path clip-path="url(#pb113b16423)" d="M 378.91118 32.486432 
L 385.842857 32.486432 
" style="fill:none;stroke:#7a7a7a;stroke-linecap:round;"/>
   </g>
   <g id="patch_15">
    <path clip-path="url(#pb113b16423)" d="M 292.265217 129.323897 
L 306.128571 129.323897 
L 306.128571 93.912893 
L 292.265217 93.912893 
L 292.265217 129.323897 
z
" style="fill:#b9dccc;stroke:#7a7a7a;stroke-linejoin:miter;"/>
   </g>
   <g id="patch_16">
    <path clip-path="url(#pb113b16423)" d="M 306.128571 129.431797 
L 319.991925 129.431797 
L 319.991925 95.955868 
L 306.128571 95.955868 
L 306.128571 129.431797 
z
" style="fill:#f3cfb6;stroke:#7a7a7a;stroke-linejoin:miter;"/>
   </g>
   <g id="patch_17">
    <path clip-path="url(#pb113b16423)" d="M 319.991925 128.912228 
L 333.85528 128.912228 
L 333.85528 91.350286 
L 319.991925 91.350286 
L 319.991925 128.912228 
z
" style="fill:#cfd6e4;stroke:#7a7a7a;stroke-linejoin:miter;"/>
   </g>
   <g id="patch_18">
    <path clip-path="url(#pb113b16423)" d="M 333.85528 128.805909 
L 347.718634 128.805909 
L 347.718634 92.982144 
L 333.85528 92.982144 
L 333.85528 128.805909 
z
" style="fill:#ece1d1;stroke:#7a7a7a;stroke-linejoin:miter;"/>
   </g>
   <g id="patch_19">
    <path clip-path="url(#pb113b16423)" d="M 347.718634 128.674639 
L 361.581988 128.674639 
L 361.581988 94.413551 
L 347.718634 94.413551 
L 347.718634 128.674639 
z
" style="fill:#e4f0ce;stroke:#7a7a7a;stroke-linejoin:miter;"/>
   </g>
   <g id="patch_20">
    <path clip-path="url(#pb113b16423)" d="M 361.581988 128.808205 
L 375.445342 128.808205 
L 375.445342 92.798995 
L 361.581988 92.798995 
L 361.581988 128.808205 
z
" style="fill:#f5ebb8;stroke:#7a7a7a;stroke-linejoin:miter;"/>
   </g>
   <g id="patch_21">
    <path clip-path="url(#pb113b16423)" d="M 375.445342 128.329444 
L 389.308696 128.329444 
L 389.308696 89.991383 
L 375.445342 89.991383 
L 375.445342 128.329444 
z
" style="fill:#efcfe3;stroke:#7a7a7a;stroke-linejoin:miter;"/>
   </g>
   <g id="line2d_51">
    <path clip-path="url(#pb113b16423)" d="M 292.265217 115.468652 
L 306.128571 115.468652 
" style="fill:none;stroke:#7a7a7a;"/>
   </g>
   <g id="line2d_52">
    <path clip-path="url(#pb113b16423)" d="M 306.128571 116.05545 
L 319.991925 116.05545 
" style="fill:none;stroke:#7a7a7a;"/>
   </g>
   <g id="line2d_53">
    <path clip-path="url(#pb113b16423)" d="M 319.991925 114.802143 
L 333.85528 114.802143 
" style="fill:none;stroke:#7a7a7a;"/>
   </g>
   <g id="line2d_54">
    <path clip-path="url(#pb113b16423)" d="M 333.85528 114.782961 
L 347.718634 114.782961 
" style="fill:none;stroke:#7a7a7a;"/>
   </g>
   <g id="line2d_55">
    <path clip-path="url(#pb113b16423)" d="M 347.718634 115.221852 
L 361.581988 115.221852 
" style="fill:none;stroke:#7a7a7a;"/>
   </g>
   <g id="line2d_56">
    <path clip-path="url(#pb113b16423)" d="M 361.581988 115.030888 
L 375.445342 115.030888 
" style="fill:none;stroke:#7a7a7a;"/>
   </g>
   <g id="line2d_57">
    <path clip-path="url(#pb113b16423)" d="M 375.445342 113.390525 
L 389.308696 113.390525 
" style="fill:none;stroke:#7a7a7a;"/>
   </g>
   <g id="text_16">
    <!-- b) -->
    <g style="fill:#262626;" transform="translate(225.547826 22.396875)scale(0.2 -0.2)">
     <defs>
      <path d="M 738 331 
L 738 4531 
L 184 4531 
L 184 4863 
L 1313 4863 
L 1313 2803 
Q 1481 3116 1742 3264 
Q 2003 3413 2388 3413 
Q 3000 3413 3387 2928 
Q 3775 2444 3775 1663 
Q 3775 881 3387 395 
Q 3000 -91 2388 -91 
Q 2003 -91 1742 57 
Q 1481 206 1313 519 
L 1313 0 
L 184 0 
L 184 331 
L 738 331 
z
M 1313 1497 
Q 1313 897 1542 583 
Q 1772 269 2209 269 
Q 2650 269 2876 622 
Q 3103 975 3103 1663 
Q 3103 2353 2876 2703 
Q 2650 3053 2209 3053 
Q 1772 3053 1542 2737 
Q 1313 2422 1313 1825 
L 1313 1497 
z
" id="DejaVuSerif-62" transform="scale(0.015625)"/>
     </defs>
     <use xlink:href="#DejaVuSerif-62"/>
     <use x="64.013672" xlink:href="#DejaVuSerif-29"/>
    </g>
   </g>
   <g id="legend_1">
    <g id="patch_22">
     <path d="M 297.865217 91.66875 
L 426.666467 91.66875 
Q 428.266467 91.66875 428.266467 90.06875 
L 428.266467 32.15625 
Q 428.266467 30.55625 426.666467 30.55625 
L 297.865217 30.55625 
Q 296.265217 30.55625 296.265217 32.15625 
L 296.265217 90.06875 
Q 296.265217 91.66875 297.865217 91.66875 
z
" style="fill:#ffffff;opacity:0.35;stroke:#cccccc;stroke-linejoin:miter;"/>
    </g>
    <g id="text_17">
     <!-- core age composition -->
     <g style="fill:#262626;" transform="translate(319.222092 39.835)scale(0.08 -0.08)">
      <defs>
       <path id="DejaVuSans-20" transform="scale(0.015625)"/>
       <path d="M 2194 1759 
Q 1497 1759 1228 1600 
Q 959 1441 959 1056 
Q 959 750 1161 570 
Q 1363 391 1709 391 
Q 2188 391 2477 730 
Q 2766 1069 2766 1631 
L 2766 1759 
L 2194 1759 
z
M 3341 1997 
L 3341 0 
L 2766 0 
L 2766 531 
Q 2569 213 2275 61 
Q 1981 -91 1556 -91 
Q 1019 -91 701 211 
Q 384 513 384 1019 
Q 384 1609 779 1909 
Q 1175 2209 1959 2209 
L 2766 2209 
L 2766 2266 
Q 2766 2663 2505 2880 
Q 2244 3097 1772 3097 
Q 1472 3097 1187 3025 
Q 903 2953 641 2809 
L 641 3341 
Q 956 3463 1253 3523 
Q 1550 3584 1831 3584 
Q 2591 3584 2966 3190 
Q 3341 2797 3341 1997 
z
" id="DejaVuSans-61" transform="scale(0.015625)"/>
       <path d="M 2906 1791 
Q 2906 2416 2648 2759 
Q 2391 3103 1925 3103 
Q 1463 3103 1205 2759 
Q 947 2416 947 1791 
Q 947 1169 1205 825 
Q 1463 481 1925 481 
Q 2391 481 2648 825 
Q 2906 1169 2906 1791 
z
M 3481 434 
Q 3481 -459 3084 -895 
Q 2688 -1331 1869 -1331 
Q 1566 -1331 1297 -1286 
Q 1028 -1241 775 -1147 
L 775 -588 
Q 1028 -725 1275 -790 
Q 1522 -856 1778 -856 
Q 2344 -856 2625 -561 
Q 2906 -266 2906 331 
L 2906 616 
Q 2728 306 2450 153 
Q 2172 0 1784 0 
Q 1141 0 747 490 
Q 353 981 353 1791 
Q 353 2603 747 3093 
Q 1141 3584 1784 3584 
Q 2172 3584 2450 3431 
Q 2728 3278 2906 2969 
L 2906 3500 
L 3481 3500 
L 3481 434 
z
" id="DejaVuSans-67" transform="scale(0.015625)"/>
      </defs>
      <use xlink:href="#DejaVuSans-63"/>
      <use x="54.980469" xlink:href="#DejaVuSans-6f"/>
      <use x="116.162109" xlink:href="#DejaVuSans-72"/>
      <use x="155.025391" xlink:href="#DejaVuSans-65"/>
      <use x="216.548828" xlink:href="#DejaVuSans-20"/>
      <use x="248.335938" xlink:href="#DejaVuSans-61"/>
      <use x="309.615234" xlink:href="#DejaVuSans-67"/>
      <use x="373.091797" xlink:href="#DejaVuSans-65"/>
      <use x="434.615234" xlink:href="#DejaVuSans-20"/>
      <use x="466.402344" xlink:href="#DejaVuSans-63"/>
      <use x="521.382812" xlink:href="#DejaVuSans-6f"/>
      <use x="582.564453" xlink:href="#DejaVuSans-6d"/>
      <use x="679.976562" xlink:href="#DejaVuSans-70"/>
      <use x="743.453125" xlink:href="#DejaVuSans-6f"/>
      <use x="804.634766" xlink:href="#DejaVuSans-73"/>
      <use x="856.734375" xlink:href="#DejaVuSans-69"/>
      <use x="884.517578" xlink:href="#DejaVuSans-74"/>
      <use x="923.726562" xlink:href="#DejaVuSans-69"/>
      <use x="951.509766" xlink:href="#DejaVuSans-6f"/>
      <use x="1012.691406" xlink:href="#DejaVuSans-6e"/>
     </g>
    </g>
    <g id="patch_23">
     <path d="M 299.465217 51.5775 
L 315.465217 51.5775 
L 315.465217 45.9775 
L 299.465217 45.9775 
z
" style="fill:#b9dccc;stroke:#7a7a7a;stroke-linejoin:miter;"/>
    </g>
    <g id="text_18">
     <!-- Y -->
     <g style="fill:#262626;" transform="translate(321.865217 51.5775)scale(0.08 -0.08)">
      <defs>
       <path d="M -13 4666 
L 666 4666 
L 1959 2747 
L 3244 4666 
L 3922 4666 
L 2272 2222 
L 2272 0 
L 1638 0 
L 1638 2222 
L -13 4666 
z
" id="DejaVuSans-59" transform="scale(0.015625)"/>
      </defs>
      <use xlink:href="#DejaVuSans-59"/>
     </g>
    </g>
    <g id="patch_24">
     <path d="M 299.465217 63.32 
L 315.465217 63.32 
L 315.465217 57.72 
L 299.465217 57.72 
z
" style="fill:#f3cfb6;stroke:#7a7a7a;stroke-linejoin:miter;"/>
    </g>
    <g id="text_19">
     <!-- Em -->
     <g style="fill:#262626;" transform="translate(321.865217 63.32)scale(0.08 -0.08)">
      <defs>
       <path d="M 628 4666 
L 3578 4666 
L 3578 4134 
L 1259 4134 
L 1259 2753 
L 3481 2753 
L 3481 2222 
L 1259 2222 
L 1259 531 
L 3634 531 
L 3634 0 
L 628 0 
L 628 4666 
z
" id="DejaVuSans-45" transform="scale(0.015625)"/>
      </defs>
      <use xlink:href="#DejaVuSans-45"/>
      <use x="63.183594" xlink:href="#DejaVuSans-6d"/>
     </g>
    </g>
    <g id="patch_25">
     <path d="M 299.465217 75.0625 
L 315.465217 75.0625 
L 315.465217 69.4625 
L 299.465217 69.4625 
z
" style="fill:#cfd6e4;stroke:#7a7a7a;stroke-linejoin:miter;"/>
    </g>
    <g id="text_20">
     <!-- Es -->
     <g style="fill:#262626;" transform="translate(321.865217 75.0625)scale(0.08 -0.08)">
      <use xlink:href="#DejaVuSans-45"/>
      <use x="63.183594" xlink:href="#DejaVuSans-73"/>
     </g>
    </g>
    <g id="patch_26">
     <path d="M 299.465217 86.805 
L 315.465217 86.805 
L 315.465217 81.205 
L 299.465217 81.205 
z
" style="fill:#ece1d1;stroke:#7a7a7a;stroke-linejoin:miter;"/>
    </g>
    <g id="text_21">
     <!-- Y+Em -->
     <g style="fill:#262626;" transform="translate(321.865217 86.805)scale(0.08 -0.08)">
      <defs>
       <path d="M 2944 4013 
L 2944 2272 
L 4684 2272 
L 4684 1741 
L 2944 1741 
L 2944 0 
L 2419 0 
L 2419 1741 
L 678 1741 
L 678 2272 
L 2419 2272 
L 2419 4013 
L 2944 4013 
z
" id="DejaVuSans-2b" transform="scale(0.015625)"/>
      </defs>
      <use xlink:href="#DejaVuSans-59"/>
      <use x="61.083984" xlink:href="#DejaVuSans-2b"/>
      <use x="144.873047" xlink:href="#DejaVuSans-45"/>
      <use x="208.056641" xlink:href="#DejaVuSans-6d"/>
     </g>
    </g>
    <g id="patch_27">
     <path d="M 362.302717 51.5775 
L 378.302717 51.5775 
L 378.302717 45.9775 
L 362.302717 45.9775 
z
" style="fill:#e4f0ce;stroke:#7a7a7a;stroke-linejoin:miter;"/>
    </g>
    <g id="text_22">
     <!-- Y+Es -->
     <g style="fill:#262626;" transform="translate(384.702717 51.5775)scale(0.08 -0.08)">
      <use xlink:href="#DejaVuSans-59"/>
      <use x="61.083984" xlink:href="#DejaVuSans-2b"/>
      <use x="144.873047" xlink:href="#DejaVuSans-45"/>
      <use x="208.056641" xlink:href="#DejaVuSans-73"/>
     </g>
    </g>
    <g id="patch_28">
     <path d="M 362.302717 63.32 
L 378.302717 63.32 
L 378.302717 57.72 
L 362.302717 57.72 
z
" style="fill:#f5ebb8;stroke:#7a7a7a;stroke-linejoin:miter;"/>
    </g>
    <g id="text_23">
     <!-- Em+Es -->
     <g style="fill:#262626;" transform="translate(384.702717 63.32)scale(0.08 -0.08)">
      <use xlink:href="#DejaVuSans-45"/>
      <use x="63.183594" xlink:href="#DejaVuSans-6d"/>
      <use x="160.595703" xlink:href="#DejaVuSans-2b"/>
      <use x="244.384766" xlink:href="#DejaVuSans-45"/>
      <use x="307.568359" xlink:href="#DejaVuSans-73"/>
     </g>
    </g>
    <g id="patch_29">
     <path d="M 362.302717 75.0625 
L 378.302717 75.0625 
L 378.302717 69.4625 
L 362.302717 69.4625 
z
" style="fill:#efcfe3;stroke:#7a7a7a;stroke-linejoin:miter;"/>
    </g>
    <g id="text_24">
     <!-- Y+Em+Es -->
     <g style="fill:#262626;" transform="translate(384.702717 75.0625)scale(0.08 -0.08)">
      <use xlink:href="#DejaVuSans-59"/>
      <use x="61.083984" xlink:href="#DejaVuSans-2b"/>
      <use x="144.873047" xlink:href="#DejaVuSans-45"/>
      <use x="208.056641" xlink:href="#DejaVuSans-6d"/>
      <use x="305.46875" xlink:href="#DejaVuSans-2b"/>
      <use x="389.257812" xlink:href="#DejaVuSans-45"/>
      <use x="452.441406" xlink:href="#DejaVuSans-73"/>
     </g>
    </g>
   </g>
  </g>
  <g id="axes_3">
   <g id="patch_30">
    <path d="M 498.482609 157.02025 
L 619.786957 157.02025 
L 619.786957 26.55625 
L 498.482609 26.55625 
z
" style="fill:#ffffff;"/>
   </g>
   <g id="matplotlib.axis_5">
    <g id="xtick_3">
     <g id="line2d_58">
      <g>
       <use style="fill:#262626;stroke:#262626;stroke-width:1.25;" x="498.482609" xlink:href="#m79e44d204f" y="157.02025"/>
      </g>
     </g>
     <g id="text_25">
      <!-- 0.0 -->
      <g style="fill:#262626;" transform="translate(489.73589 174.878531)scale(0.11 -0.11)">
       <defs>
        <path d="M 684 794 
L 1344 794 
L 1344 0 
L 684 0 
L 684 794 
z
" id="DejaVuSans-2e" transform="scale(0.015625)"/>
       </defs>
       <use xlink:href="#DejaVuSans-30"/>
       <use x="63.623047" xlink:href="#DejaVuSans-2e"/>
       <use x="95.410156" xlink:href="#DejaVuSans-30"/>
      </g>
     </g>
    </g>
    <g id="xtick_4">
     <g id="line2d_59">
      <g>
       <use style="fill:#262626;stroke:#262626;stroke-width:1.25;" x="559.134783" xlink:href="#m79e44d204f" y="157.02025"/>
      </g>
     </g>
     <g id="text_26">
      <!-- 0.5 -->
      <g style="fill:#262626;" transform="translate(550.388064 174.878531)scale(0.11 -0.11)">
       <defs>
        <path d="M 691 4666 
L 3169 4666 
L 3169 4134 
L 1269 4134 
L 1269 2991 
Q 1406 3038 1543 3061 
Q 1681 3084 1819 3084 
Q 2600 3084 3056 2656 
Q 3513 2228 3513 1497 
Q 3513 744 3044 326 
Q 2575 -91 1722 -91 
Q 1428 -91 1123 -41 
Q 819 9 494 109 
L 494 744 
Q 775 591 1075 516 
Q 1375 441 1709 441 
Q 2250 441 2565 725 
Q 2881 1009 2881 1497 
Q 2881 1984 2565 2268 
Q 2250 2553 1709 2553 
Q 1456 2553 1204 2497 
Q 953 2441 691 2322 
L 691 4666 
z
" id="DejaVuSans-35" transform="scale(0.015625)"/>
       </defs>
       <use xlink:href="#DejaVuSans-30"/>
       <use x="63.623047" xlink:href="#DejaVuSans-2e"/>
       <use x="95.410156" xlink:href="#DejaVuSans-35"/>
      </g>
     </g>
    </g>
    <g id="xtick_5">
     <g id="line2d_60">
      <g>
       <use style="fill:#262626;stroke:#262626;stroke-width:1.25;" x="619.786957" xlink:href="#m79e44d204f" y="157.02025"/>
      </g>
     </g>
     <g id="text_27">
      <!-- 1.0 -->
      <g style="fill:#262626;" transform="translate(611.040238 174.878531)scale(0.11 -0.11)">
       <use xlink:href="#DejaVuSans-31"/>
       <use x="63.623047" xlink:href="#DejaVuSans-2e"/>
       <use x="95.410156" xlink:href="#DejaVuSans-30"/>
      </g>
     </g>
    </g>
    <g id="text_28">
     <!-- knowledge broadness -->
     <g style="fill:#262626;" transform="translate(493.66072 190.284312)scale(0.12 -0.12)">
      <defs>
       <path d="M 581 4863 
L 1159 4863 
L 1159 1991 
L 2875 3500 
L 3609 3500 
L 1753 1863 
L 3688 0 
L 2938 0 
L 1159 1709 
L 1159 0 
L 581 0 
L 581 4863 
z
" id="DejaVuSans-6b" transform="scale(0.015625)"/>
       <path d="M 269 3500 
L 844 3500 
L 1563 769 
L 2278 3500 
L 2956 3500 
L 3675 769 
L 4391 3500 
L 4966 3500 
L 4050 0 
L 3372 0 
L 2619 2869 
L 1863 0 
L 1184 0 
L 269 3500 
z
" id="DejaVuSans-77" transform="scale(0.015625)"/>
       <path d="M 3116 1747 
Q 3116 2381 2855 2742 
Q 2594 3103 2138 3103 
Q 1681 3103 1420 2742 
Q 1159 2381 1159 1747 
Q 1159 1113 1420 752 
Q 1681 391 2138 391 
Q 2594 391 2855 752 
Q 3116 1113 3116 1747 
z
M 1159 2969 
Q 1341 3281 1617 3432 
Q 1894 3584 2278 3584 
Q 2916 3584 3314 3078 
Q 3713 2572 3713 1747 
Q 3713 922 3314 415 
Q 2916 -91 2278 -91 
Q 1894 -91 1617 61 
Q 1341 213 1159 525 
L 1159 0 
L 581 0 
L 581 4863 
L 1159 4863 
L 1159 2969 
z
" id="DejaVuSans-62" transform="scale(0.015625)"/>
      </defs>
      <use xlink:href="#DejaVuSans-6b"/>
      <use x="57.910156" xlink:href="#DejaVuSans-6e"/>
      <use x="121.289062" xlink:href="#DejaVuSans-6f"/>
      <use x="182.470703" xlink:href="#DejaVuSans-77"/>
      <use x="264.257812" xlink:href="#DejaVuSans-6c"/>
      <use x="292.041016" xlink:href="#DejaVuSans-65"/>
      <use x="353.564453" xlink:href="#DejaVuSans-64"/>
      <use x="417.041016" xlink:href="#DejaVuSans-67"/>
      <use x="480.517578" xlink:href="#DejaVuSans-65"/>
      <use x="542.041016" xlink:href="#DejaVuSans-20"/>
      <use x="573.828125" xlink:href="#DejaVuSans-62"/>
      <use x="637.304688" xlink:href="#DejaVuSans-72"/>
      <use x="676.167969" xlink:href="#DejaVuSans-6f"/>
      <use x="737.349609" xlink:href="#DejaVuSans-61"/>
      <use x="798.628906" xlink:href="#DejaVuSans-64"/>
      <use x="862.105469" xlink:href="#DejaVuSans-6e"/>
      <use x="925.484375" xlink:href="#DejaVuSans-65"/>
      <use x="987.007812" xlink:href="#DejaVuSans-73"/>
      <use x="1039.107422" xlink:href="#DejaVuSans-73"/>
     </g>
    </g>
   </g>
   <g id="matplotlib.axis_6">
    <g id="ytick_11">
     <g id="line2d_61">
      <g>
       <use style="fill:#262626;stroke:#262626;stroke-width:1.25;" x="498.482609" xlink:href="#mb151ca0116" y="140.167487"/>
      </g>
     </g>
     <g id="text_29">
      <!-- 1.6 -->
      <g style="fill:#262626;" transform="translate(471.489171 144.346628)scale(0.11 -0.11)">
       <defs>
        <path d="M 2113 2584 
Q 1688 2584 1439 2293 
Q 1191 2003 1191 1497 
Q 1191 994 1439 701 
Q 1688 409 2113 409 
Q 2538 409 2786 701 
Q 3034 994 3034 1497 
Q 3034 2003 2786 2293 
Q 2538 2584 2113 2584 
z
M 3366 4563 
L 3366 3988 
Q 3128 4100 2886 4159 
Q 2644 4219 2406 4219 
Q 1781 4219 1451 3797 
Q 1122 3375 1075 2522 
Q 1259 2794 1537 2939 
Q 1816 3084 2150 3084 
Q 2853 3084 3261 2657 
Q 3669 2231 3669 1497 
Q 3669 778 3244 343 
Q 2819 -91 2113 -91 
Q 1303 -91 875 529 
Q 447 1150 447 2328 
Q 447 3434 972 4092 
Q 1497 4750 2381 4750 
Q 2619 4750 2861 4703 
Q 3103 4656 3366 4563 
z
" id="DejaVuSans-36" transform="scale(0.015625)"/>
       </defs>
       <use xlink:href="#DejaVuSans-31"/>
       <use x="63.623047" xlink:href="#DejaVuSans-2e"/>
       <use x="95.410156" xlink:href="#DejaVuSans-36"/>
      </g>
     </g>
    </g>
    <g id="ytick_12">
     <g id="line2d_62">
      <g>
       <use style="fill:#262626;stroke:#262626;stroke-width:1.25;" x="498.482609" xlink:href="#mb151ca0116" y="113.040637"/>
      </g>
     </g>
     <g id="text_30">
      <!-- 1.8 -->
      <g style="fill:#262626;" transform="translate(471.489171 117.219778)scale(0.11 -0.11)">
       <defs>
        <path d="M 2034 2216 
Q 1584 2216 1326 1975 
Q 1069 1734 1069 1313 
Q 1069 891 1326 650 
Q 1584 409 2034 409 
Q 2484 409 2743 651 
Q 3003 894 3003 1313 
Q 3003 1734 2745 1975 
Q 2488 2216 2034 2216 
z
M 1403 2484 
Q 997 2584 770 2862 
Q 544 3141 544 3541 
Q 544 4100 942 4425 
Q 1341 4750 2034 4750 
Q 2731 4750 3128 4425 
Q 3525 4100 3525 3541 
Q 3525 3141 3298 2862 
Q 3072 2584 2669 2484 
Q 3125 2378 3379 2068 
Q 3634 1759 3634 1313 
Q 3634 634 3220 271 
Q 2806 -91 2034 -91 
Q 1263 -91 848 271 
Q 434 634 434 1313 
Q 434 1759 690 2068 
Q 947 2378 1403 2484 
z
M 1172 3481 
Q 1172 3119 1398 2916 
Q 1625 2713 2034 2713 
Q 2441 2713 2670 2916 
Q 2900 3119 2900 3481 
Q 2900 3844 2670 4047 
Q 2441 4250 2034 4250 
Q 1625 4250 1398 4047 
Q 1172 3844 1172 3481 
z
" id="DejaVuSans-38" transform="scale(0.015625)"/>
       </defs>
       <use xlink:href="#DejaVuSans-31"/>
       <use x="63.623047" xlink:href="#DejaVuSans-2e"/>
       <use x="95.410156" xlink:href="#DejaVuSans-38"/>
      </g>
     </g>
    </g>
    <g id="ytick_13">
     <g id="line2d_63">
      <g>
       <use style="fill:#262626;stroke:#262626;stroke-width:1.25;" x="498.482609" xlink:href="#mb151ca0116" y="85.913787"/>
      </g>
     </g>
     <g id="text_31">
      <!-- 2.0 -->
      <g style="fill:#262626;" transform="translate(471.489171 90.092927)scale(0.11 -0.11)">
       <use xlink:href="#DejaVuSans-32"/>
       <use x="63.623047" xlink:href="#DejaVuSans-2e"/>
       <use x="95.410156" xlink:href="#DejaVuSans-30"/>
      </g>
     </g>
    </g>
    <g id="ytick_14">
     <g id="line2d_64">
      <g>
       <use style="fill:#262626;stroke:#262626;stroke-width:1.25;" x="498.482609" xlink:href="#mb151ca0116" y="58.786936"/>
      </g>
     </g>
     <g id="text_32">
      <!-- 2.2 -->
      <g style="fill:#262626;" transform="translate(471.489171 62.966077)scale(0.11 -0.11)">
       <use xlink:href="#DejaVuSans-32"/>
       <use x="63.623047" xlink:href="#DejaVuSans-2e"/>
       <use x="95.410156" xlink:href="#DejaVuSans-32"/>
      </g>
     </g>
    </g>
    <g id="ytick_15">
     <g id="line2d_65">
      <g>
       <use style="fill:#262626;stroke:#262626;stroke-width:1.25;" x="498.482609" xlink:href="#mb151ca0116" y="31.660086"/>
      </g>
     </g>
     <g id="text_33">
      <!-- 2.4 -->
      <g style="fill:#262626;" transform="translate(471.489171 35.839227)scale(0.11 -0.11)">
       <use xlink:href="#DejaVuSans-32"/>
       <use x="63.623047" xlink:href="#DejaVuSans-2e"/>
       <use x="95.410156" xlink:href="#DejaVuSans-34"/>
      </g>
     </g>
    </g>
    <g id="text_34">
     <!-- productivity -->
     <g style="fill:#262626;" transform="translate(464.993546 127.651375)rotate(-90)scale(0.12 -0.12)">
      <use xlink:href="#DejaVuSans-70"/>
      <use x="63.476562" xlink:href="#DejaVuSans-72"/>
      <use x="102.339844" xlink:href="#DejaVuSans-6f"/>
      <use x="163.521484" xlink:href="#DejaVuSans-64"/>
      <use x="226.998047" xlink:href="#DejaVuSans-75"/>
      <use x="290.376953" xlink:href="#DejaVuSans-63"/>
      <use x="345.357422" xlink:href="#DejaVuSans-74"/>
      <use x="384.566406" xlink:href="#DejaVuSans-69"/>
      <use x="412.349609" xlink:href="#DejaVuSans-76"/>
      <use x="471.529297" xlink:href="#DejaVuSans-69"/>
      <use x="499.3125" xlink:href="#DejaVuSans-74"/>
      <use x="538.521484" xlink:href="#DejaVuSans-79"/>
     </g>
    </g>
   </g>
   <g id="PolyCollection_1">
    <defs>
     <path d="M 504.547826 -195.642568 
L 504.547826 -182.08483 
L 516.678261 -139.428889 
L 528.808696 -110.367108 
L 540.93913 -80.011756 
L 553.069565 -77.038932 
L 565.2 -90.727861 
L 577.330435 -109.854347 
L 589.46087 -106.450748 
L 601.591304 -108.42609 
L 613.721739 -100.811923 
L 613.721739 -184.356147 
L 613.721739 -184.356147 
L 601.591304 -120.986869 
L 589.46087 -111.661196 
L 577.330435 -113.096148 
L 565.2 -93.113584 
L 553.069565 -79.293003 
L 540.93913 -83.975193 
L 528.808696 -123.56815 
L 516.678261 -152.955052 
L 504.547826 -195.642568 
z
" id="mf8d09b57e0" style="stroke:#61aa90;stroke-opacity:0.2;"/>
    </defs>
    <g clip-path="url(#pd977bfddcf)">
     <use style="fill:#61aa90;fill-opacity:0.2;stroke:#61aa90;stroke-opacity:0.2;" x="0" xlink:href="#mf8d09b57e0" y="228.129"/>
    </g>
   </g>
   <g id="PolyCollection_2">
    <defs>
     <path d="M 504.547826 -176.108889 
L 504.547826 -164.204803 
L 516.678261 -160.509791 
L 528.808696 -138.858114 
L 540.93913 -105.436687 
L 553.069565 -89.443754 
L 565.2 -91.936482 
L 577.330435 -105.92194 
L 589.46087 -104.312707 
L 601.591304 -93.570663 
L 613.721739 -95.623757 
L 613.721739 -135.810232 
L 613.721739 -135.810232 
L 601.591304 -101.056811 
L 589.46087 -107.987311 
L 577.330435 -108.501882 
L 565.2 -94.499197 
L 553.069565 -92.820142 
L 540.93913 -114.337189 
L 528.808696 -154.880429 
L 516.678261 -172.58704 
L 504.547826 -176.108889 
z
" id="m42627000f2" style="stroke:#33858d;stroke-opacity:0.2;"/>
    </defs>
    <g clip-path="url(#pd977bfddcf)">
     <use style="fill:#33858d;fill-opacity:0.2;stroke:#33858d;stroke-opacity:0.2;" x="0" xlink:href="#m42627000f2" y="228.129"/>
    </g>
   </g>
   <g id="PolyCollection_3">
    <defs>
     <path d="M 504.547826 -194.273845 
L 504.547826 -158.644227 
L 516.678261 -159.995214 
L 528.808696 -162.221967 
L 540.93913 -154.0637 
L 553.069565 -127.904245 
L 565.2 -107.156317 
L 577.330435 -112.362292 
L 589.46087 -113.028183 
L 601.591304 -106.400814 
L 613.721739 -100.348131 
L 613.721739 -118.959262 
L 613.721739 -118.959262 
L 601.591304 -111.61927 
L 589.46087 -115.769309 
L 577.330435 -114.881072 
L 565.2 -110.831953 
L 553.069565 -135.097355 
L 540.93913 -164.108687 
L 528.808696 -174.148765 
L 516.678261 -172.785298 
L 504.547826 -194.273845 
z
" id="m05faa3ed97" style="stroke:#1e5d86;stroke-opacity:0.2;"/>
    </defs>
    <g clip-path="url(#pd977bfddcf)">
     <use style="fill:#1e5d86;fill-opacity:0.2;stroke:#1e5d86;stroke-opacity:0.2;" x="0" xlink:href="#m05faa3ed97" y="228.129"/>
    </g>
   </g>
   <g id="line2d_66">
    <path clip-path="url(#pd977bfddcf)" d="M 504.547826 39.627395 
L 516.678261 82.011722 
L 528.808696 111.254323 
L 540.93913 146.133028 
L 553.069565 150.002391 
L 565.2 136.251346 
L 577.330435 116.740548 
L 589.46087 119.040077 
L 601.591304 113.467838 
L 613.721739 88.389047 
" style="fill:none;stroke:#61aa90;stroke-linecap:round;stroke-width:1.5;"/>
   </g>
   <g id="line2d_67">
    <path clip-path="url(#pd977bfddcf)" d="M 504.547826 58.072967 
L 516.678261 61.428161 
L 528.808696 81.624959 
L 540.93913 118.111448 
L 553.069565 136.970015 
L 565.2 134.943748 
L 577.330435 120.963181 
L 589.46087 121.948247 
L 601.591304 131.124789 
L 613.721739 113.529186 
" style="fill:none;stroke:#33858d;stroke-linecap:round;stroke-width:1.5;"/>
   </g>
   <g id="line2d_68">
    <path clip-path="url(#pd977bfddcf)" d="M 504.547826 51.591837 
L 516.678261 61.719243 
L 528.808696 60.34112 
L 540.93913 69.109353 
L 553.069565 96.707065 
L 565.2 119.209405 
L 577.330435 114.535218 
L 589.46087 113.749495 
L 601.591304 119.136809 
L 613.721739 118.745175 
" style="fill:none;stroke:#1e5d86;stroke-linecap:round;stroke-width:1.5;"/>
   </g>
   <g id="line2d_69"/>
   <g id="line2d_70"/>
   <g id="line2d_71"/>
   <g id="patch_31">
    <path d="M 498.482609 157.02025 
L 498.482609 26.55625 
" style="fill:none;stroke:#262626;stroke-linecap:square;stroke-linejoin:miter;stroke-width:1.25;"/>
   </g>
   <g id="patch_32">
    <path d="M 498.482609 157.02025 
L 619.786957 157.02025 
" style="fill:none;stroke:#262626;stroke-linecap:square;stroke-linejoin:miter;stroke-width:1.25;"/>
   </g>
   <g id="text_35">
    <!-- c) -->
    <g style="fill:#262626;" transform="translate(443.895652 22.396875)scale(0.2 -0.2)">
     <defs>
      <path d="M 3291 997 
Q 3169 466 2822 187 
Q 2475 -91 1925 -91 
Q 1200 -91 759 389 
Q 319 869 319 1663 
Q 319 2459 759 2936 
Q 1200 3413 1925 3413 
Q 2241 3413 2553 3339 
Q 2866 3266 3181 3116 
L 3181 2266 
L 2847 2266 
Q 2781 2703 2561 2903 
Q 2341 3103 1931 3103 
Q 1466 3103 1228 2742 
Q 991 2381 991 1663 
Q 991 944 1227 581 
Q 1463 219 1931 219 
Q 2303 219 2525 412 
Q 2747 606 2828 997 
L 3291 997 
z
" id="DejaVuSerif-63" transform="scale(0.015625)"/>
     </defs>
     <use xlink:href="#DejaVuSerif-63"/>
     <use x="56.005859" xlink:href="#DejaVuSerif-29"/>
    </g>
   </g>
   <g id="legend_2">
    <g id="patch_33">
     <path d="M 564.734783 88.8845 
L 623.213533 88.8845 
Q 624.813533 88.8845 624.813533 87.2845 
L 624.813533 32.15625 
Q 624.813533 30.55625 623.213533 30.55625 
L 564.734783 30.55625 
Q 563.134783 30.55625 563.134783 32.15625 
L 563.134783 87.2845 
Q 563.134783 88.8845 564.734783 88.8845 
z
" style="fill:#ffffff;opacity:0.35;stroke:#cccccc;stroke-linejoin:miter;"/>
    </g>
    <g id="text_36">
     <!-- core diversity -->
     <g style="fill:#262626;" transform="translate(566.786033 39.835)scale(0.08 -0.08)">
      <use xlink:href="#DejaVuSans-63"/>
      <use x="54.980469" xlink:href="#DejaVuSans-6f"/>
      <use x="116.162109" xlink:href="#DejaVuSans-72"/>
      <use x="155.025391" xlink:href="#DejaVuSans-65"/>
      <use x="216.548828" xlink:href="#DejaVuSans-20"/>
      <use x="248.335938" xlink:href="#DejaVuSans-64"/>
      <use x="311.8125" xlink:href="#DejaVuSans-69"/>
      <use x="339.595703" xlink:href="#DejaVuSans-76"/>
      <use x="398.775391" xlink:href="#DejaVuSans-65"/>
      <use x="460.298828" xlink:href="#DejaVuSans-72"/>
      <use x="501.412109" xlink:href="#DejaVuSans-73"/>
      <use x="553.511719" xlink:href="#DejaVuSans-69"/>
      <use x="581.294922" xlink:href="#DejaVuSans-74"/>
      <use x="620.503906" xlink:href="#DejaVuSans-79"/>
     </g>
     <!-- (quartiles) -->
     <g style="fill:#262626;" transform="translate(566.786033 48.79325)scale(0.08 -0.08)">
      <defs>
       <path d="M 1984 4856 
Q 1566 4138 1362 3434 
Q 1159 2731 1159 2009 
Q 1159 1288 1364 580 
Q 1569 -128 1984 -844 
L 1484 -844 
Q 1016 -109 783 600 
Q 550 1309 550 2009 
Q 550 2706 781 3412 
Q 1013 4119 1484 4856 
L 1984 4856 
z
" id="DejaVuSans-28" transform="scale(0.015625)"/>
       <path d="M 947 1747 
Q 947 1113 1208 752 
Q 1469 391 1925 391 
Q 2381 391 2643 752 
Q 2906 1113 2906 1747 
Q 2906 2381 2643 2742 
Q 2381 3103 1925 3103 
Q 1469 3103 1208 2742 
Q 947 2381 947 1747 
z
M 2906 525 
Q 2725 213 2448 61 
Q 2172 -91 1784 -91 
Q 1150 -91 751 415 
Q 353 922 353 1747 
Q 353 2572 751 3078 
Q 1150 3584 1784 3584 
Q 2172 3584 2448 3432 
Q 2725 3281 2906 2969 
L 2906 3500 
L 3481 3500 
L 3481 -1331 
L 2906 -1331 
L 2906 525 
z
" id="DejaVuSans-71" transform="scale(0.015625)"/>
       <path d="M 513 4856 
L 1013 4856 
Q 1481 4119 1714 3412 
Q 1947 2706 1947 2009 
Q 1947 1309 1714 600 
Q 1481 -109 1013 -844 
L 513 -844 
Q 928 -128 1133 580 
Q 1338 1288 1338 2009 
Q 1338 2731 1133 3434 
Q 928 4138 513 4856 
z
" id="DejaVuSans-29" transform="scale(0.015625)"/>
      </defs>
      <use xlink:href="#DejaVuSans-28"/>
      <use x="39.013672" xlink:href="#DejaVuSans-71"/>
      <use x="102.490234" xlink:href="#DejaVuSans-75"/>
      <use x="165.869141" xlink:href="#DejaVuSans-61"/>
      <use x="227.148438" xlink:href="#DejaVuSans-72"/>
      <use x="268.261719" xlink:href="#DejaVuSans-74"/>
      <use x="307.470703" xlink:href="#DejaVuSans-69"/>
      <use x="335.253906" xlink:href="#DejaVuSans-6c"/>
      <use x="363.037109" xlink:href="#DejaVuSans-65"/>
      <use x="424.560547" xlink:href="#DejaVuSans-73"/>
      <use x="476.660156" xlink:href="#DejaVuSans-29"/>
     </g>
    </g>
    <g id="line2d_72">
     <path d="M 566.334783 57.73575 
L 582.334783 57.73575 
" style="fill:none;stroke:#61aa90;stroke-linecap:round;stroke-width:1.5;"/>
    </g>
    <g id="line2d_73"/>
    <g id="text_37">
     <!-- low -->
     <g style="fill:#262626;" transform="translate(588.734783 60.53575)scale(0.08 -0.08)">
      <use xlink:href="#DejaVuSans-6c"/>
      <use x="27.783203" xlink:href="#DejaVuSans-6f"/>
      <use x="88.964844" xlink:href="#DejaVuSans-77"/>
     </g>
    </g>
    <g id="line2d_74">
     <path d="M 566.334783 69.47825 
L 582.334783 69.47825 
" style="fill:none;stroke:#33858d;stroke-linecap:round;stroke-width:1.5;"/>
    </g>
    <g id="line2d_75"/>
    <g id="text_38">
     <!-- medium -->
     <g style="fill:#262626;" transform="translate(588.734783 72.27825)scale(0.08 -0.08)">
      <use xlink:href="#DejaVuSans-6d"/>
      <use x="97.412109" xlink:href="#DejaVuSans-65"/>
      <use x="158.935547" xlink:href="#DejaVuSans-64"/>
      <use x="222.412109" xlink:href="#DejaVuSans-69"/>
      <use x="250.195312" xlink:href="#DejaVuSans-75"/>
      <use x="313.574219" xlink:href="#DejaVuSans-6d"/>
     </g>
    </g>
    <g id="line2d_76">
     <path d="M 566.334783 81.22075 
L 582.334783 81.22075 
" style="fill:none;stroke:#1e5d86;stroke-linecap:round;stroke-width:1.5;"/>
    </g>
    <g id="line2d_77"/>
    <g id="text_39">
     <!-- high -->
     <g style="fill:#262626;" transform="translate(588.734783 84.02075)scale(0.08 -0.08)">
      <defs>
       <path d="M 3513 2113 
L 3513 0 
L 2938 0 
L 2938 2094 
Q 2938 2591 2744 2837 
Q 2550 3084 2163 3084 
Q 1697 3084 1428 2787 
Q 1159 2491 1159 1978 
L 1159 0 
L 581 0 
L 581 4863 
L 1159 4863 
L 1159 2956 
Q 1366 3272 1645 3428 
Q 1925 3584 2291 3584 
Q 2894 3584 3203 3211 
Q 3513 2838 3513 2113 
z
" id="DejaVuSans-68" transform="scale(0.015625)"/>
      </defs>
      <use xlink:href="#DejaVuSans-68"/>
      <use x="63.378906" xlink:href="#DejaVuSans-69"/>
      <use x="91.162109" xlink:href="#DejaVuSans-67"/>
      <use x="154.638672" xlink:href="#DejaVuSans-68"/>
     </g>
    </g>
   </g>
  </g>
 </g>
 <defs>
  <clipPath id="p927b93ec8d">
   <rect height="130.464" width="121.304348" x="61.786957" y="26.55625"/>
  </clipPath>
  <clipPath id="pb113b16423">
   <rect height="130.464" width="121.304348" x="280.134783" y="26.55625"/>
  </clipPath>
  <clipPath id="pd977bfddcf">
   <rect height="130.464" width="121.304348" x="498.482609" y="26.55625"/>
  </clipPath>
 </defs>
</svg>
