<?xml version="1.0" encoding="utf-8" standalone="no"?>
<!DOCTYPE svg PUBLIC "-//W3C//DTD SVG 1.1//EN"
  "http://www.w3.org/Graphics/SVG/1.1/DTD/svg11.dtd">
<svg height="236.605187pt" version="1.1" viewBox="0 0 793.607143 236.605187" width="793.607143pt" xmlns="http://www.w3.org/2000/svg" xmlns:xlink="http://www.w3.org/1999/xlink">
 <metadata>
  <rdf:RDF xmlns:cc="http://creativecommons.org/ns#" xmlns:dc="http://purl.org/dc/elements/1.1/" xmlns:rdf="http://www.w3.org/1999/02/22-rdf-syntax-ns#">
   <cc:Work>
    <dc:type rdf:resource="http://purl.org/dc/dcmitype/StillImage"/>
    <dc:date>2024-02-17T21:29:03.082929</dc:date>
    <dc:format>image/svg+xml</dc:format>
    <dc:creator>
     <cc:Agent>
      <dc:title>Matplotlib v3.4.1, https://matplotlib.org/</dc:title>
     </cc:Agent>
    </dc:creator>
   </cc:Work>
  </rdf:RDF>
 </metadata>
 <defs>
  <style type="text/css">*{stroke-linecap:butt;stroke-linejoin:round;}</style>
 </defs>
 <g id="figure_1">
  <g id="patch_1">
   <path d="M 0 236.605187 
L 793.607143 236.605187 
L 793.607143 0 
L 0 0 
z
" style="fill:#ffffff;"/>
  </g>
  <g id="axes_1">
   <g id="patch_2">
    <path d="M 116.807143 193.6455 
L 316.092857 193.6455 
L 316.092857 30.5655 
L 116.807143 30.5655 
z
" style="fill:#ffffff;"/>
   </g>
   <g id="matplotlib.axis_1">
    <g id="xtick_1">
     <g id="line2d_1">
      <defs>
       <path d="M 0 0 
L 0 6 
" id="mfb42b15f61" style="stroke:#262626;stroke-width:1.25;"/>
      </defs>
      <g>
       <use style="fill:#262626;stroke:#262626;stroke-width:1.25;" x="125.865584" xlink:href="#mfb42b15f61" y="193.6455"/>
      </g>
     </g>
     <g id="text_1">
      <!-- 0 -->
      <g style="fill:#262626;" transform="translate(122.366209 211.503781)scale(0.11 -0.11)">
       <defs>
        <path d="M 2034 4250 
Q 1547 4250 1301 3770 
Q 1056 3291 1056 2328 
Q 1056 1369 1301 889 
Q 1547 409 2034 409 
Q 2525 409 2770 889 
Q 3016 1369 3016 2328 
Q 3016 3291 2770 3770 
Q 2525 4250 2034 4250 
z
M 2034 4750 
Q 2819 4750 3233 4129 
Q 3647 3509 3647 2328 
Q 3647 1150 3233 529 
Q 2819 -91 2034 -91 
Q 1250 -91 836 529 
Q 422 1150 422 2328 
Q 422 3509 836 4129 
Q 1250 4750 2034 4750 
z
" id="DejaVuSans-30" transform="scale(0.015625)"/>
       </defs>
       <use xlink:href="#DejaVuSans-30"/>
      </g>
     </g>
    </g>
    <g id="xtick_2">
     <g id="line2d_2">
      <g>
       <use style="fill:#262626;stroke:#262626;stroke-width:1.25;" x="177.628108" xlink:href="#mfb42b15f61" y="193.6455"/>
      </g>
     </g>
     <g id="text_2">
      <!-- 2 -->
      <g style="fill:#262626;" transform="translate(174.128733 211.503781)scale(0.11 -0.11)">
       <defs>
        <path d="M 1228 531 
L 3431 531 
L 3431 0 
L 469 0 
L 469 531 
Q 828 903 1448 1529 
Q 2069 2156 2228 2338 
Q 2531 2678 2651 2914 
Q 2772 3150 2772 3378 
Q 2772 3750 2511 3984 
Q 2250 4219 1831 4219 
Q 1534 4219 1204 4116 
Q 875 4013 500 3803 
L 500 4441 
Q 881 4594 1212 4672 
Q 1544 4750 1819 4750 
Q 2544 4750 2975 4387 
Q 3406 4025 3406 3419 
Q 3406 3131 3298 2873 
Q 3191 2616 2906 2266 
Q 2828 2175 2409 1742 
Q 1991 1309 1228 531 
z
" id="DejaVuSans-32" transform="scale(0.015625)"/>
       </defs>
       <use xlink:href="#DejaVuSans-32"/>
      </g>
     </g>
    </g>
    <g id="xtick_3">
     <g id="line2d_3">
      <g>
       <use style="fill:#262626;stroke:#262626;stroke-width:1.25;" x="229.390631" xlink:href="#mfb42b15f61" y="193.6455"/>
      </g>
     </g>
     <g id="text_3">
      <!-- 4 -->
      <g style="fill:#262626;" transform="translate(225.891256 211.503781)scale(0.11 -0.11)">
       <defs>
        <path d="M 2419 4116 
L 825 1625 
L 2419 1625 
L 2419 4116 
z
M 2253 4666 
L 3047 4666 
L 3047 1625 
L 3713 1625 
L 3713 1100 
L 3047 1100 
L 3047 0 
L 2419 0 
L 2419 1100 
L 313 1100 
L 313 1709 
L 2253 4666 
z
" id="DejaVuSans-34" transform="scale(0.015625)"/>
       </defs>
       <use xlink:href="#DejaVuSans-34"/>
      </g>
     </g>
    </g>
    <g id="xtick_4">
     <g id="line2d_4">
      <g>
       <use style="fill:#262626;stroke:#262626;stroke-width:1.25;" x="281.153154" xlink:href="#mfb42b15f61" y="193.6455"/>
      </g>
     </g>
     <g id="text_4">
      <!-- 6 -->
      <g style="fill:#262626;" transform="translate(277.653779 211.503781)scale(0.11 -0.11)">
       <defs>
        <path d="M 2113 2584 
Q 1688 2584 1439 2293 
Q 1191 2003 1191 1497 
Q 1191 994 1439 701 
Q 1688 409 2113 409 
Q 2538 409 2786 701 
Q 3034 994 3034 1497 
Q 3034 2003 2786 2293 
Q 2538 2584 2113 2584 
z
M 3366 4563 
L 3366 3988 
Q 3128 4100 2886 4159 
Q 2644 4219 2406 4219 
Q 1781 4219 1451 3797 
Q 1122 3375 1075 2522 
Q 1259 2794 1537 2939 
Q 1816 3084 2150 3084 
Q 2853 3084 3261 2657 
Q 3669 2231 3669 1497 
Q 3669 778 3244 343 
Q 2819 -91 2113 -91 
Q 1303 -91 875 529 
Q 447 1150 447 2328 
Q 447 3434 972 4092 
Q 1497 4750 2381 4750 
Q 2619 4750 2861 4703 
Q 3103 4656 3366 4563 
z
" id="DejaVuSans-36" transform="scale(0.015625)"/>
       </defs>
       <use xlink:href="#DejaVuSans-36"/>
      </g>
     </g>
    </g>
    <g id="text_5">
     <!-- number of non-core members -->
     <g style="fill:#262626;" transform="translate(126.620625 226.909562)scale(0.12 -0.12)">
      <defs>
       <path d="M 3513 2113 
L 3513 0 
L 2938 0 
L 2938 2094 
Q 2938 2591 2744 2837 
Q 2550 3084 2163 3084 
Q 1697 3084 1428 2787 
Q 1159 2491 1159 1978 
L 1159 0 
L 581 0 
L 581 3500 
L 1159 3500 
L 1159 2956 
Q 1366 3272 1645 3428 
Q 1925 3584 2291 3584 
Q 2894 3584 3203 3211 
Q 3513 2838 3513 2113 
z
" id="DejaVuSans-6e" transform="scale(0.015625)"/>
       <path d="M 544 1381 
L 544 3500 
L 1119 3500 
L 1119 1403 
Q 1119 906 1312 657 
Q 1506 409 1894 409 
Q 2359 409 2629 706 
Q 2900 1003 2900 1516 
L 2900 3500 
L 3475 3500 
L 3475 0 
L 2900 0 
L 2900 538 
Q 2691 219 2414 64 
Q 2138 -91 1772 -91 
Q 1169 -91 856 284 
Q 544 659 544 1381 
z
M 1991 3584 
L 1991 3584 
z
" id="DejaVuSans-75" transform="scale(0.015625)"/>
       <path d="M 3328 2828 
Q 3544 3216 3844 3400 
Q 4144 3584 4550 3584 
Q 5097 3584 5394 3201 
Q 5691 2819 5691 2113 
L 5691 0 
L 5113 0 
L 5113 2094 
Q 5113 2597 4934 2840 
Q 4756 3084 4391 3084 
Q 3944 3084 3684 2787 
Q 3425 2491 3425 1978 
L 3425 0 
L 2847 0 
L 2847 2094 
Q 2847 2600 2669 2842 
Q 2491 3084 2119 3084 
Q 1678 3084 1418 2786 
Q 1159 2488 1159 1978 
L 1159 0 
L 581 0 
L 581 3500 
L 1159 3500 
L 1159 2956 
Q 1356 3278 1631 3431 
Q 1906 3584 2284 3584 
Q 2666 3584 2933 3390 
Q 3200 3197 3328 2828 
z
" id="DejaVuSans-6d" transform="scale(0.015625)"/>
       <path d="M 3116 1747 
Q 3116 2381 2855 2742 
Q 2594 3103 2138 3103 
Q 1681 3103 1420 2742 
Q 1159 2381 1159 1747 
Q 1159 1113 1420 752 
Q 1681 391 2138 391 
Q 2594 391 2855 752 
Q 3116 1113 3116 1747 
z
M 1159 2969 
Q 1341 3281 1617 3432 
Q 1894 3584 2278 3584 
Q 2916 3584 3314 3078 
Q 3713 2572 3713 1747 
Q 3713 922 3314 415 
Q 2916 -91 2278 -91 
Q 1894 -91 1617 61 
Q 1341 213 1159 525 
L 1159 0 
L 581 0 
L 581 4863 
L 1159 4863 
L 1159 2969 
z
" id="DejaVuSans-62" transform="scale(0.015625)"/>
       <path d="M 3597 1894 
L 3597 1613 
L 953 1613 
Q 991 1019 1311 708 
Q 1631 397 2203 397 
Q 2534 397 2845 478 
Q 3156 559 3463 722 
L 3463 178 
Q 3153 47 2828 -22 
Q 2503 -91 2169 -91 
Q 1331 -91 842 396 
Q 353 884 353 1716 
Q 353 2575 817 3079 
Q 1281 3584 2069 3584 
Q 2775 3584 3186 3129 
Q 3597 2675 3597 1894 
z
M 3022 2063 
Q 3016 2534 2758 2815 
Q 2500 3097 2075 3097 
Q 1594 3097 1305 2825 
Q 1016 2553 972 2059 
L 3022 2063 
z
" id="DejaVuSans-65" transform="scale(0.015625)"/>
       <path d="M 2631 2963 
Q 2534 3019 2420 3045 
Q 2306 3072 2169 3072 
Q 1681 3072 1420 2755 
Q 1159 2438 1159 1844 
L 1159 0 
L 581 0 
L 581 3500 
L 1159 3500 
L 1159 2956 
Q 1341 3275 1631 3429 
Q 1922 3584 2338 3584 
Q 2397 3584 2469 3576 
Q 2541 3569 2628 3553 
L 2631 2963 
z
" id="DejaVuSans-72" transform="scale(0.015625)"/>
       <path id="DejaVuSans-20" transform="scale(0.015625)"/>
       <path d="M 1959 3097 
Q 1497 3097 1228 2736 
Q 959 2375 959 1747 
Q 959 1119 1226 758 
Q 1494 397 1959 397 
Q 2419 397 2687 759 
Q 2956 1122 2956 1747 
Q 2956 2369 2687 2733 
Q 2419 3097 1959 3097 
z
M 1959 3584 
Q 2709 3584 3137 3096 
Q 3566 2609 3566 1747 
Q 3566 888 3137 398 
Q 2709 -91 1959 -91 
Q 1206 -91 779 398 
Q 353 888 353 1747 
Q 353 2609 779 3096 
Q 1206 3584 1959 3584 
z
" id="DejaVuSans-6f" transform="scale(0.015625)"/>
       <path d="M 2375 4863 
L 2375 4384 
L 1825 4384 
Q 1516 4384 1395 4259 
Q 1275 4134 1275 3809 
L 1275 3500 
L 2222 3500 
L 2222 3053 
L 1275 3053 
L 1275 0 
L 697 0 
L 697 3053 
L 147 3053 
L 147 3500 
L 697 3500 
L 697 3744 
Q 697 4328 969 4595 
Q 1241 4863 1831 4863 
L 2375 4863 
z
" id="DejaVuSans-66" transform="scale(0.015625)"/>
       <path d="M 313 2009 
L 1997 2009 
L 1997 1497 
L 313 1497 
L 313 2009 
z
" id="DejaVuSans-2d" transform="scale(0.015625)"/>
       <path d="M 3122 3366 
L 3122 2828 
Q 2878 2963 2633 3030 
Q 2388 3097 2138 3097 
Q 1578 3097 1268 2742 
Q 959 2388 959 1747 
Q 959 1106 1268 751 
Q 1578 397 2138 397 
Q 2388 397 2633 464 
Q 2878 531 3122 666 
L 3122 134 
Q 2881 22 2623 -34 
Q 2366 -91 2075 -91 
Q 1284 -91 818 406 
Q 353 903 353 1747 
Q 353 2603 823 3093 
Q 1294 3584 2113 3584 
Q 2378 3584 2631 3529 
Q 2884 3475 3122 3366 
z
" id="DejaVuSans-63" transform="scale(0.015625)"/>
       <path d="M 2834 3397 
L 2834 2853 
Q 2591 2978 2328 3040 
Q 2066 3103 1784 3103 
Q 1356 3103 1142 2972 
Q 928 2841 928 2578 
Q 928 2378 1081 2264 
Q 1234 2150 1697 2047 
L 1894 2003 
Q 2506 1872 2764 1633 
Q 3022 1394 3022 966 
Q 3022 478 2636 193 
Q 2250 -91 1575 -91 
Q 1294 -91 989 -36 
Q 684 19 347 128 
L 347 722 
Q 666 556 975 473 
Q 1284 391 1588 391 
Q 1994 391 2212 530 
Q 2431 669 2431 922 
Q 2431 1156 2273 1281 
Q 2116 1406 1581 1522 
L 1381 1569 
Q 847 1681 609 1914 
Q 372 2147 372 2553 
Q 372 3047 722 3315 
Q 1072 3584 1716 3584 
Q 2034 3584 2315 3537 
Q 2597 3491 2834 3397 
z
" id="DejaVuSans-73" transform="scale(0.015625)"/>
      </defs>
      <use xlink:href="#DejaVuSans-6e"/>
      <use x="63.378906" xlink:href="#DejaVuSans-75"/>
      <use x="126.757812" xlink:href="#DejaVuSans-6d"/>
      <use x="224.169922" xlink:href="#DejaVuSans-62"/>
      <use x="287.646484" xlink:href="#DejaVuSans-65"/>
      <use x="349.169922" xlink:href="#DejaVuSans-72"/>
      <use x="390.283203" xlink:href="#DejaVuSans-20"/>
      <use x="422.070312" xlink:href="#DejaVuSans-6f"/>
      <use x="483.251953" xlink:href="#DejaVuSans-66"/>
      <use x="518.457031" xlink:href="#DejaVuSans-20"/>
      <use x="550.244141" xlink:href="#DejaVuSans-6e"/>
      <use x="613.623047" xlink:href="#DejaVuSans-6f"/>
      <use x="674.804688" xlink:href="#DejaVuSans-6e"/>
      <use x="738.183594" xlink:href="#DejaVuSans-2d"/>
      <use x="774.267578" xlink:href="#DejaVuSans-63"/>
      <use x="829.248047" xlink:href="#DejaVuSans-6f"/>
      <use x="890.429688" xlink:href="#DejaVuSans-72"/>
      <use x="929.292969" xlink:href="#DejaVuSans-65"/>
      <use x="990.816406" xlink:href="#DejaVuSans-20"/>
      <use x="1022.603516" xlink:href="#DejaVuSans-6d"/>
      <use x="1120.015625" xlink:href="#DejaVuSans-65"/>
      <use x="1181.539062" xlink:href="#DejaVuSans-6d"/>
      <use x="1278.951172" xlink:href="#DejaVuSans-62"/>
      <use x="1342.427734" xlink:href="#DejaVuSans-65"/>
      <use x="1403.951172" xlink:href="#DejaVuSans-72"/>
      <use x="1445.064453" xlink:href="#DejaVuSans-73"/>
     </g>
    </g>
   </g>
   <g id="matplotlib.axis_2">
    <g id="ytick_1">
     <g id="line2d_5">
      <defs>
       <path d="M 0 0 
L -6 0 
" id="m41105fad8a" style="stroke:#262626;stroke-width:1.25;"/>
      </defs>
      <g>
       <use style="fill:#262626;stroke:#262626;stroke-width:1.25;" x="116.807143" xlink:href="#m41105fad8a" y="187.312952"/>
      </g>
     </g>
     <g id="text_6">
      <!-- 0 -->
      <g style="fill:#262626;" transform="translate(100.308393 191.492092)scale(0.11 -0.11)">
       <use xlink:href="#DejaVuSans-30"/>
      </g>
     </g>
    </g>
    <g id="ytick_2">
     <g id="line2d_6">
      <g>
       <use style="fill:#262626;stroke:#262626;stroke-width:1.25;" x="116.807143" xlink:href="#m41105fad8a" y="160.308481"/>
      </g>
     </g>
     <g id="text_7">
      <!-- 10 -->
      <g style="fill:#262626;" transform="translate(93.309643 164.487621)scale(0.11 -0.11)">
       <defs>
        <path d="M 794 531 
L 1825 531 
L 1825 4091 
L 703 3866 
L 703 4441 
L 1819 4666 
L 2450 4666 
L 2450 531 
L 3481 531 
L 3481 0 
L 794 0 
L 794 531 
z
" id="DejaVuSans-31" transform="scale(0.015625)"/>
       </defs>
       <use xlink:href="#DejaVuSans-31"/>
       <use x="63.623047" xlink:href="#DejaVuSans-30"/>
      </g>
     </g>
    </g>
    <g id="ytick_3">
     <g id="line2d_7">
      <g>
       <use style="fill:#262626;stroke:#262626;stroke-width:1.25;" x="116.807143" xlink:href="#m41105fad8a" y="133.30401"/>
      </g>
     </g>
     <g id="text_8">
      <!-- 20 -->
      <g style="fill:#262626;" transform="translate(93.309643 137.48315)scale(0.11 -0.11)">
       <use xlink:href="#DejaVuSans-32"/>
       <use x="63.623047" xlink:href="#DejaVuSans-30"/>
      </g>
     </g>
    </g>
    <g id="ytick_4">
     <g id="line2d_8">
      <g>
       <use style="fill:#262626;stroke:#262626;stroke-width:1.25;" x="116.807143" xlink:href="#m41105fad8a" y="106.299539"/>
      </g>
     </g>
     <g id="text_9">
      <!-- 30 -->
      <g style="fill:#262626;" transform="translate(93.309643 110.478679)scale(0.11 -0.11)">
       <defs>
        <path d="M 2597 2516 
Q 3050 2419 3304 2112 
Q 3559 1806 3559 1356 
Q 3559 666 3084 287 
Q 2609 -91 1734 -91 
Q 1441 -91 1130 -33 
Q 819 25 488 141 
L 488 750 
Q 750 597 1062 519 
Q 1375 441 1716 441 
Q 2309 441 2620 675 
Q 2931 909 2931 1356 
Q 2931 1769 2642 2001 
Q 2353 2234 1838 2234 
L 1294 2234 
L 1294 2753 
L 1863 2753 
Q 2328 2753 2575 2939 
Q 2822 3125 2822 3475 
Q 2822 3834 2567 4026 
Q 2313 4219 1838 4219 
Q 1578 4219 1281 4162 
Q 984 4106 628 3988 
L 628 4550 
Q 988 4650 1302 4700 
Q 1616 4750 1894 4750 
Q 2613 4750 3031 4423 
Q 3450 4097 3450 3541 
Q 3450 3153 3228 2886 
Q 3006 2619 2597 2516 
z
" id="DejaVuSans-33" transform="scale(0.015625)"/>
       </defs>
       <use xlink:href="#DejaVuSans-33"/>
       <use x="63.623047" xlink:href="#DejaVuSans-30"/>
      </g>
     </g>
    </g>
    <g id="ytick_5">
     <g id="line2d_9">
      <g>
       <use style="fill:#262626;stroke:#262626;stroke-width:1.25;" x="116.807143" xlink:href="#m41105fad8a" y="79.295068"/>
      </g>
     </g>
     <g id="text_10">
      <!-- 40 -->
      <g style="fill:#262626;" transform="translate(93.309643 83.474208)scale(0.11 -0.11)">
       <use xlink:href="#DejaVuSans-34"/>
       <use x="63.623047" xlink:href="#DejaVuSans-30"/>
      </g>
     </g>
    </g>
    <g id="ytick_6">
     <g id="line2d_10">
      <g>
       <use style="fill:#262626;stroke:#262626;stroke-width:1.25;" x="116.807143" xlink:href="#m41105fad8a" y="52.290597"/>
      </g>
     </g>
     <g id="text_11">
      <!-- 50 -->
      <g style="fill:#262626;" transform="translate(93.309643 56.469737)scale(0.11 -0.11)">
       <defs>
        <path d="M 691 4666 
L 3169 4666 
L 3169 4134 
L 1269 4134 
L 1269 2991 
Q 1406 3038 1543 3061 
Q 1681 3084 1819 3084 
Q 2600 3084 3056 2656 
Q 3513 2228 3513 1497 
Q 3513 744 3044 326 
Q 2575 -91 1722 -91 
Q 1428 -91 1123 -41 
Q 819 9 494 109 
L 494 744 
Q 775 591 1075 516 
Q 1375 441 1709 441 
Q 2250 441 2565 725 
Q 2881 1009 2881 1497 
Q 2881 1984 2565 2268 
Q 2250 2553 1709 2553 
Q 1456 2553 1204 2497 
Q 953 2441 691 2322 
L 691 4666 
z
" id="DejaVuSans-35" transform="scale(0.015625)"/>
       </defs>
       <use xlink:href="#DejaVuSans-35"/>
       <use x="63.623047" xlink:href="#DejaVuSans-30"/>
      </g>
     </g>
    </g>
    <g id="text_12">
     <!-- Percentage of papers by core -->
     <g style="fill:#262626;" transform="translate(86.814018 200.19675)rotate(-90)scale(0.12 -0.12)">
      <defs>
       <path d="M 1259 4147 
L 1259 2394 
L 2053 2394 
Q 2494 2394 2734 2622 
Q 2975 2850 2975 3272 
Q 2975 3691 2734 3919 
Q 2494 4147 2053 4147 
L 1259 4147 
z
M 628 4666 
L 2053 4666 
Q 2838 4666 3239 4311 
Q 3641 3956 3641 3272 
Q 3641 2581 3239 2228 
Q 2838 1875 2053 1875 
L 1259 1875 
L 1259 0 
L 628 0 
L 628 4666 
z
" id="DejaVuSans-50" transform="scale(0.015625)"/>
       <path d="M 1172 4494 
L 1172 3500 
L 2356 3500 
L 2356 3053 
L 1172 3053 
L 1172 1153 
Q 1172 725 1289 603 
Q 1406 481 1766 481 
L 2356 481 
L 2356 0 
L 1766 0 
Q 1100 0 847 248 
Q 594 497 594 1153 
L 594 3053 
L 172 3053 
L 172 3500 
L 594 3500 
L 594 4494 
L 1172 4494 
z
" id="DejaVuSans-74" transform="scale(0.015625)"/>
       <path d="M 2194 1759 
Q 1497 1759 1228 1600 
Q 959 1441 959 1056 
Q 959 750 1161 570 
Q 1363 391 1709 391 
Q 2188 391 2477 730 
Q 2766 1069 2766 1631 
L 2766 1759 
L 2194 1759 
z
M 3341 1997 
L 3341 0 
L 2766 0 
L 2766 531 
Q 2569 213 2275 61 
Q 1981 -91 1556 -91 
Q 1019 -91 701 211 
Q 384 513 384 1019 
Q 384 1609 779 1909 
Q 1175 2209 1959 2209 
L 2766 2209 
L 2766 2266 
Q 2766 2663 2505 2880 
Q 2244 3097 1772 3097 
Q 1472 3097 1187 3025 
Q 903 2953 641 2809 
L 641 3341 
Q 956 3463 1253 3523 
Q 1550 3584 1831 3584 
Q 2591 3584 2966 3190 
Q 3341 2797 3341 1997 
z
" id="DejaVuSans-61" transform="scale(0.015625)"/>
       <path d="M 2906 1791 
Q 2906 2416 2648 2759 
Q 2391 3103 1925 3103 
Q 1463 3103 1205 2759 
Q 947 2416 947 1791 
Q 947 1169 1205 825 
Q 1463 481 1925 481 
Q 2391 481 2648 825 
Q 2906 1169 2906 1791 
z
M 3481 434 
Q 3481 -459 3084 -895 
Q 2688 -1331 1869 -1331 
Q 1566 -1331 1297 -1286 
Q 1028 -1241 775 -1147 
L 775 -588 
Q 1028 -725 1275 -790 
Q 1522 -856 1778 -856 
Q 2344 -856 2625 -561 
Q 2906 -266 2906 331 
L 2906 616 
Q 2728 306 2450 153 
Q 2172 0 1784 0 
Q 1141 0 747 490 
Q 353 981 353 1791 
Q 353 2603 747 3093 
Q 1141 3584 1784 3584 
Q 2172 3584 2450 3431 
Q 2728 3278 2906 2969 
L 2906 3500 
L 3481 3500 
L 3481 434 
z
" id="DejaVuSans-67" transform="scale(0.015625)"/>
       <path d="M 1159 525 
L 1159 -1331 
L 581 -1331 
L 581 3500 
L 1159 3500 
L 1159 2969 
Q 1341 3281 1617 3432 
Q 1894 3584 2278 3584 
Q 2916 3584 3314 3078 
Q 3713 2572 3713 1747 
Q 3713 922 3314 415 
Q 2916 -91 2278 -91 
Q 1894 -91 1617 61 
Q 1341 213 1159 525 
z
M 3116 1747 
Q 3116 2381 2855 2742 
Q 2594 3103 2138 3103 
Q 1681 3103 1420 2742 
Q 1159 2381 1159 1747 
Q 1159 1113 1420 752 
Q 1681 391 2138 391 
Q 2594 391 2855 752 
Q 3116 1113 3116 1747 
z
" id="DejaVuSans-70" transform="scale(0.015625)"/>
       <path d="M 2059 -325 
Q 1816 -950 1584 -1140 
Q 1353 -1331 966 -1331 
L 506 -1331 
L 506 -850 
L 844 -850 
Q 1081 -850 1212 -737 
Q 1344 -625 1503 -206 
L 1606 56 
L 191 3500 
L 800 3500 
L 1894 763 
L 2988 3500 
L 3597 3500 
L 2059 -325 
z
" id="DejaVuSans-79" transform="scale(0.015625)"/>
      </defs>
      <use xlink:href="#DejaVuSans-50"/>
      <use x="56.677734" xlink:href="#DejaVuSans-65"/>
      <use x="118.201172" xlink:href="#DejaVuSans-72"/>
      <use x="157.064453" xlink:href="#DejaVuSans-63"/>
      <use x="212.044922" xlink:href="#DejaVuSans-65"/>
      <use x="273.568359" xlink:href="#DejaVuSans-6e"/>
      <use x="336.947266" xlink:href="#DejaVuSans-74"/>
      <use x="376.15625" xlink:href="#DejaVuSans-61"/>
      <use x="437.435547" xlink:href="#DejaVuSans-67"/>
      <use x="500.912109" xlink:href="#DejaVuSans-65"/>
      <use x="562.435547" xlink:href="#DejaVuSans-20"/>
      <use x="594.222656" xlink:href="#DejaVuSans-6f"/>
      <use x="655.404297" xlink:href="#DejaVuSans-66"/>
      <use x="690.609375" xlink:href="#DejaVuSans-20"/>
      <use x="722.396484" xlink:href="#DejaVuSans-70"/>
      <use x="785.873047" xlink:href="#DejaVuSans-61"/>
      <use x="847.152344" xlink:href="#DejaVuSans-70"/>
      <use x="910.628906" xlink:href="#DejaVuSans-65"/>
      <use x="972.152344" xlink:href="#DejaVuSans-72"/>
      <use x="1013.265625" xlink:href="#DejaVuSans-73"/>
      <use x="1065.365234" xlink:href="#DejaVuSans-20"/>
      <use x="1097.152344" xlink:href="#DejaVuSans-62"/>
      <use x="1160.628906" xlink:href="#DejaVuSans-79"/>
      <use x="1219.808594" xlink:href="#DejaVuSans-20"/>
      <use x="1251.595703" xlink:href="#DejaVuSans-63"/>
      <use x="1306.576172" xlink:href="#DejaVuSans-6f"/>
      <use x="1367.757812" xlink:href="#DejaVuSans-72"/>
      <use x="1406.621094" xlink:href="#DejaVuSans-65"/>
     </g>
    </g>
   </g>
   <g id="PolyCollection_1"/>
   <g id="PolyCollection_2"/>
   <g id="PolyCollection_3"/>
   <g id="PolyCollection_4"/>
   <g id="PolyCollection_5"/>
   <g id="line2d_11">
    <path clip-path="url(#p5317983d6f)" d="M 125.865584 37.978227 
L 151.746846 124.12249 
L 177.628108 157.337989 
L 203.509369 173.000582 
L 229.390631 180.291789 
L 255.271892 183.80237 
L 281.153154 185.422639 
L 307.034416 186.232773 
" style="fill:none;stroke:#edd1cb;stroke-linecap:round;stroke-opacity:0.7;stroke-width:1.5;"/>
    <defs>
     <path d="M 0 3 
C 0.795609 3 1.55874 2.683901 2.12132 2.12132 
C 2.683901 1.55874 3 0.795609 3 0 
C 3 -0.795609 2.683901 -1.55874 2.12132 -2.12132 
C 1.55874 -2.683901 0.795609 -3 0 -3 
C -0.795609 -3 -1.55874 -2.683901 -2.12132 -2.12132 
C -2.683901 -1.55874 -3 -0.795609 -3 0 
C -3 0.795609 -2.683901 1.55874 -2.12132 2.12132 
C -1.55874 2.683901 -0.795609 3 0 3 
z
" id="m3d9f978450" style="stroke:#ffffff;stroke-opacity:0.7;stroke-width:0.75;"/>
    </defs>
    <g clip-path="url(#p5317983d6f)">
     <use style="fill:#edd1cb;fill-opacity:0.7;stroke:#ffffff;stroke-opacity:0.7;stroke-width:0.75;" x="125.865584" xlink:href="#m3d9f978450" y="37.978227"/>
     <use style="fill:#edd1cb;fill-opacity:0.7;stroke:#ffffff;stroke-opacity:0.7;stroke-width:0.75;" x="151.746846" xlink:href="#m3d9f978450" y="124.12249"/>
     <use style="fill:#edd1cb;fill-opacity:0.7;stroke:#ffffff;stroke-opacity:0.7;stroke-width:0.75;" x="177.628108" xlink:href="#m3d9f978450" y="157.337989"/>
     <use style="fill:#edd1cb;fill-opacity:0.7;stroke:#ffffff;stroke-opacity:0.7;stroke-width:0.75;" x="203.509369" xlink:href="#m3d9f978450" y="173.000582"/>
     <use style="fill:#edd1cb;fill-opacity:0.7;stroke:#ffffff;stroke-opacity:0.7;stroke-width:0.75;" x="229.390631" xlink:href="#m3d9f978450" y="180.291789"/>
     <use style="fill:#edd1cb;fill-opacity:0.7;stroke:#ffffff;stroke-opacity:0.7;stroke-width:0.75;" x="255.271892" xlink:href="#m3d9f978450" y="183.80237"/>
     <use style="fill:#edd1cb;fill-opacity:0.7;stroke:#ffffff;stroke-opacity:0.7;stroke-width:0.75;" x="281.153154" xlink:href="#m3d9f978450" y="185.422639"/>
     <use style="fill:#edd1cb;fill-opacity:0.7;stroke:#ffffff;stroke-opacity:0.7;stroke-width:0.75;" x="307.034416" xlink:href="#m3d9f978450" y="186.232773"/>
    </g>
   </g>
   <g id="line2d_12">
    <path clip-path="url(#p5317983d6f)" d="M 125.865584 70.923682 
L 151.746846 120.611908 
L 177.628108 147.07629 
L 203.509369 164.359151 
L 229.390631 174.62085 
L 255.271892 180.021744 
L 281.153154 183.532326 
" style="fill:none;stroke:#daa4ac;stroke-linecap:round;stroke-opacity:0.7;stroke-width:1.5;"/>
    <defs>
     <path d="M 0 3 
C 0.795609 3 1.55874 2.683901 2.12132 2.12132 
C 2.683901 1.55874 3 0.795609 3 0 
C 3 -0.795609 2.683901 -1.55874 2.12132 -2.12132 
C 1.55874 -2.683901 0.795609 -3 0 -3 
C -0.795609 -3 -1.55874 -2.683901 -2.12132 -2.12132 
C -2.683901 -1.55874 -3 -0.795609 -3 0 
C -3 0.795609 -2.683901 1.55874 -2.12132 2.12132 
C -1.55874 2.683901 -0.795609 3 0 3 
z
" id="me6da92ec76" style="stroke:#ffffff;stroke-opacity:0.7;stroke-width:0.75;"/>
    </defs>
    <g clip-path="url(#p5317983d6f)">
     <use style="fill:#daa4ac;fill-opacity:0.7;stroke:#ffffff;stroke-opacity:0.7;stroke-width:0.75;" x="125.865584" xlink:href="#me6da92ec76" y="70.923682"/>
     <use style="fill:#daa4ac;fill-opacity:0.7;stroke:#ffffff;stroke-opacity:0.7;stroke-width:0.75;" x="151.746846" xlink:href="#me6da92ec76" y="120.611908"/>
     <use style="fill:#daa4ac;fill-opacity:0.7;stroke:#ffffff;stroke-opacity:0.7;stroke-width:0.75;" x="177.628108" xlink:href="#me6da92ec76" y="147.07629"/>
     <use style="fill:#daa4ac;fill-opacity:0.7;stroke:#ffffff;stroke-opacity:0.7;stroke-width:0.75;" x="203.509369" xlink:href="#me6da92ec76" y="164.359151"/>
     <use style="fill:#daa4ac;fill-opacity:0.7;stroke:#ffffff;stroke-opacity:0.7;stroke-width:0.75;" x="229.390631" xlink:href="#me6da92ec76" y="174.62085"/>
     <use style="fill:#daa4ac;fill-opacity:0.7;stroke:#ffffff;stroke-opacity:0.7;stroke-width:0.75;" x="255.271892" xlink:href="#me6da92ec76" y="180.021744"/>
     <use style="fill:#daa4ac;fill-opacity:0.7;stroke:#ffffff;stroke-opacity:0.7;stroke-width:0.75;" x="281.153154" xlink:href="#me6da92ec76" y="183.532326"/>
    </g>
   </g>
   <g id="line2d_13">
    <path clip-path="url(#p5317983d6f)" d="M 125.865584 90.90699 
L 151.746846 119.801774 
L 177.628108 140.325172 
L 203.509369 157.337989 
L 229.390631 168.409822 
L 255.271892 177.051253 
" style="fill:none;stroke:#bd7a98;stroke-linecap:round;stroke-opacity:0.7;stroke-width:1.5;"/>
    <defs>
     <path d="M 0 3 
C 0.795609 3 1.55874 2.683901 2.12132 2.12132 
C 2.683901 1.55874 3 0.795609 3 0 
C 3 -0.795609 2.683901 -1.55874 2.12132 -2.12132 
C 1.55874 -2.683901 0.795609 -3 0 -3 
C -0.795609 -3 -1.55874 -2.683901 -2.12132 -2.12132 
C -2.683901 -1.55874 -3 -0.795609 -3 0 
C -3 0.795609 -2.683901 1.55874 -2.12132 2.12132 
C -1.55874 2.683901 -0.795609 3 0 3 
z
" id="m9aa66c7736" style="stroke:#ffffff;stroke-opacity:0.7;stroke-width:0.75;"/>
    </defs>
    <g clip-path="url(#p5317983d6f)">
     <use style="fill:#bd7a98;fill-opacity:0.7;stroke:#ffffff;stroke-opacity:0.7;stroke-width:0.75;" x="125.865584" xlink:href="#m9aa66c7736" y="90.90699"/>
     <use style="fill:#bd7a98;fill-opacity:0.7;stroke:#ffffff;stroke-opacity:0.7;stroke-width:0.75;" x="151.746846" xlink:href="#m9aa66c7736" y="119.801774"/>
     <use style="fill:#bd7a98;fill-opacity:0.7;stroke:#ffffff;stroke-opacity:0.7;stroke-width:0.75;" x="177.628108" xlink:href="#m9aa66c7736" y="140.325172"/>
     <use style="fill:#bd7a98;fill-opacity:0.7;stroke:#ffffff;stroke-opacity:0.7;stroke-width:0.75;" x="203.509369" xlink:href="#m9aa66c7736" y="157.337989"/>
     <use style="fill:#bd7a98;fill-opacity:0.7;stroke:#ffffff;stroke-opacity:0.7;stroke-width:0.75;" x="229.390631" xlink:href="#m9aa66c7736" y="168.409822"/>
     <use style="fill:#bd7a98;fill-opacity:0.7;stroke:#ffffff;stroke-opacity:0.7;stroke-width:0.75;" x="255.271892" xlink:href="#m9aa66c7736" y="177.051253"/>
    </g>
   </g>
   <g id="line2d_14">
    <path clip-path="url(#p5317983d6f)" d="M 125.865584 80.375247 
L 151.746846 117.371372 
L 177.628108 140.055127 
L 203.509369 157.878078 
L 229.390631 170.840224 
" style="fill:none;stroke:#945785;stroke-linecap:round;stroke-opacity:0.7;stroke-width:1.5;"/>
    <defs>
     <path d="M 0 3 
C 0.795609 3 1.55874 2.683901 2.12132 2.12132 
C 2.683901 1.55874 3 0.795609 3 0 
C 3 -0.795609 2.683901 -1.55874 2.12132 -2.12132 
C 1.55874 -2.683901 0.795609 -3 0 -3 
C -0.795609 -3 -1.55874 -2.683901 -2.12132 -2.12132 
C -2.683901 -1.55874 -3 -0.795609 -3 0 
C -3 0.795609 -2.683901 1.55874 -2.12132 2.12132 
C -1.55874 2.683901 -0.795609 3 0 3 
z
" id="m6ec4312389" style="stroke:#ffffff;stroke-opacity:0.7;stroke-width:0.75;"/>
    </defs>
    <g clip-path="url(#p5317983d6f)">
     <use style="fill:#945785;fill-opacity:0.7;stroke:#ffffff;stroke-opacity:0.7;stroke-width:0.75;" x="125.865584" xlink:href="#m6ec4312389" y="80.375247"/>
     <use style="fill:#945785;fill-opacity:0.7;stroke:#ffffff;stroke-opacity:0.7;stroke-width:0.75;" x="151.746846" xlink:href="#m6ec4312389" y="117.371372"/>
     <use style="fill:#945785;fill-opacity:0.7;stroke:#ffffff;stroke-opacity:0.7;stroke-width:0.75;" x="177.628108" xlink:href="#m6ec4312389" y="140.055127"/>
     <use style="fill:#945785;fill-opacity:0.7;stroke:#ffffff;stroke-opacity:0.7;stroke-width:0.75;" x="203.509369" xlink:href="#m6ec4312389" y="157.878078"/>
     <use style="fill:#945785;fill-opacity:0.7;stroke:#ffffff;stroke-opacity:0.7;stroke-width:0.75;" x="229.390631" xlink:href="#m6ec4312389" y="170.840224"/>
    </g>
   </g>
   <g id="line2d_15">
    <path clip-path="url(#p5317983d6f)" d="M 125.865584 55.531133 
L 151.746846 118.181506 
L 177.628108 143.835753 
L 203.509369 161.658704 
" style="fill:none;stroke:#613969;stroke-linecap:round;stroke-opacity:0.7;stroke-width:1.5;"/>
    <defs>
     <path d="M 0 3 
C 0.795609 3 1.55874 2.683901 2.12132 2.12132 
C 2.683901 1.55874 3 0.795609 3 0 
C 3 -0.795609 2.683901 -1.55874 2.12132 -2.12132 
C 1.55874 -2.683901 0.795609 -3 0 -3 
C -0.795609 -3 -1.55874 -2.683901 -2.12132 -2.12132 
C -2.683901 -1.55874 -3 -0.795609 -3 0 
C -3 0.795609 -2.683901 1.55874 -2.12132 2.12132 
C -1.55874 2.683901 -0.795609 3 0 3 
z
" id="m85d4d3896a" style="stroke:#ffffff;stroke-opacity:0.7;stroke-width:0.75;"/>
    </defs>
    <g clip-path="url(#p5317983d6f)">
     <use style="fill:#613969;fill-opacity:0.7;stroke:#ffffff;stroke-opacity:0.7;stroke-width:0.75;" x="125.865584" xlink:href="#m85d4d3896a" y="55.531133"/>
     <use style="fill:#613969;fill-opacity:0.7;stroke:#ffffff;stroke-opacity:0.7;stroke-width:0.75;" x="151.746846" xlink:href="#m85d4d3896a" y="118.181506"/>
     <use style="fill:#613969;fill-opacity:0.7;stroke:#ffffff;stroke-opacity:0.7;stroke-width:0.75;" x="177.628108" xlink:href="#m85d4d3896a" y="143.835753"/>
     <use style="fill:#613969;fill-opacity:0.7;stroke:#ffffff;stroke-opacity:0.7;stroke-width:0.75;" x="203.509369" xlink:href="#m85d4d3896a" y="161.658704"/>
    </g>
   </g>
   <g id="patch_3">
    <path d="M 116.807143 193.6455 
L 116.807143 30.5655 
" style="fill:none;stroke:#262626;stroke-linecap:square;stroke-linejoin:miter;stroke-width:1.25;"/>
   </g>
   <g id="patch_4">
    <path d="M 116.807143 193.6455 
L 316.092857 193.6455 
" style="fill:none;stroke:#262626;stroke-linecap:square;stroke-linejoin:miter;stroke-width:1.25;"/>
   </g>
   <g id="text_13">
    <!-- a) -->
    <g style="fill:#262626;" transform="translate(7.2 26.406125)scale(0.2 -0.2)">
     <defs>
      <path d="M 2547 1044 
L 2547 1747 
L 1806 1747 
Q 1378 1747 1168 1562 
Q 959 1378 959 997 
Q 959 650 1171 447 
Q 1384 244 1747 244 
Q 2106 244 2326 466 
Q 2547 688 2547 1044 
z
M 3122 2075 
L 3122 331 
L 3634 331 
L 3634 0 
L 2547 0 
L 2547 359 
Q 2356 128 2106 18 
Q 1856 -91 1522 -91 
Q 969 -91 644 203 
Q 319 497 319 997 
Q 319 1513 691 1797 
Q 1063 2081 1741 2081 
L 2547 2081 
L 2547 2309 
Q 2547 2688 2317 2895 
Q 2088 3103 1672 3103 
Q 1328 3103 1125 2947 
Q 922 2791 872 2484 
L 575 2484 
L 575 3156 
Q 875 3284 1158 3348 
Q 1441 3413 1709 3413 
Q 2400 3413 2761 3070 
Q 3122 2728 3122 2075 
z
" id="DejaVuSerif-61" transform="scale(0.015625)"/>
      <path d="M 453 -997 
L 453 -691 
Q 934 -359 1145 242 
Q 1356 844 1356 1931 
Q 1356 3022 1145 3623 
Q 934 4225 453 4556 
L 453 4863 
Q 1216 4522 1603 3783 
Q 1991 3044 1991 1931 
Q 1991 822 1603 83 
Q 1216 -656 453 -997 
z
" id="DejaVuSerif-29" transform="scale(0.015625)"/>
     </defs>
     <use xlink:href="#DejaVuSerif-61"/>
     <use x="59.619141" xlink:href="#DejaVuSerif-29"/>
    </g>
   </g>
   <g id="legend_1">
    <g id="patch_5">
     <path d="M 266.194107 120.095187 
L 308.392857 120.095187 
Q 310.592857 120.095187 310.592857 117.895187 
L 310.592857 38.2655 
Q 310.592857 36.0655 308.392857 36.0655 
L 266.194107 36.0655 
Q 263.994107 36.0655 263.994107 38.2655 
L 263.994107 117.895187 
Q 263.994107 120.095187 266.194107 120.095187 
z
" style="fill:#ffffff;opacity:0.8;stroke:#cccccc;stroke-linejoin:miter;"/>
    </g>
    <g id="line2d_16">
     <path d="M 268.394107 44.973781 
L 290.394107 44.973781 
" style="fill:none;stroke:#edd1cb;stroke-linecap:round;stroke-opacity:0.7;stroke-width:1.5;"/>
    </g>
    <g id="line2d_17">
     <g>
      <use style="fill:#edd1cb;fill-opacity:0.7;stroke:#ffffff;stroke-opacity:0.7;stroke-width:0.75;" x="279.394107" xlink:href="#m3d9f978450" y="44.973781"/>
     </g>
    </g>
    <g id="text_14">
     <!-- 2 -->
     <g style="fill:#262626;" transform="translate(299.194107 48.823781)scale(0.11 -0.11)">
      <use xlink:href="#DejaVuSans-32"/>
     </g>
    </g>
    <g id="line2d_18">
     <path d="M 268.394107 61.119719 
L 290.394107 61.119719 
" style="fill:none;stroke:#daa4ac;stroke-linecap:round;stroke-opacity:0.7;stroke-width:1.5;"/>
    </g>
    <g id="line2d_19">
     <g>
      <use style="fill:#daa4ac;fill-opacity:0.7;stroke:#ffffff;stroke-opacity:0.7;stroke-width:0.75;" x="279.394107" xlink:href="#me6da92ec76" y="61.119719"/>
     </g>
    </g>
    <g id="text_15">
     <!-- 3 -->
     <g style="fill:#262626;" transform="translate(299.194107 64.969719)scale(0.11 -0.11)">
      <use xlink:href="#DejaVuSans-33"/>
     </g>
    </g>
    <g id="line2d_20">
     <path d="M 268.394107 77.265656 
L 290.394107 77.265656 
" style="fill:none;stroke:#bd7a98;stroke-linecap:round;stroke-opacity:0.7;stroke-width:1.5;"/>
    </g>
    <g id="line2d_21">
     <g>
      <use style="fill:#bd7a98;fill-opacity:0.7;stroke:#ffffff;stroke-opacity:0.7;stroke-width:0.75;" x="279.394107" xlink:href="#m9aa66c7736" y="77.265656"/>
     </g>
    </g>
    <g id="text_16">
     <!-- 4 -->
     <g style="fill:#262626;" transform="translate(299.194107 81.115656)scale(0.11 -0.11)">
      <use xlink:href="#DejaVuSans-34"/>
     </g>
    </g>
    <g id="line2d_22">
     <path d="M 268.394107 93.411594 
L 290.394107 93.411594 
" style="fill:none;stroke:#945785;stroke-linecap:round;stroke-opacity:0.7;stroke-width:1.5;"/>
    </g>
    <g id="line2d_23">
     <g>
      <use style="fill:#945785;fill-opacity:0.7;stroke:#ffffff;stroke-opacity:0.7;stroke-width:0.75;" x="279.394107" xlink:href="#m6ec4312389" y="93.411594"/>
     </g>
    </g>
    <g id="text_17">
     <!-- 5 -->
     <g style="fill:#262626;" transform="translate(299.194107 97.261594)scale(0.11 -0.11)">
      <use xlink:href="#DejaVuSans-35"/>
     </g>
    </g>
    <g id="line2d_24">
     <path d="M 268.394107 109.557531 
L 290.394107 109.557531 
" style="fill:none;stroke:#613969;stroke-linecap:round;stroke-opacity:0.7;stroke-width:1.5;"/>
    </g>
    <g id="line2d_25">
     <g>
      <use style="fill:#613969;fill-opacity:0.7;stroke:#ffffff;stroke-opacity:0.7;stroke-width:0.75;" x="279.394107" xlink:href="#m85d4d3896a" y="109.557531"/>
     </g>
    </g>
    <g id="text_18">
     <!-- 6 -->
     <g style="fill:#262626;" transform="translate(299.194107 113.407531)scale(0.11 -0.11)">
      <use xlink:href="#DejaVuSans-36"/>
     </g>
    </g>
   </g>
  </g>
  <g id="axes_2">
   <g id="patch_6">
    <path d="M 399.792857 193.6455 
L 519.364286 193.6455 
L 519.364286 30.5655 
L 399.792857 30.5655 
z
" style="fill:#ffffff;"/>
   </g>
   <g id="matplotlib.axis_3"/>
   <g id="matplotlib.axis_4">
    <g id="ytick_7">
     <g id="line2d_26">
      <g>
       <use style="fill:#262626;stroke:#262626;stroke-width:1.25;" x="399.792857" xlink:href="#m41105fad8a" y="186.232773"/>
      </g>
     </g>
     <g id="text_19">
      <!-- 0 -->
      <g style="fill:#262626;" transform="translate(383.294107 190.411913)scale(0.11 -0.11)">
       <use xlink:href="#DejaVuSans-30"/>
      </g>
     </g>
    </g>
    <g id="ytick_8">
     <g id="line2d_27">
      <g>
       <use style="fill:#262626;stroke:#262626;stroke-width:1.25;" x="399.792857" xlink:href="#m41105fad8a" y="157.835871"/>
      </g>
     </g>
     <g id="text_20">
      <!-- 10 -->
      <g style="fill:#262626;" transform="translate(376.295357 162.015011)scale(0.11 -0.11)">
       <use xlink:href="#DejaVuSans-31"/>
       <use x="63.623047" xlink:href="#DejaVuSans-30"/>
      </g>
     </g>
    </g>
    <g id="ytick_9">
     <g id="line2d_28">
      <g>
       <use style="fill:#262626;stroke:#262626;stroke-width:1.25;" x="399.792857" xlink:href="#m41105fad8a" y="129.438969"/>
      </g>
     </g>
     <g id="text_21">
      <!-- 20 -->
      <g style="fill:#262626;" transform="translate(376.295357 133.61811)scale(0.11 -0.11)">
       <use xlink:href="#DejaVuSans-32"/>
       <use x="63.623047" xlink:href="#DejaVuSans-30"/>
      </g>
     </g>
    </g>
    <g id="ytick_10">
     <g id="line2d_29">
      <g>
       <use style="fill:#262626;stroke:#262626;stroke-width:1.25;" x="399.792857" xlink:href="#m41105fad8a" y="101.042067"/>
      </g>
     </g>
     <g id="text_22">
      <!-- 30 -->
      <g style="fill:#262626;" transform="translate(376.295357 105.221208)scale(0.11 -0.11)">
       <use xlink:href="#DejaVuSans-33"/>
       <use x="63.623047" xlink:href="#DejaVuSans-30"/>
      </g>
     </g>
    </g>
    <g id="ytick_11">
     <g id="line2d_30">
      <g>
       <use style="fill:#262626;stroke:#262626;stroke-width:1.25;" x="399.792857" xlink:href="#m41105fad8a" y="72.645165"/>
      </g>
     </g>
     <g id="text_23">
      <!-- 40 -->
      <g style="fill:#262626;" transform="translate(376.295357 76.824306)scale(0.11 -0.11)">
       <use xlink:href="#DejaVuSans-34"/>
       <use x="63.623047" xlink:href="#DejaVuSans-30"/>
      </g>
     </g>
    </g>
    <g id="ytick_12">
     <g id="line2d_31">
      <g>
       <use style="fill:#262626;stroke:#262626;stroke-width:1.25;" x="399.792857" xlink:href="#m41105fad8a" y="44.248263"/>
      </g>
     </g>
     <g id="text_24">
      <!-- 50 -->
      <g style="fill:#262626;" transform="translate(376.295357 48.427404)scale(0.11 -0.11)">
       <use xlink:href="#DejaVuSans-35"/>
       <use x="63.623047" xlink:href="#DejaVuSans-30"/>
      </g>
     </g>
    </g>
    <g id="text_25">
     <!-- age of noncore members -->
     <g style="fill:#262626;" transform="translate(369.799732 187.531125)rotate(-90)scale(0.12 -0.12)">
      <use xlink:href="#DejaVuSans-61"/>
      <use x="61.279297" xlink:href="#DejaVuSans-67"/>
      <use x="124.755859" xlink:href="#DejaVuSans-65"/>
      <use x="186.279297" xlink:href="#DejaVuSans-20"/>
      <use x="218.066406" xlink:href="#DejaVuSans-6f"/>
      <use x="279.248047" xlink:href="#DejaVuSans-66"/>
      <use x="314.453125" xlink:href="#DejaVuSans-20"/>
      <use x="346.240234" xlink:href="#DejaVuSans-6e"/>
      <use x="409.619141" xlink:href="#DejaVuSans-6f"/>
      <use x="470.800781" xlink:href="#DejaVuSans-6e"/>
      <use x="534.179688" xlink:href="#DejaVuSans-63"/>
      <use x="589.160156" xlink:href="#DejaVuSans-6f"/>
      <use x="650.341797" xlink:href="#DejaVuSans-72"/>
      <use x="689.205078" xlink:href="#DejaVuSans-65"/>
      <use x="750.728516" xlink:href="#DejaVuSans-20"/>
      <use x="782.515625" xlink:href="#DejaVuSans-6d"/>
      <use x="879.927734" xlink:href="#DejaVuSans-65"/>
      <use x="941.451172" xlink:href="#DejaVuSans-6d"/>
      <use x="1038.863281" xlink:href="#DejaVuSans-62"/>
      <use x="1102.339844" xlink:href="#DejaVuSans-65"/>
      <use x="1163.863281" xlink:href="#DejaVuSans-72"/>
      <use x="1204.976562" xlink:href="#DejaVuSans-73"/>
     </g>
    </g>
   </g>
   <g id="patch_7">
    <path clip-path="url(#p3a99d7770e)" d="M 459.578571 186.232773 
L 459.578571 186.232773 
L 459.578571 186.232773 
L 459.578571 186.232773 
z
" style="fill:#b9dccc;stroke:#7a7a7a;stroke-linejoin:miter;"/>
   </g>
   <g id="patch_8">
    <path clip-path="url(#p3a99d7770e)" d="M 459.578571 186.232773 
L 459.578571 186.232773 
L 459.578571 186.232773 
L 459.578571 186.232773 
z
" style="fill:#ece1d1;stroke:#7a7a7a;stroke-linejoin:miter;"/>
   </g>
   <g id="patch_9">
    <path clip-path="url(#p3a99d7770e)" d="M 459.578571 186.232773 
L 459.578571 186.232773 
L 459.578571 186.232773 
L 459.578571 186.232773 
z
" style="fill:#f3cfb6;stroke:#7a7a7a;stroke-linejoin:miter;"/>
   </g>
   <g id="patch_10">
    <path clip-path="url(#p3a99d7770e)" d="M 459.578571 186.232773 
L 459.578571 186.232773 
L 459.578571 186.232773 
L 459.578571 186.232773 
z
" style="fill:#efcfe3;stroke:#7a7a7a;stroke-linejoin:miter;"/>
   </g>
   <g id="patch_11">
    <path clip-path="url(#p3a99d7770e)" d="M 459.578571 186.232773 
L 459.578571 186.232773 
L 459.578571 186.232773 
L 459.578571 186.232773 
z
" style="fill:#e4f0ce;stroke:#7a7a7a;stroke-linejoin:miter;"/>
   </g>
   <g id="patch_12">
    <path clip-path="url(#p3a99d7770e)" d="M 459.578571 186.232773 
L 459.578571 186.232773 
L 459.578571 186.232773 
L 459.578571 186.232773 
z
" style="fill:#f5ebb8;stroke:#7a7a7a;stroke-linejoin:miter;"/>
   </g>
   <g id="patch_13">
    <path clip-path="url(#p3a99d7770e)" d="M 459.578571 186.232773 
L 459.578571 186.232773 
L 459.578571 186.232773 
L 459.578571 186.232773 
z
" style="fill:#cfd6e4;stroke:#7a7a7a;stroke-linejoin:miter;"/>
   </g>
   <g id="line2d_32">
    <path clip-path="url(#p3a99d7770e)" d="M 439.080612 174.184914 
L 439.080612 186.232773 
" style="fill:none;stroke:#7a7a7a;"/>
   </g>
   <g id="line2d_33">
    <path clip-path="url(#p3a99d7770e)" d="M 439.080612 137.1634 
L 439.080612 81.635624 
" style="fill:none;stroke:#7a7a7a;"/>
   </g>
   <g id="line2d_34">
    <path clip-path="url(#p3a99d7770e)" d="M 437.372449 186.232773 
L 440.788776 186.232773 
" style="fill:none;stroke:#7a7a7a;stroke-linecap:round;"/>
   </g>
   <g id="line2d_35">
    <path clip-path="url(#p3a99d7770e)" d="M 437.372449 81.635624 
L 440.788776 81.635624 
" style="fill:none;stroke:#7a7a7a;stroke-linecap:round;"/>
   </g>
   <g id="line2d_36">
    <path clip-path="url(#p3a99d7770e)" d="M 445.913265 167.845779 
L 445.913265 186.232773 
" style="fill:none;stroke:#7a7a7a;"/>
   </g>
   <g id="line2d_37">
    <path clip-path="url(#p3a99d7770e)" d="M 445.913265 132.278659 
L 445.913265 78.932239 
" style="fill:none;stroke:#7a7a7a;"/>
   </g>
   <g id="line2d_38">
    <path clip-path="url(#p3a99d7770e)" d="M 444.205102 186.232773 
L 447.621429 186.232773 
" style="fill:none;stroke:#7a7a7a;stroke-linecap:round;"/>
   </g>
   <g id="line2d_39">
    <path clip-path="url(#p3a99d7770e)" d="M 444.205102 78.932239 
L 447.621429 78.932239 
" style="fill:none;stroke:#7a7a7a;stroke-linecap:round;"/>
   </g>
   <g id="line2d_40">
    <path clip-path="url(#p3a99d7770e)" d="M 452.745918 167.774786 
L 452.745918 186.232773 
" style="fill:none;stroke:#7a7a7a;"/>
   </g>
   <g id="line2d_41">
    <path clip-path="url(#p3a99d7770e)" d="M 452.745918 131.023516 
L 452.745918 75.90229 
" style="fill:none;stroke:#7a7a7a;"/>
   </g>
   <g id="line2d_42">
    <path clip-path="url(#p3a99d7770e)" d="M 451.037755 186.232773 
L 454.454082 186.232773 
" style="fill:none;stroke:#7a7a7a;stroke-linecap:round;"/>
   </g>
   <g id="line2d_43">
    <path clip-path="url(#p3a99d7770e)" d="M 451.037755 75.90229 
L 454.454082 75.90229 
" style="fill:none;stroke:#7a7a7a;stroke-linecap:round;"/>
   </g>
   <g id="line2d_44">
    <path clip-path="url(#p3a99d7770e)" d="M 459.578571 160.956513 
L 459.578571 186.232773 
" style="fill:none;stroke:#7a7a7a;"/>
   </g>
   <g id="line2d_45">
    <path clip-path="url(#p3a99d7770e)" d="M 459.578571 123.534898 
L 459.578571 67.405937 
" style="fill:none;stroke:#7a7a7a;"/>
   </g>
   <g id="line2d_46">
    <path clip-path="url(#p3a99d7770e)" d="M 457.870408 186.232773 
L 461.286735 186.232773 
" style="fill:none;stroke:#7a7a7a;stroke-linecap:round;"/>
   </g>
   <g id="line2d_47">
    <path clip-path="url(#p3a99d7770e)" d="M 457.870408 67.405937 
L 461.286735 67.405937 
" style="fill:none;stroke:#7a7a7a;stroke-linecap:round;"/>
   </g>
   <g id="line2d_48">
    <path clip-path="url(#p3a99d7770e)" d="M 466.411224 160.870174 
L 466.411224 186.232773 
" style="fill:none;stroke:#7a7a7a;"/>
   </g>
   <g id="line2d_49">
    <path clip-path="url(#p3a99d7770e)" d="M 466.411224 119.262939 
L 466.411224 56.853648 
" style="fill:none;stroke:#7a7a7a;"/>
   </g>
   <g id="line2d_50">
    <path clip-path="url(#p3a99d7770e)" d="M 464.703061 186.232773 
L 468.119388 186.232773 
" style="fill:none;stroke:#7a7a7a;stroke-linecap:round;"/>
   </g>
   <g id="line2d_51">
    <path clip-path="url(#p3a99d7770e)" d="M 464.703061 56.853648 
L 468.119388 56.853648 
" style="fill:none;stroke:#7a7a7a;stroke-linecap:round;"/>
   </g>
   <g id="line2d_52">
    <path clip-path="url(#p3a99d7770e)" d="M 473.243878 155.510165 
L 473.243878 186.232773 
" style="fill:none;stroke:#7a7a7a;"/>
   </g>
   <g id="line2d_53">
    <path clip-path="url(#p3a99d7770e)" d="M 473.243878 113.330826 
L 473.243878 50.089506 
" style="fill:none;stroke:#7a7a7a;"/>
   </g>
   <g id="line2d_54">
    <path clip-path="url(#p3a99d7770e)" d="M 471.535714 186.232773 
L 474.952041 186.232773 
" style="fill:none;stroke:#7a7a7a;stroke-linecap:round;"/>
   </g>
   <g id="line2d_55">
    <path clip-path="url(#p3a99d7770e)" d="M 471.535714 50.089506 
L 474.952041 50.089506 
" style="fill:none;stroke:#7a7a7a;stroke-linecap:round;"/>
   </g>
   <g id="line2d_56">
    <path clip-path="url(#p3a99d7770e)" d="M 480.076531 155.706103 
L 480.076531 186.232773 
" style="fill:none;stroke:#7a7a7a;"/>
   </g>
   <g id="line2d_57">
    <path clip-path="url(#p3a99d7770e)" d="M 480.076531 108.612681 
L 480.076531 37.978227 
" style="fill:none;stroke:#7a7a7a;"/>
   </g>
   <g id="line2d_58">
    <path clip-path="url(#p3a99d7770e)" d="M 478.368367 186.232773 
L 481.784694 186.232773 
" style="fill:none;stroke:#7a7a7a;stroke-linecap:round;"/>
   </g>
   <g id="line2d_59">
    <path clip-path="url(#p3a99d7770e)" d="M 478.368367 37.978227 
L 481.784694 37.978227 
" style="fill:none;stroke:#7a7a7a;stroke-linecap:round;"/>
   </g>
   <g id="patch_14">
    <path clip-path="url(#p3a99d7770e)" d="M 435.664286 174.184914 
L 442.496939 174.184914 
L 442.496939 137.1634 
L 435.664286 137.1634 
L 435.664286 174.184914 
z
" style="fill:#b9dccc;stroke:#7a7a7a;stroke-linejoin:miter;"/>
   </g>
   <g id="patch_15">
    <path clip-path="url(#p3a99d7770e)" d="M 442.496939 167.845779 
L 449.329592 167.845779 
L 449.329592 132.278659 
L 442.496939 132.278659 
L 442.496939 167.845779 
z
" style="fill:#ece1d1;stroke:#7a7a7a;stroke-linejoin:miter;"/>
   </g>
   <g id="patch_16">
    <path clip-path="url(#p3a99d7770e)" d="M 449.329592 167.774786 
L 456.162245 167.774786 
L 456.162245 131.023516 
L 449.329592 131.023516 
L 449.329592 167.774786 
z
" style="fill:#f3cfb6;stroke:#7a7a7a;stroke-linejoin:miter;"/>
   </g>
   <g id="patch_17">
    <path clip-path="url(#p3a99d7770e)" d="M 456.162245 160.956513 
L 462.994898 160.956513 
L 462.994898 123.534898 
L 456.162245 123.534898 
L 456.162245 160.956513 
z
" style="fill:#efcfe3;stroke:#7a7a7a;stroke-linejoin:miter;"/>
   </g>
   <g id="patch_18">
    <path clip-path="url(#p3a99d7770e)" d="M 462.994898 160.870174 
L 469.827551 160.870174 
L 469.827551 119.262939 
L 462.994898 119.262939 
L 462.994898 160.870174 
z
" style="fill:#e4f0ce;stroke:#7a7a7a;stroke-linejoin:miter;"/>
   </g>
   <g id="patch_19">
    <path clip-path="url(#p3a99d7770e)" d="M 469.827551 155.510165 
L 476.660204 155.510165 
L 476.660204 113.330826 
L 469.827551 113.330826 
L 469.827551 155.510165 
z
" style="fill:#f5ebb8;stroke:#7a7a7a;stroke-linejoin:miter;"/>
   </g>
   <g id="patch_20">
    <path clip-path="url(#p3a99d7770e)" d="M 476.660204 155.706103 
L 483.492857 155.706103 
L 483.492857 108.612681 
L 476.660204 108.612681 
L 476.660204 155.706103 
z
" style="fill:#cfd6e4;stroke:#7a7a7a;stroke-linejoin:miter;"/>
   </g>
   <g id="line2d_60">
    <path clip-path="url(#p3a99d7770e)" d="M 435.664286 157.835871 
L 442.496939 157.835871 
" style="fill:none;stroke:#7a7a7a;"/>
   </g>
   <g id="line2d_61">
    <path clip-path="url(#p3a99d7770e)" d="M 442.496939 152.15649 
L 449.329592 152.15649 
" style="fill:none;stroke:#7a7a7a;"/>
   </g>
   <g id="line2d_62">
    <path clip-path="url(#p3a99d7770e)" d="M 449.329592 151.903758 
L 456.162245 151.903758 
" style="fill:none;stroke:#7a7a7a;"/>
   </g>
   <g id="line2d_63">
    <path clip-path="url(#p3a99d7770e)" d="M 456.162245 144.228075 
L 462.994898 144.228075 
" style="fill:none;stroke:#7a7a7a;"/>
   </g>
   <g id="line2d_64">
    <path clip-path="url(#p3a99d7770e)" d="M 462.994898 142.183498 
L 469.827551 142.183498 
" style="fill:none;stroke:#7a7a7a;"/>
   </g>
   <g id="line2d_65">
    <path clip-path="url(#p3a99d7770e)" d="M 469.827551 136.379172 
L 476.660204 136.379172 
" style="fill:none;stroke:#7a7a7a;"/>
   </g>
   <g id="line2d_66">
    <path clip-path="url(#p3a99d7770e)" d="M 476.660204 135.592578 
L 483.492857 135.592578 
" style="fill:none;stroke:#7a7a7a;"/>
   </g>
   <g id="patch_21">
    <path d="M 399.792857 193.6455 
L 399.792857 30.5655 
" style="fill:none;stroke:#262626;stroke-linecap:square;stroke-linejoin:miter;stroke-width:1.25;"/>
   </g>
   <g id="text_26">
    <!-- b) -->
    <g style="fill:#262626;" transform="translate(334.028571 26.406125)scale(0.2 -0.2)">
     <defs>
      <path d="M 738 331 
L 738 4531 
L 184 4531 
L 184 4863 
L 1313 4863 
L 1313 2803 
Q 1481 3116 1742 3264 
Q 2003 3413 2388 3413 
Q 3000 3413 3387 2928 
Q 3775 2444 3775 1663 
Q 3775 881 3387 395 
Q 3000 -91 2388 -91 
Q 2003 -91 1742 57 
Q 1481 206 1313 519 
L 1313 0 
L 184 0 
L 184 331 
L 738 331 
z
M 1313 1497 
Q 1313 897 1542 583 
Q 1772 269 2209 269 
Q 2650 269 2876 622 
Q 3103 975 3103 1663 
Q 3103 2353 2876 2703 
Q 2650 3053 2209 3053 
Q 1772 3053 1542 2737 
Q 1313 2422 1313 1825 
L 1313 1497 
z
" id="DejaVuSerif-62" transform="scale(0.015625)"/>
     </defs>
     <use xlink:href="#DejaVuSerif-62"/>
     <use x="64.013672" xlink:href="#DejaVuSerif-29"/>
    </g>
   </g>
   <g id="legend_2">
    <g id="patch_22">
     <path d="M 477.135714 91.7975 
L 543.099464 91.7975 
Q 544.699464 91.7975 544.699464 90.1975 
L 544.699464 8.8 
Q 544.699464 7.2 543.099464 7.2 
L 477.135714 7.2 
Q 475.535714 7.2 475.535714 8.8 
L 475.535714 90.1975 
Q 475.535714 91.7975 477.135714 91.7975 
z
" style="fill:#ffffff;opacity:0.45;stroke:#cccccc;stroke-linejoin:miter;"/>
    </g>
    <g id="patch_23">
     <path d="M 478.735714 16.47875 
L 494.735714 16.47875 
L 494.735714 10.87875 
L 478.735714 10.87875 
z
" style="fill:#b9dccc;stroke:#7a7a7a;stroke-linejoin:miter;"/>
    </g>
    <g id="text_27">
     <!-- Y -->
     <g style="fill:#262626;" transform="translate(501.135714 16.47875)scale(0.08 -0.08)">
      <defs>
       <path d="M -13 4666 
L 666 4666 
L 1959 2747 
L 3244 4666 
L 3922 4666 
L 2272 2222 
L 2272 0 
L 1638 0 
L 1638 2222 
L -13 4666 
z
" id="DejaVuSans-59" transform="scale(0.015625)"/>
      </defs>
      <use xlink:href="#DejaVuSans-59"/>
     </g>
    </g>
    <g id="patch_24">
     <path d="M 478.735714 28.22125 
L 494.735714 28.22125 
L 494.735714 22.62125 
L 478.735714 22.62125 
z
" style="fill:#ece1d1;stroke:#7a7a7a;stroke-linejoin:miter;"/>
    </g>
    <g id="text_28">
     <!-- Y+Em -->
     <g style="fill:#262626;" transform="translate(501.135714 28.22125)scale(0.08 -0.08)">
      <defs>
       <path d="M 2944 4013 
L 2944 2272 
L 4684 2272 
L 4684 1741 
L 2944 1741 
L 2944 0 
L 2419 0 
L 2419 1741 
L 678 1741 
L 678 2272 
L 2419 2272 
L 2419 4013 
L 2944 4013 
z
" id="DejaVuSans-2b" transform="scale(0.015625)"/>
       <path d="M 628 4666 
L 3578 4666 
L 3578 4134 
L 1259 4134 
L 1259 2753 
L 3481 2753 
L 3481 2222 
L 1259 2222 
L 1259 531 
L 3634 531 
L 3634 0 
L 628 0 
L 628 4666 
z
" id="DejaVuSans-45" transform="scale(0.015625)"/>
      </defs>
      <use xlink:href="#DejaVuSans-59"/>
      <use x="61.083984" xlink:href="#DejaVuSans-2b"/>
      <use x="144.873047" xlink:href="#DejaVuSans-45"/>
      <use x="208.056641" xlink:href="#DejaVuSans-6d"/>
     </g>
    </g>
    <g id="patch_25">
     <path d="M 478.735714 39.96375 
L 494.735714 39.96375 
L 494.735714 34.36375 
L 478.735714 34.36375 
z
" style="fill:#f3cfb6;stroke:#7a7a7a;stroke-linejoin:miter;"/>
    </g>
    <g id="text_29">
     <!-- Em -->
     <g style="fill:#262626;" transform="translate(501.135714 39.96375)scale(0.08 -0.08)">
      <use xlink:href="#DejaVuSans-45"/>
      <use x="63.183594" xlink:href="#DejaVuSans-6d"/>
     </g>
    </g>
    <g id="patch_26">
     <path d="M 478.735714 51.70625 
L 494.735714 51.70625 
L 494.735714 46.10625 
L 478.735714 46.10625 
z
" style="fill:#efcfe3;stroke:#7a7a7a;stroke-linejoin:miter;"/>
    </g>
    <g id="text_30">
     <!-- Y+Em+Es -->
     <g style="fill:#262626;" transform="translate(501.135714 51.70625)scale(0.08 -0.08)">
      <use xlink:href="#DejaVuSans-59"/>
      <use x="61.083984" xlink:href="#DejaVuSans-2b"/>
      <use x="144.873047" xlink:href="#DejaVuSans-45"/>
      <use x="208.056641" xlink:href="#DejaVuSans-6d"/>
      <use x="305.46875" xlink:href="#DejaVuSans-2b"/>
      <use x="389.257812" xlink:href="#DejaVuSans-45"/>
      <use x="452.441406" xlink:href="#DejaVuSans-73"/>
     </g>
    </g>
    <g id="patch_27">
     <path d="M 478.735714 63.44875 
L 494.735714 63.44875 
L 494.735714 57.84875 
L 478.735714 57.84875 
z
" style="fill:#e4f0ce;stroke:#7a7a7a;stroke-linejoin:miter;"/>
    </g>
    <g id="text_31">
     <!-- Y+Es -->
     <g style="fill:#262626;" transform="translate(501.135714 63.44875)scale(0.08 -0.08)">
      <use xlink:href="#DejaVuSans-59"/>
      <use x="61.083984" xlink:href="#DejaVuSans-2b"/>
      <use x="144.873047" xlink:href="#DejaVuSans-45"/>
      <use x="208.056641" xlink:href="#DejaVuSans-73"/>
     </g>
    </g>
    <g id="patch_28">
     <path d="M 478.735714 75.19125 
L 494.735714 75.19125 
L 494.735714 69.59125 
L 478.735714 69.59125 
z
" style="fill:#f5ebb8;stroke:#7a7a7a;stroke-linejoin:miter;"/>
    </g>
    <g id="text_32">
     <!-- Em+Es -->
     <g style="fill:#262626;" transform="translate(501.135714 75.19125)scale(0.08 -0.08)">
      <use xlink:href="#DejaVuSans-45"/>
      <use x="63.183594" xlink:href="#DejaVuSans-6d"/>
      <use x="160.595703" xlink:href="#DejaVuSans-2b"/>
      <use x="244.384766" xlink:href="#DejaVuSans-45"/>
      <use x="307.568359" xlink:href="#DejaVuSans-73"/>
     </g>
    </g>
    <g id="patch_29">
     <path d="M 478.735714 86.93375 
L 494.735714 86.93375 
L 494.735714 81.33375 
L 478.735714 81.33375 
z
" style="fill:#cfd6e4;stroke:#7a7a7a;stroke-linejoin:miter;"/>
    </g>
    <g id="text_33">
     <!-- Es -->
     <g style="fill:#262626;" transform="translate(501.135714 86.93375)scale(0.08 -0.08)">
      <use xlink:href="#DejaVuSans-45"/>
      <use x="63.183594" xlink:href="#DejaVuSans-73"/>
     </g>
    </g>
   </g>
  </g>
  <g id="axes_3">
   <g id="patch_30">
    <path d="M 603.064286 193.6455 
L 652.885714 193.6455 
L 652.885714 30.5655 
L 603.064286 30.5655 
z
" style="fill:#ffffff;"/>
   </g>
   <g id="matplotlib.axis_5"/>
   <g id="matplotlib.axis_6">
    <g id="ytick_13">
     <g id="line2d_67">
      <g>
       <use style="fill:#262626;stroke:#262626;stroke-width:1.25;" x="603.064286" xlink:href="#m41105fad8a" y="156.279446"/>
      </g>
     </g>
     <g id="text_34">
      <!-- 0 -->
      <g style="fill:#262626;" transform="translate(586.565536 160.458587)scale(0.11 -0.11)">
       <use xlink:href="#DejaVuSans-30"/>
      </g>
     </g>
    </g>
    <g id="ytick_14">
     <g id="line2d_68">
      <g>
       <use style="fill:#262626;stroke:#262626;stroke-width:1.25;" x="603.064286" xlink:href="#m41105fad8a" y="118.488227"/>
      </g>
     </g>
     <g id="text_35">
      <!-- 50 -->
      <g style="fill:#262626;" transform="translate(579.566786 122.667368)scale(0.11 -0.11)">
       <use xlink:href="#DejaVuSans-35"/>
       <use x="63.623047" xlink:href="#DejaVuSans-30"/>
      </g>
     </g>
    </g>
    <g id="ytick_15">
     <g id="line2d_69">
      <g>
       <use style="fill:#262626;stroke:#262626;stroke-width:1.25;" x="603.064286" xlink:href="#m41105fad8a" y="80.697008"/>
      </g>
     </g>
     <g id="text_36">
      <!-- 100 -->
      <g style="fill:#262626;" transform="translate(572.568036 84.876148)scale(0.11 -0.11)">
       <use xlink:href="#DejaVuSans-31"/>
       <use x="63.623047" xlink:href="#DejaVuSans-30"/>
       <use x="127.246094" xlink:href="#DejaVuSans-30"/>
      </g>
     </g>
    </g>
    <g id="ytick_16">
     <g id="line2d_70">
      <g>
       <use style="fill:#262626;stroke:#262626;stroke-width:1.25;" x="603.064286" xlink:href="#m41105fad8a" y="42.905788"/>
      </g>
     </g>
     <g id="text_37">
      <!-- 150 -->
      <g style="fill:#262626;" transform="translate(572.568036 47.084929)scale(0.11 -0.11)">
       <use xlink:href="#DejaVuSans-31"/>
       <use x="63.623047" xlink:href="#DejaVuSans-35"/>
       <use x="127.246094" xlink:href="#DejaVuSans-30"/>
      </g>
     </g>
    </g>
    <g id="text_38">
     <!-- % change in topic diversity -->
     <g style="fill:#262626;" transform="translate(566.072411 193.665188)rotate(-90)scale(0.12 -0.12)">
      <defs>
       <path d="M 4653 2053 
Q 4381 2053 4226 1822 
Q 4072 1591 4072 1178 
Q 4072 772 4226 539 
Q 4381 306 4653 306 
Q 4919 306 5073 539 
Q 5228 772 5228 1178 
Q 5228 1588 5073 1820 
Q 4919 2053 4653 2053 
z
M 4653 2450 
Q 5147 2450 5437 2106 
Q 5728 1763 5728 1178 
Q 5728 594 5436 251 
Q 5144 -91 4653 -91 
Q 4153 -91 3862 251 
Q 3572 594 3572 1178 
Q 3572 1766 3864 2108 
Q 4156 2450 4653 2450 
z
M 1428 4353 
Q 1159 4353 1004 4120 
Q 850 3888 850 3481 
Q 850 3069 1003 2837 
Q 1156 2606 1428 2606 
Q 1700 2606 1854 2837 
Q 2009 3069 2009 3481 
Q 2009 3884 1853 4118 
Q 1697 4353 1428 4353 
z
M 4250 4750 
L 4750 4750 
L 1831 -91 
L 1331 -91 
L 4250 4750 
z
M 1428 4750 
Q 1922 4750 2215 4408 
Q 2509 4066 2509 3481 
Q 2509 2891 2217 2550 
Q 1925 2209 1428 2209 
Q 931 2209 642 2551 
Q 353 2894 353 3481 
Q 353 4063 643 4406 
Q 934 4750 1428 4750 
z
" id="DejaVuSans-25" transform="scale(0.015625)"/>
       <path d="M 3513 2113 
L 3513 0 
L 2938 0 
L 2938 2094 
Q 2938 2591 2744 2837 
Q 2550 3084 2163 3084 
Q 1697 3084 1428 2787 
Q 1159 2491 1159 1978 
L 1159 0 
L 581 0 
L 581 4863 
L 1159 4863 
L 1159 2956 
Q 1366 3272 1645 3428 
Q 1925 3584 2291 3584 
Q 2894 3584 3203 3211 
Q 3513 2838 3513 2113 
z
" id="DejaVuSans-68" transform="scale(0.015625)"/>
       <path d="M 603 3500 
L 1178 3500 
L 1178 0 
L 603 0 
L 603 3500 
z
M 603 4863 
L 1178 4863 
L 1178 4134 
L 603 4134 
L 603 4863 
z
" id="DejaVuSans-69" transform="scale(0.015625)"/>
       <path d="M 2906 2969 
L 2906 4863 
L 3481 4863 
L 3481 0 
L 2906 0 
L 2906 525 
Q 2725 213 2448 61 
Q 2172 -91 1784 -91 
Q 1150 -91 751 415 
Q 353 922 353 1747 
Q 353 2572 751 3078 
Q 1150 3584 1784 3584 
Q 2172 3584 2448 3432 
Q 2725 3281 2906 2969 
z
M 947 1747 
Q 947 1113 1208 752 
Q 1469 391 1925 391 
Q 2381 391 2643 752 
Q 2906 1113 2906 1747 
Q 2906 2381 2643 2742 
Q 2381 3103 1925 3103 
Q 1469 3103 1208 2742 
Q 947 2381 947 1747 
z
" id="DejaVuSans-64" transform="scale(0.015625)"/>
       <path d="M 191 3500 
L 800 3500 
L 1894 563 
L 2988 3500 
L 3597 3500 
L 2284 0 
L 1503 0 
L 191 3500 
z
" id="DejaVuSans-76" transform="scale(0.015625)"/>
      </defs>
      <use xlink:href="#DejaVuSans-25"/>
      <use x="95.019531" xlink:href="#DejaVuSans-20"/>
      <use x="126.806641" xlink:href="#DejaVuSans-63"/>
      <use x="181.787109" xlink:href="#DejaVuSans-68"/>
      <use x="245.166016" xlink:href="#DejaVuSans-61"/>
      <use x="306.445312" xlink:href="#DejaVuSans-6e"/>
      <use x="369.824219" xlink:href="#DejaVuSans-67"/>
      <use x="433.300781" xlink:href="#DejaVuSans-65"/>
      <use x="494.824219" xlink:href="#DejaVuSans-20"/>
      <use x="526.611328" xlink:href="#DejaVuSans-69"/>
      <use x="554.394531" xlink:href="#DejaVuSans-6e"/>
      <use x="617.773438" xlink:href="#DejaVuSans-20"/>
      <use x="649.560547" xlink:href="#DejaVuSans-74"/>
      <use x="688.769531" xlink:href="#DejaVuSans-6f"/>
      <use x="749.951172" xlink:href="#DejaVuSans-70"/>
      <use x="813.427734" xlink:href="#DejaVuSans-69"/>
      <use x="841.210938" xlink:href="#DejaVuSans-63"/>
      <use x="896.191406" xlink:href="#DejaVuSans-20"/>
      <use x="927.978516" xlink:href="#DejaVuSans-64"/>
      <use x="991.455078" xlink:href="#DejaVuSans-69"/>
      <use x="1019.238281" xlink:href="#DejaVuSans-76"/>
      <use x="1078.417969" xlink:href="#DejaVuSans-65"/>
      <use x="1139.941406" xlink:href="#DejaVuSans-72"/>
      <use x="1181.054688" xlink:href="#DejaVuSans-73"/>
      <use x="1233.154297" xlink:href="#DejaVuSans-69"/>
      <use x="1260.9375" xlink:href="#DejaVuSans-74"/>
      <use x="1300.146484" xlink:href="#DejaVuSans-79"/>
     </g>
    </g>
   </g>
   <g id="PolyCollection_6">
    <defs>
     <path d="M 627.975218 -50.372415 
L 627.974782 -50.372415 
L 627.974188 -51.869935 
L 627.972682 -53.367456 
L 627.969622 -54.864977 
L 627.964 -56.362497 
L 627.953532 -57.860018 
L 627.933253 -59.357539 
L 627.893265 -60.855059 
L 627.812582 -62.35258 
L 627.64637 -63.850101 
L 627.316204 -65.347621 
L 626.730214 -66.845142 
L 625.839242 -68.342663 
L 624.676877 -69.840183 
L 623.342534 -71.337704 
L 621.964319 -72.835225 
L 620.67671 -74.332745 
L 619.598377 -75.830266 
L 618.803613 -77.327787 
L 618.305684 -78.825307 
L 618.063926 -80.322828 
L 618.010714 -81.820349 
L 618.086277 -83.317869 
L 618.259114 -84.81539 
L 618.512811 -86.312911 
L 618.818568 -87.810431 
L 619.135808 -89.307952 
L 619.440511 -90.805473 
L 619.735157 -92.302993 
L 620.028915 -93.800514 
L 620.325849 -95.298035 
L 620.627946 -96.795555 
L 620.932198 -98.293076 
L 621.230348 -99.790597 
L 621.517487 -101.288117 
L 621.793621 -102.785638 
L 622.057331 -104.283159 
L 622.302707 -105.780679 
L 622.523519 -107.2782 
L 622.719547 -108.775721 
L 622.89718 -110.273241 
L 623.064347 -111.770762 
L 623.223604 -113.268283 
L 623.370709 -114.765803 
L 623.50447 -116.263324 
L 623.633337 -117.760845 
L 623.767204 -119.258365 
L 623.909164 -120.755886 
L 624.056385 -122.253407 
L 624.201778 -123.750927 
L 624.334103 -125.248448 
L 624.443688 -126.745968 
L 624.534044 -128.243489 
L 624.621576 -129.74101 
L 624.717349 -131.23853 
L 624.816648 -132.736051 
L 624.908491 -134.233572 
L 624.989458 -135.731092 
L 625.067128 -137.228613 
L 625.147686 -138.726134 
L 625.22479 -140.223654 
L 625.289677 -141.721175 
L 625.346616 -143.218696 
L 625.408233 -144.716216 
L 625.477698 -146.213737 
L 625.546019 -147.711258 
L 625.60688 -149.208778 
L 625.661648 -150.706299 
L 625.71287 -152.20382 
L 625.764079 -153.70134 
L 625.81874 -155.198861 
L 625.87488 -156.696382 
L 625.929461 -158.193902 
L 625.984176 -159.691423 
L 626.038529 -161.188944 
L 626.086385 -162.686464 
L 626.125702 -164.183985 
L 626.161304 -165.681506 
L 626.195878 -167.179026 
L 626.228179 -168.676547 
L 626.259193 -170.174068 
L 626.293251 -171.671588 
L 626.33452 -173.169109 
L 626.382822 -174.66663 
L 626.431743 -176.16415 
L 626.474059 -177.661671 
L 626.508487 -179.159192 
L 626.538359 -180.656712 
L 626.566512 -182.154233 
L 626.593382 -183.651754 
L 626.619042 -185.149274 
L 626.646785 -186.646795 
L 626.68522 -188.144316 
L 626.754463 -189.641836 
L 626.892687 -191.139357 
L 627.129299 -192.636878 
L 627.42994 -194.134398 
L 627.700524 -195.631919 
L 627.871045 -197.12944 
L 627.946124 -198.62696 
L 628.003876 -198.62696 
L 628.003876 -198.62696 
L 628.078955 -197.12944 
L 628.249476 -195.631919 
L 628.52006 -194.134398 
L 628.820701 -192.636878 
L 629.057313 -191.139357 
L 629.195537 -189.641836 
L 629.26478 -188.144316 
L 629.303215 -186.646795 
L 629.330958 -185.149274 
L 629.356618 -183.651754 
L 629.383488 -182.154233 
L 629.411641 -180.656712 
L 629.441513 -179.159192 
L 629.475941 -177.661671 
L 629.518257 -176.16415 
L 629.567178 -174.66663 
L 629.61548 -173.169109 
L 629.656749 -171.671588 
L 629.690807 -170.174068 
L 629.721821 -168.676547 
L 629.754122 -167.179026 
L 629.788696 -165.681506 
L 629.824298 -164.183985 
L 629.863615 -162.686464 
L 629.911471 -161.188944 
L 629.965824 -159.691423 
L 630.020539 -158.193902 
L 630.07512 -156.696382 
L 630.13126 -155.198861 
L 630.185921 -153.70134 
L 630.23713 -152.20382 
L 630.288352 -150.706299 
L 630.34312 -149.208778 
L 630.403981 -147.711258 
L 630.472302 -146.213737 
L 630.541767 -144.716216 
L 630.603384 -143.218696 
L 630.660323 -141.721175 
L 630.72521 -140.223654 
L 630.802314 -138.726134 
L 630.882872 -137.228613 
L 630.960542 -135.731092 
L 631.041509 -134.233572 
L 631.133352 -132.736051 
L 631.232651 -131.23853 
L 631.328424 -129.74101 
L 631.415956 -128.243489 
L 631.506312 -126.745968 
L 631.615897 -125.248448 
L 631.748222 -123.750927 
L 631.893615 -122.253407 
L 632.040836 -120.755886 
L 632.182796 -119.258365 
L 632.316663 -117.760845 
L 632.44553 -116.263324 
L 632.579291 -114.765803 
L 632.726396 -113.268283 
L 632.885653 -111.770762 
L 633.05282 -110.273241 
L 633.230453 -108.775721 
L 633.426481 -107.2782 
L 633.647293 -105.780679 
L 633.892669 -104.283159 
L 634.156379 -102.785638 
L 634.432513 -101.288117 
L 634.719652 -99.790597 
L 635.017802 -98.293076 
L 635.322054 -96.795555 
L 635.624151 -95.298035 
L 635.921085 -93.800514 
L 636.214843 -92.302993 
L 636.509489 -90.805473 
L 636.814192 -89.307952 
L 637.131432 -87.810431 
L 637.437189 -86.312911 
L 637.690886 -84.81539 
L 637.863723 -83.317869 
L 637.939286 -81.820349 
L 637.886074 -80.322828 
L 637.644316 -78.825307 
L 637.146387 -77.327787 
L 636.351623 -75.830266 
L 635.27329 -74.332745 
L 633.985681 -72.835225 
L 632.607466 -71.337704 
L 631.273123 -69.840183 
L 630.110758 -68.342663 
L 629.219786 -66.845142 
L 628.633796 -65.347621 
L 628.30363 -63.850101 
L 628.137418 -62.35258 
L 628.056735 -60.855059 
L 628.016747 -59.357539 
L 627.996468 -57.860018 
L 627.986 -56.362497 
L 627.980378 -54.864977 
L 627.977318 -53.367456 
L 627.975812 -51.869935 
L 627.975218 -50.372415 
z
" id="m1f5bfafcac" style="stroke:#767676;stroke-width:0.5;"/>
    </defs>
    <g clip-path="url(#p968308a979)">
     <use style="fill:#aeccdb;stroke:#767676;stroke-width:0.5;" x="0" xlink:href="#m1f5bfafcac" y="236.605187"/>
    </g>
   </g>
   <g id="line2d_71">
    <path clip-path="url(#p968308a979)" d="M 627.975 181.301558 
L 627.975 42.909442 
" style="fill:none;stroke:#767676;stroke-linecap:round;stroke-width:0.75;"/>
   </g>
   <g id="line2d_72">
    <path clip-path="url(#p968308a979)" d="M 627.975 151.790987 
L 627.975 107.256431 
" style="fill:none;stroke:#767676;stroke-linecap:round;stroke-width:2.25;"/>
   </g>
   <g id="line2d_73">
    <path clip-path="url(#p968308a979)" d="M 627.975 135.575118 
" style="fill:none;stroke:#767676;stroke-linecap:round;stroke-width:1.5;"/>
    <defs>
     <path d="M 0.9375 0 
L -0.9375 -0 
" id="m65afb037aa" style="stroke:#ffffff;stroke-width:0.45;"/>
    </defs>
    <g clip-path="url(#p968308a979)">
     <use style="fill:#ffffff;stroke:#ffffff;stroke-width:0.45;" x="627.975" xlink:href="#m65afb037aa" y="135.575118"/>
    </g>
   </g>
   <g id="patch_31">
    <path d="M 603.064286 193.6455 
L 603.064286 30.5655 
" style="fill:none;stroke:#262626;stroke-linecap:square;stroke-linejoin:miter;stroke-width:1.25;"/>
   </g>
   <g id="text_39">
    <!-- c) -->
    <g style="fill:#262626;" transform="translate(575.6625 26.406125)scale(0.2 -0.2)">
     <defs>
      <path d="M 3291 997 
Q 3169 466 2822 187 
Q 2475 -91 1925 -91 
Q 1200 -91 759 389 
Q 319 869 319 1663 
Q 319 2459 759 2936 
Q 1200 3413 1925 3413 
Q 2241 3413 2553 3339 
Q 2866 3266 3181 3116 
L 3181 2266 
L 2847 2266 
Q 2781 2703 2561 2903 
Q 2341 3103 1931 3103 
Q 1466 3103 1228 2742 
Q 991 2381 991 1663 
Q 991 944 1227 581 
Q 1463 219 1931 219 
Q 2303 219 2525 412 
Q 2747 606 2828 997 
L 3291 997 
z
" id="DejaVuSerif-63" transform="scale(0.015625)"/>
     </defs>
     <use xlink:href="#DejaVuSerif-63"/>
     <use x="56.005859" xlink:href="#DejaVuSerif-29"/>
    </g>
   </g>
  </g>
  <g id="axes_4">
   <g id="patch_32">
    <path d="M 736.585714 193.6455 
L 786.407143 193.6455 
L 786.407143 30.5655 
L 736.585714 30.5655 
z
" style="fill:#ffffff;"/>
   </g>
   <g id="matplotlib.axis_7"/>
   <g id="matplotlib.axis_8">
    <g id="ytick_17">
     <g id="line2d_74">
      <g>
       <use style="fill:#262626;stroke:#262626;stroke-width:1.25;" x="736.585714" xlink:href="#m41105fad8a" y="182.284584"/>
      </g>
     </g>
     <g id="text_40">
      <!-- 5 -->
      <g style="fill:#262626;" transform="translate(710.869308 186.463725)scale(0.11 -0.11)">
       <defs>
        <path d="M 678 2272 
L 4684 2272 
L 4684 1741 
L 678 1741 
L 678 2272 
z
" id="DejaVuSans-2212" transform="scale(0.015625)"/>
       </defs>
       <use xlink:href="#DejaVuSans-2212"/>
       <use x="83.789062" xlink:href="#DejaVuSans-35"/>
      </g>
     </g>
    </g>
    <g id="ytick_18">
     <g id="line2d_75">
      <g>
       <use style="fill:#262626;stroke:#262626;stroke-width:1.25;" x="736.585714" xlink:href="#m41105fad8a" y="147.195542"/>
      </g>
     </g>
     <g id="text_41">
      <!-- 0 -->
      <g style="fill:#262626;" transform="translate(720.086964 151.374682)scale(0.11 -0.11)">
       <use xlink:href="#DejaVuSans-30"/>
      </g>
     </g>
    </g>
    <g id="ytick_19">
     <g id="line2d_76">
      <g>
       <use style="fill:#262626;stroke:#262626;stroke-width:1.25;" x="736.585714" xlink:href="#m41105fad8a" y="112.106499"/>
      </g>
     </g>
     <g id="text_42">
      <!-- 5 -->
      <g style="fill:#262626;" transform="translate(720.086964 116.285639)scale(0.11 -0.11)">
       <use xlink:href="#DejaVuSans-35"/>
      </g>
     </g>
    </g>
    <g id="ytick_20">
     <g id="line2d_77">
      <g>
       <use style="fill:#262626;stroke:#262626;stroke-width:1.25;" x="736.585714" xlink:href="#m41105fad8a" y="77.017456"/>
      </g>
     </g>
     <g id="text_43">
      <!-- 10 -->
      <g style="fill:#262626;" transform="translate(713.088214 81.196597)scale(0.11 -0.11)">
       <use xlink:href="#DejaVuSans-31"/>
       <use x="63.623047" xlink:href="#DejaVuSans-30"/>
      </g>
     </g>
    </g>
    <g id="ytick_21">
     <g id="line2d_78">
      <g>
       <use style="fill:#262626;stroke:#262626;stroke-width:1.25;" x="736.585714" xlink:href="#m41105fad8a" y="41.928413"/>
      </g>
     </g>
     <g id="text_44">
      <!-- 15 -->
      <g style="fill:#262626;" transform="translate(713.088214 46.107554)scale(0.11 -0.11)">
       <use xlink:href="#DejaVuSans-31"/>
       <use x="63.623047" xlink:href="#DejaVuSans-35"/>
      </g>
     </g>
    </g>
    <g id="text_45">
     <!-- % change in broadness -->
     <g style="fill:#262626;" transform="translate(704.373683 182.12175)rotate(-90)scale(0.12 -0.12)">
      <use xlink:href="#DejaVuSans-25"/>
      <use x="95.019531" xlink:href="#DejaVuSans-20"/>
      <use x="126.806641" xlink:href="#DejaVuSans-63"/>
      <use x="181.787109" xlink:href="#DejaVuSans-68"/>
      <use x="245.166016" xlink:href="#DejaVuSans-61"/>
      <use x="306.445312" xlink:href="#DejaVuSans-6e"/>
      <use x="369.824219" xlink:href="#DejaVuSans-67"/>
      <use x="433.300781" xlink:href="#DejaVuSans-65"/>
      <use x="494.824219" xlink:href="#DejaVuSans-20"/>
      <use x="526.611328" xlink:href="#DejaVuSans-69"/>
      <use x="554.394531" xlink:href="#DejaVuSans-6e"/>
      <use x="617.773438" xlink:href="#DejaVuSans-20"/>
      <use x="649.560547" xlink:href="#DejaVuSans-62"/>
      <use x="713.037109" xlink:href="#DejaVuSans-72"/>
      <use x="751.900391" xlink:href="#DejaVuSans-6f"/>
      <use x="813.082031" xlink:href="#DejaVuSans-61"/>
      <use x="874.361328" xlink:href="#DejaVuSans-64"/>
      <use x="937.837891" xlink:href="#DejaVuSans-6e"/>
      <use x="1001.216797" xlink:href="#DejaVuSans-65"/>
      <use x="1062.740234" xlink:href="#DejaVuSans-73"/>
      <use x="1114.839844" xlink:href="#DejaVuSans-73"/>
     </g>
    </g>
   </g>
   <g id="PolyCollection_7">
    <defs>
     <path d="M 761.50738 -50.372415 
L 761.485477 -50.372415 
L 761.444007 -51.869935 
L 761.338235 -53.367456 
L 761.175741 -54.864977 
L 761.016187 -56.362497 
L 760.89953 -57.860018 
L 760.812887 -59.357539 
L 760.726108 -60.855059 
L 760.616863 -62.35258 
L 760.475576 -63.850101 
L 760.305878 -65.347621 
L 760.113506 -66.845142 
L 759.896643 -68.342663 
L 759.650886 -69.840183 
L 759.367269 -71.337704 
L 759.028892 -72.835225 
L 758.625741 -74.332745 
L 758.165156 -75.830266 
L 757.646682 -77.327787 
L 757.045555 -78.825307 
L 756.35815 -80.322828 
L 755.629632 -81.820349 
L 754.900541 -83.317869 
L 754.177506 -84.81539 
L 753.470786 -86.312911 
L 752.812749 -87.810431 
L 752.254488 -89.307952 
L 751.854188 -90.805473 
L 751.62949 -92.302993 
L 751.539071 -93.800514 
L 751.532143 -95.298035 
L 751.596725 -96.795555 
L 751.745919 -98.293076 
L 751.969448 -99.790597 
L 752.251025 -101.288117 
L 752.589146 -102.785638 
L 752.959746 -104.283159 
L 753.331621 -105.780679 
L 753.697805 -107.2782 
L 754.05989 -108.775721 
L 754.416492 -110.273241 
L 754.765736 -111.770762 
L 755.100323 -113.268283 
L 755.420314 -114.765803 
L 755.741789 -116.263324 
L 756.060718 -117.760845 
L 756.347154 -119.258365 
L 756.5941 -120.755886 
L 756.825485 -122.253407 
L 757.059218 -123.750927 
L 757.289622 -125.248448 
L 757.506001 -126.745968 
L 757.717905 -128.243489 
L 757.93228 -129.74101 
L 758.129492 -131.23853 
L 758.300931 -132.736051 
L 758.467836 -134.233572 
L 758.642116 -135.731092 
L 758.807317 -137.228613 
L 758.941948 -138.726134 
L 759.045802 -140.223654 
L 759.13906 -141.721175 
L 759.242292 -143.218696 
L 759.359251 -144.716216 
L 759.473871 -146.213737 
L 759.57458 -147.711258 
L 759.667195 -149.208778 
L 759.75806 -150.706299 
L 759.845113 -152.20382 
L 759.926043 -153.70134 
L 760.000459 -155.198861 
L 760.068565 -156.696382 
L 760.132122 -158.193902 
L 760.192189 -159.691423 
L 760.249257 -161.188944 
L 760.305599 -162.686464 
L 760.36015 -164.183985 
L 760.407606 -165.681506 
L 760.449799 -167.179026 
L 760.491611 -168.676547 
L 760.531655 -170.174068 
L 760.567898 -171.671588 
L 760.604922 -173.169109 
L 760.645662 -174.66663 
L 760.684321 -176.16415 
L 760.719266 -177.661671 
L 760.756118 -179.159192 
L 760.796736 -180.656712 
L 760.837737 -182.154233 
L 760.873775 -183.651754 
L 760.903305 -185.149274 
L 760.930182 -186.646795 
L 760.953996 -188.144316 
L 760.972375 -189.641836 
L 760.999686 -191.139357 
L 761.069273 -192.636878 
L 761.19838 -194.134398 
L 761.345725 -195.631919 
L 761.445889 -197.12944 
L 761.485825 -198.62696 
L 761.507032 -198.62696 
L 761.507032 -198.62696 
L 761.546968 -197.12944 
L 761.647132 -195.631919 
L 761.794477 -194.134398 
L 761.923584 -192.636878 
L 761.993171 -191.139357 
L 762.020482 -189.641836 
L 762.038861 -188.144316 
L 762.062676 -186.646795 
L 762.089552 -185.149274 
L 762.119082 -183.651754 
L 762.15512 -182.154233 
L 762.196121 -180.656712 
L 762.236739 -179.159192 
L 762.273591 -177.661671 
L 762.308536 -176.16415 
L 762.347195 -174.66663 
L 762.387935 -173.169109 
L 762.424959 -171.671588 
L 762.461202 -170.174068 
L 762.501246 -168.676547 
L 762.543058 -167.179026 
L 762.585251 -165.681506 
L 762.632707 -164.183985 
L 762.687258 -162.686464 
L 762.7436 -161.188944 
L 762.800668 -159.691423 
L 762.860735 -158.193902 
L 762.924292 -156.696382 
L 762.992399 -155.198861 
L 763.066814 -153.70134 
L 763.147745 -152.20382 
L 763.234797 -150.706299 
L 763.325662 -149.208778 
L 763.418277 -147.711258 
L 763.518986 -146.213737 
L 763.633607 -144.716216 
L 763.750565 -143.218696 
L 763.853797 -141.721175 
L 763.947055 -140.223654 
L 764.050909 -138.726134 
L 764.18554 -137.228613 
L 764.350741 -135.731092 
L 764.525022 -134.233572 
L 764.691926 -132.736051 
L 764.863365 -131.23853 
L 765.060577 -129.74101 
L 765.274952 -128.243489 
L 765.486856 -126.745968 
L 765.703235 -125.248448 
L 765.933639 -123.750927 
L 766.167372 -122.253407 
L 766.398757 -120.755886 
L 766.645703 -119.258365 
L 766.932139 -117.760845 
L 767.251068 -116.263324 
L 767.572543 -114.765803 
L 767.892535 -113.268283 
L 768.227121 -111.770762 
L 768.576365 -110.273241 
L 768.932968 -108.775721 
L 769.295052 -107.2782 
L 769.661236 -105.780679 
L 770.033111 -104.283159 
L 770.403711 -102.785638 
L 770.741832 -101.288117 
L 771.023409 -99.790597 
L 771.246939 -98.293076 
L 771.396132 -96.795555 
L 771.460714 -95.298035 
L 771.453786 -93.800514 
L 771.363367 -92.302993 
L 771.138669 -90.805473 
L 770.738369 -89.307952 
L 770.180108 -87.810431 
L 769.522072 -86.312911 
L 768.815351 -84.81539 
L 768.092316 -83.317869 
L 767.363226 -81.820349 
L 766.634707 -80.322828 
L 765.947302 -78.825307 
L 765.346175 -77.327787 
L 764.827701 -75.830266 
L 764.367116 -74.332745 
L 763.963965 -72.835225 
L 763.625588 -71.337704 
L 763.341971 -69.840183 
L 763.096214 -68.342663 
L 762.879351 -66.845142 
L 762.686979 -65.347621 
L 762.517282 -63.850101 
L 762.375995 -62.35258 
L 762.266749 -60.855059 
L 762.17997 -59.357539 
L 762.093327 -57.860018 
L 761.97667 -56.362497 
L 761.817116 -54.864977 
L 761.654622 -53.367456 
L 761.54885 -51.869935 
L 761.50738 -50.372415 
z
" id="m870cbf5fa8" style="stroke:#3f3f3f;stroke-width:0.5;"/>
    </defs>
    <g clip-path="url(#p0cfe6a1520)">
     <use style="fill:#3274a1;stroke:#3f3f3f;stroke-width:0.5;" x="0" xlink:href="#m870cbf5fa8" y="236.605187"/>
    </g>
   </g>
   <g id="line2d_79">
    <path clip-path="url(#p0cfe6a1520)" d="M 761.496429 182.28148 
L 761.496429 66.467741 
" style="fill:none;stroke:#3f3f3f;stroke-linecap:round;stroke-width:0.75;"/>
   </g>
   <g id="line2d_80">
    <path clip-path="url(#p0cfe6a1520)" d="M 761.496429 146.124576 
L 761.496429 114.261439 
" style="fill:none;stroke:#3f3f3f;stroke-linecap:round;stroke-width:2.25;"/>
   </g>
   <g id="line2d_81">
    <path clip-path="url(#p0cfe6a1520)" d="M 761.496429 133.306865 
" style="fill:none;stroke:#3f3f3f;stroke-linecap:round;stroke-width:1.5;"/>
    <g clip-path="url(#p0cfe6a1520)">
     <use style="fill:#ffffff;stroke:#ffffff;stroke-width:0.45;" x="761.496429" xlink:href="#m65afb037aa" y="133.306865"/>
    </g>
   </g>
   <g id="patch_33">
    <path d="M 736.585714 193.6455 
L 736.585714 30.5655 
" style="fill:none;stroke:#262626;stroke-linecap:square;stroke-linejoin:miter;stroke-width:1.25;"/>
   </g>
   <g id="text_46">
    <!-- d) -->
    <g style="fill:#262626;" transform="translate(709.183929 26.406125)scale(0.2 -0.2)">
     <defs>
      <path d="M 3359 331 
L 3909 331 
L 3909 0 
L 2784 0 
L 2784 519 
Q 2616 206 2355 57 
Q 2094 -91 1709 -91 
Q 1097 -91 708 395 
Q 319 881 319 1663 
Q 319 2444 706 2928 
Q 1094 3413 1709 3413 
Q 2094 3413 2355 3264 
Q 2616 3116 2784 2803 
L 2784 4531 
L 2241 4531 
L 2241 4863 
L 3359 4863 
L 3359 331 
z
M 2784 1497 
L 2784 1825 
Q 2784 2422 2554 2737 
Q 2325 3053 1888 3053 
Q 1444 3053 1217 2703 
Q 991 2353 991 1663 
Q 991 975 1217 622 
Q 1444 269 1888 269 
Q 2325 269 2554 583 
Q 2784 897 2784 1497 
z
" id="DejaVuSerif-64" transform="scale(0.015625)"/>
     </defs>
     <use xlink:href="#DejaVuSerif-64"/>
     <use x="64.013672" xlink:href="#DejaVuSerif-29"/>
    </g>
   </g>
  </g>
 </g>
 <defs>
  <clipPath id="p5317983d6f">
   <rect height="163.08" width="199.285714" x="116.807143" y="30.5655"/>
  </clipPath>
  <clipPath id="p3a99d7770e">
   <rect height="163.08" width="119.571429" x="399.792857" y="30.5655"/>
  </clipPath>
  <clipPath id="p968308a979">
   <rect height="163.08" width="49.821429" x="603.064286" y="30.5655"/>
  </clipPath>
  <clipPath id="p0cfe6a1520">
   <rect height="163.08" width="49.821429" x="736.585714" y="30.5655"/>
  </clipPath>
 </defs>
</svg>
