<?xml version="1.0" encoding="utf-8" standalone="no"?>
<!DOCTYPE svg PUBLIC "-//W3C//DTD SVG 1.1//EN"
  "http://www.w3.org/Graphics/SVG/1.1/DTD/svg11.dtd">
<svg height="228.129pt" version="1.1" viewBox="0 0 635.733675 228.129" width="635.733675pt" xmlns="http://www.w3.org/2000/svg" xmlns:xlink="http://www.w3.org/1999/xlink">
 <metadata>
  <rdf:RDF xmlns:cc="http://creativecommons.org/ns#" xmlns:dc="http://purl.org/dc/elements/1.1/" xmlns:rdf="http://www.w3.org/1999/02/22-rdf-syntax-ns#">
   <cc:Work>
    <dc:type rdf:resource="http://purl.org/dc/dcmitype/StillImage"/>
    <dc:date>2024-01-02T15:57:22.010009</dc:date>
    <dc:format>image/svg+xml</dc:format>
    <dc:creator>
     <cc:Agent>
      <dc:title>Matplotlib v3.4.1, https://matplotlib.org/</dc:title>
     </cc:Agent>
    </dc:creator>
   </cc:Work>
  </rdf:RDF>
 </metadata>
 <defs>
  <style type="text/css">*{stroke-linecap:butt;stroke-linejoin:round;}</style>
 </defs>
 <g id="figure_1">
  <g id="patch_1">
   <path d="M 0 228.129 
L 635.733675 228.129 
L 635.733675 0 
L 0 0 
z
" style="fill:#ffffff;"/>
  </g>
  <g id="axes_1">
   <g id="patch_2">
    <path d="M 61.786957 157.02025 
L 183.091304 157.02025 
L 183.091304 26.55625 
L 61.786957 26.55625 
z
" style="fill:#ffffff;"/>
   </g>
   <g id="matplotlib.axis_1">
    <g id="xtick_1">
     <g id="line2d_1">
      <defs>
       <path d="M 0 0 
L 0 6 
" id="m60aee8a293" style="stroke:#262626;stroke-width:1.25;"/>
      </defs>
      <g>
       <use style="fill:#262626;stroke:#262626;stroke-width:1.25;" x="92.113043" xlink:href="#m60aee8a293" y="157.02025"/>
      </g>
     </g>
     <g id="text_1">
      <!-- multi -->
      <g style="fill:#262626;" transform="translate(82.830762 207.779703)rotate(-90)scale(0.11 -0.11)">
       <defs>
        <path d="M 3328 2828 
Q 3544 3216 3844 3400 
Q 4144 3584 4550 3584 
Q 5097 3584 5394 3201 
Q 5691 2819 5691 2113 
L 5691 0 
L 5113 0 
L 5113 2094 
Q 5113 2597 4934 2840 
Q 4756 3084 4391 3084 
Q 3944 3084 3684 2787 
Q 3425 2491 3425 1978 
L 3425 0 
L 2847 0 
L 2847 2094 
Q 2847 2600 2669 2842 
Q 2491 3084 2119 3084 
Q 1678 3084 1418 2786 
Q 1159 2488 1159 1978 
L 1159 0 
L 581 0 
L 581 3500 
L 1159 3500 
L 1159 2956 
Q 1356 3278 1631 3431 
Q 1906 3584 2284 3584 
Q 2666 3584 2933 3390 
Q 3200 3197 3328 2828 
z
" id="DejaVuSans-6d" transform="scale(0.015625)"/>
        <path d="M 544 1381 
L 544 3500 
L 1119 3500 
L 1119 1403 
Q 1119 906 1312 657 
Q 1506 409 1894 409 
Q 2359 409 2629 706 
Q 2900 1003 2900 1516 
L 2900 3500 
L 3475 3500 
L 3475 0 
L 2900 0 
L 2900 538 
Q 2691 219 2414 64 
Q 2138 -91 1772 -91 
Q 1169 -91 856 284 
Q 544 659 544 1381 
z
M 1991 3584 
L 1991 3584 
z
" id="DejaVuSans-75" transform="scale(0.015625)"/>
        <path d="M 603 4863 
L 1178 4863 
L 1178 0 
L 603 0 
L 603 4863 
z
" id="DejaVuSans-6c" transform="scale(0.015625)"/>
        <path d="M 1172 4494 
L 1172 3500 
L 2356 3500 
L 2356 3053 
L 1172 3053 
L 1172 1153 
Q 1172 725 1289 603 
Q 1406 481 1766 481 
L 2356 481 
L 2356 0 
L 1766 0 
Q 1100 0 847 248 
Q 594 497 594 1153 
L 594 3053 
L 172 3053 
L 172 3500 
L 594 3500 
L 594 4494 
L 1172 4494 
z
" id="DejaVuSans-74" transform="scale(0.015625)"/>
        <path d="M 603 3500 
L 1178 3500 
L 1178 0 
L 603 0 
L 603 3500 
z
M 603 4863 
L 1178 4863 
L 1178 4134 
L 603 4134 
L 603 4863 
z
" id="DejaVuSans-69" transform="scale(0.015625)"/>
       </defs>
       <use xlink:href="#DejaVuSans-6d"/>
       <use x="97.412109" xlink:href="#DejaVuSans-75"/>
       <use x="160.791016" xlink:href="#DejaVuSans-6c"/>
       <use x="188.574219" xlink:href="#DejaVuSans-74"/>
       <use x="227.783203" xlink:href="#DejaVuSans-69"/>
      </g>
      <!-- university -->
      <g style="fill:#262626;" transform="translate(95.148356 220.929)rotate(-90)scale(0.11 -0.11)">
       <defs>
        <path d="M 3513 2113 
L 3513 0 
L 2938 0 
L 2938 2094 
Q 2938 2591 2744 2837 
Q 2550 3084 2163 3084 
Q 1697 3084 1428 2787 
Q 1159 2491 1159 1978 
L 1159 0 
L 581 0 
L 581 3500 
L 1159 3500 
L 1159 2956 
Q 1366 3272 1645 3428 
Q 1925 3584 2291 3584 
Q 2894 3584 3203 3211 
Q 3513 2838 3513 2113 
z
" id="DejaVuSans-6e" transform="scale(0.015625)"/>
        <path d="M 191 3500 
L 800 3500 
L 1894 563 
L 2988 3500 
L 3597 3500 
L 2284 0 
L 1503 0 
L 191 3500 
z
" id="DejaVuSans-76" transform="scale(0.015625)"/>
        <path d="M 3597 1894 
L 3597 1613 
L 953 1613 
Q 991 1019 1311 708 
Q 1631 397 2203 397 
Q 2534 397 2845 478 
Q 3156 559 3463 722 
L 3463 178 
Q 3153 47 2828 -22 
Q 2503 -91 2169 -91 
Q 1331 -91 842 396 
Q 353 884 353 1716 
Q 353 2575 817 3079 
Q 1281 3584 2069 3584 
Q 2775 3584 3186 3129 
Q 3597 2675 3597 1894 
z
M 3022 2063 
Q 3016 2534 2758 2815 
Q 2500 3097 2075 3097 
Q 1594 3097 1305 2825 
Q 1016 2553 972 2059 
L 3022 2063 
z
" id="DejaVuSans-65" transform="scale(0.015625)"/>
        <path d="M 2631 2963 
Q 2534 3019 2420 3045 
Q 2306 3072 2169 3072 
Q 1681 3072 1420 2755 
Q 1159 2438 1159 1844 
L 1159 0 
L 581 0 
L 581 3500 
L 1159 3500 
L 1159 2956 
Q 1341 3275 1631 3429 
Q 1922 3584 2338 3584 
Q 2397 3584 2469 3576 
Q 2541 3569 2628 3553 
L 2631 2963 
z
" id="DejaVuSans-72" transform="scale(0.015625)"/>
        <path d="M 2834 3397 
L 2834 2853 
Q 2591 2978 2328 3040 
Q 2066 3103 1784 3103 
Q 1356 3103 1142 2972 
Q 928 2841 928 2578 
Q 928 2378 1081 2264 
Q 1234 2150 1697 2047 
L 1894 2003 
Q 2506 1872 2764 1633 
Q 3022 1394 3022 966 
Q 3022 478 2636 193 
Q 2250 -91 1575 -91 
Q 1294 -91 989 -36 
Q 684 19 347 128 
L 347 722 
Q 666 556 975 473 
Q 1284 391 1588 391 
Q 1994 391 2212 530 
Q 2431 669 2431 922 
Q 2431 1156 2273 1281 
Q 2116 1406 1581 1522 
L 1381 1569 
Q 847 1681 609 1914 
Q 372 2147 372 2553 
Q 372 3047 722 3315 
Q 1072 3584 1716 3584 
Q 2034 3584 2315 3537 
Q 2597 3491 2834 3397 
z
" id="DejaVuSans-73" transform="scale(0.015625)"/>
        <path d="M 2059 -325 
Q 1816 -950 1584 -1140 
Q 1353 -1331 966 -1331 
L 506 -1331 
L 506 -850 
L 844 -850 
Q 1081 -850 1212 -737 
Q 1344 -625 1503 -206 
L 1606 56 
L 191 3500 
L 800 3500 
L 1894 763 
L 2988 3500 
L 3597 3500 
L 2059 -325 
z
" id="DejaVuSans-79" transform="scale(0.015625)"/>
       </defs>
       <use xlink:href="#DejaVuSans-75"/>
       <use x="63.378906" xlink:href="#DejaVuSans-6e"/>
       <use x="126.757812" xlink:href="#DejaVuSans-69"/>
       <use x="154.541016" xlink:href="#DejaVuSans-76"/>
       <use x="213.720703" xlink:href="#DejaVuSans-65"/>
       <use x="275.244141" xlink:href="#DejaVuSans-72"/>
       <use x="316.357422" xlink:href="#DejaVuSans-73"/>
       <use x="368.457031" xlink:href="#DejaVuSans-69"/>
       <use x="396.240234" xlink:href="#DejaVuSans-74"/>
       <use x="435.449219" xlink:href="#DejaVuSans-79"/>
      </g>
      <!-- core -->
      <g style="fill:#262626;" transform="translate(107.46595 205.635562)rotate(-90)scale(0.11 -0.11)">
       <defs>
        <path d="M 3122 3366 
L 3122 2828 
Q 2878 2963 2633 3030 
Q 2388 3097 2138 3097 
Q 1578 3097 1268 2742 
Q 959 2388 959 1747 
Q 959 1106 1268 751 
Q 1578 397 2138 397 
Q 2388 397 2633 464 
Q 2878 531 3122 666 
L 3122 134 
Q 2881 22 2623 -34 
Q 2366 -91 2075 -91 
Q 1284 -91 818 406 
Q 353 903 353 1747 
Q 353 2603 823 3093 
Q 1294 3584 2113 3584 
Q 2378 3584 2631 3529 
Q 2884 3475 3122 3366 
z
" id="DejaVuSans-63" transform="scale(0.015625)"/>
        <path d="M 1959 3097 
Q 1497 3097 1228 2736 
Q 959 2375 959 1747 
Q 959 1119 1226 758 
Q 1494 397 1959 397 
Q 2419 397 2687 759 
Q 2956 1122 2956 1747 
Q 2956 2369 2687 2733 
Q 2419 3097 1959 3097 
z
M 1959 3584 
Q 2709 3584 3137 3096 
Q 3566 2609 3566 1747 
Q 3566 888 3137 398 
Q 2709 -91 1959 -91 
Q 1206 -91 779 398 
Q 353 888 353 1747 
Q 353 2609 779 3096 
Q 1206 3584 1959 3584 
z
" id="DejaVuSans-6f" transform="scale(0.015625)"/>
       </defs>
       <use xlink:href="#DejaVuSans-63"/>
       <use x="54.980469" xlink:href="#DejaVuSans-6f"/>
       <use x="116.162109" xlink:href="#DejaVuSans-72"/>
       <use x="155.025391" xlink:href="#DejaVuSans-65"/>
      </g>
     </g>
    </g>
    <g id="xtick_2">
     <g id="line2d_2">
      <g>
       <use style="fill:#262626;stroke:#262626;stroke-width:1.25;" x="152.765217" xlink:href="#m60aee8a293" y="157.02025"/>
      </g>
     </g>
     <g id="text_2">
      <!-- mono -->
      <g style="fill:#262626;" transform="translate(143.482936 209.298219)rotate(-90)scale(0.11 -0.11)">
       <use xlink:href="#DejaVuSans-6d"/>
       <use x="97.412109" xlink:href="#DejaVuSans-6f"/>
       <use x="158.59375" xlink:href="#DejaVuSans-6e"/>
       <use x="221.972656" xlink:href="#DejaVuSans-6f"/>
      </g>
      <!-- university -->
      <g style="fill:#262626;" transform="translate(155.80053 220.929)rotate(-90)scale(0.11 -0.11)">
       <use xlink:href="#DejaVuSans-75"/>
       <use x="63.378906" xlink:href="#DejaVuSans-6e"/>
       <use x="126.757812" xlink:href="#DejaVuSans-69"/>
       <use x="154.541016" xlink:href="#DejaVuSans-76"/>
       <use x="213.720703" xlink:href="#DejaVuSans-65"/>
       <use x="275.244141" xlink:href="#DejaVuSans-72"/>
       <use x="316.357422" xlink:href="#DejaVuSans-73"/>
       <use x="368.457031" xlink:href="#DejaVuSans-69"/>
       <use x="396.240234" xlink:href="#DejaVuSans-74"/>
       <use x="435.449219" xlink:href="#DejaVuSans-79"/>
      </g>
      <!-- core -->
      <g style="fill:#262626;" transform="translate(168.118124 205.635562)rotate(-90)scale(0.11 -0.11)">
       <use xlink:href="#DejaVuSans-63"/>
       <use x="54.980469" xlink:href="#DejaVuSans-6f"/>
       <use x="116.162109" xlink:href="#DejaVuSans-72"/>
       <use x="155.025391" xlink:href="#DejaVuSans-65"/>
      </g>
     </g>
    </g>
   </g>
   <g id="matplotlib.axis_2">
    <g id="ytick_1">
     <g id="line2d_3">
      <defs>
       <path d="M 0 0 
L -6 0 
" id="mead3a41b5c" style="stroke:#262626;stroke-width:1.25;"/>
      </defs>
      <g>
       <use style="fill:#262626;stroke:#262626;stroke-width:1.25;" x="61.786957" xlink:href="#mead3a41b5c" y="127.274077"/>
      </g>
     </g>
     <g id="text_3">
      <!-- 5 -->
      <g style="fill:#262626;" transform="translate(45.288207 131.453218)scale(0.11 -0.11)">
       <defs>
        <path d="M 691 4666 
L 3169 4666 
L 3169 4134 
L 1269 4134 
L 1269 2991 
Q 1406 3038 1543 3061 
Q 1681 3084 1819 3084 
Q 2600 3084 3056 2656 
Q 3513 2228 3513 1497 
Q 3513 744 3044 326 
Q 2575 -91 1722 -91 
Q 1428 -91 1123 -41 
Q 819 9 494 109 
L 494 744 
Q 775 591 1075 516 
Q 1375 441 1709 441 
Q 2250 441 2565 725 
Q 2881 1009 2881 1497 
Q 2881 1984 2565 2268 
Q 2250 2553 1709 2553 
Q 1456 2553 1204 2497 
Q 953 2441 691 2322 
L 691 4666 
z
" id="DejaVuSans-35" transform="scale(0.015625)"/>
       </defs>
       <use xlink:href="#DejaVuSans-35"/>
      </g>
     </g>
    </g>
    <g id="ytick_2">
     <g id="line2d_4">
      <g>
       <use style="fill:#262626;stroke:#262626;stroke-width:1.25;" x="61.786957" xlink:href="#mead3a41b5c" y="97.504088"/>
      </g>
     </g>
     <g id="text_4">
      <!-- 10 -->
      <g style="fill:#262626;" transform="translate(38.289457 101.683229)scale(0.11 -0.11)">
       <defs>
        <path d="M 794 531 
L 1825 531 
L 1825 4091 
L 703 3866 
L 703 4441 
L 1819 4666 
L 2450 4666 
L 2450 531 
L 3481 531 
L 3481 0 
L 794 0 
L 794 531 
z
" id="DejaVuSans-31" transform="scale(0.015625)"/>
        <path d="M 2034 4250 
Q 1547 4250 1301 3770 
Q 1056 3291 1056 2328 
Q 1056 1369 1301 889 
Q 1547 409 2034 409 
Q 2525 409 2770 889 
Q 3016 1369 3016 2328 
Q 3016 3291 2770 3770 
Q 2525 4250 2034 4250 
z
M 2034 4750 
Q 2819 4750 3233 4129 
Q 3647 3509 3647 2328 
Q 3647 1150 3233 529 
Q 2819 -91 2034 -91 
Q 1250 -91 836 529 
Q 422 1150 422 2328 
Q 422 3509 836 4129 
Q 1250 4750 2034 4750 
z
" id="DejaVuSans-30" transform="scale(0.015625)"/>
       </defs>
       <use xlink:href="#DejaVuSans-31"/>
       <use x="63.623047" xlink:href="#DejaVuSans-30"/>
      </g>
     </g>
    </g>
    <g id="ytick_3">
     <g id="line2d_5">
      <g>
       <use style="fill:#262626;stroke:#262626;stroke-width:1.25;" x="61.786957" xlink:href="#mead3a41b5c" y="67.734099"/>
      </g>
     </g>
     <g id="text_5">
      <!-- 15 -->
      <g style="fill:#262626;" transform="translate(38.289457 71.913239)scale(0.11 -0.11)">
       <use xlink:href="#DejaVuSans-31"/>
       <use x="63.623047" xlink:href="#DejaVuSans-35"/>
      </g>
     </g>
    </g>
    <g id="ytick_4">
     <g id="line2d_6">
      <g>
       <use style="fill:#262626;stroke:#262626;stroke-width:1.25;" x="61.786957" xlink:href="#mead3a41b5c" y="37.96411"/>
      </g>
     </g>
     <g id="text_6">
      <!-- 20 -->
      <g style="fill:#262626;" transform="translate(38.289457 42.14325)scale(0.11 -0.11)">
       <defs>
        <path d="M 1228 531 
L 3431 531 
L 3431 0 
L 469 0 
L 469 531 
Q 828 903 1448 1529 
Q 2069 2156 2228 2338 
Q 2531 2678 2651 2914 
Q 2772 3150 2772 3378 
Q 2772 3750 2511 3984 
Q 2250 4219 1831 4219 
Q 1534 4219 1204 4116 
Q 875 4013 500 3803 
L 500 4441 
Q 881 4594 1212 4672 
Q 1544 4750 1819 4750 
Q 2544 4750 2975 4387 
Q 3406 4025 3406 3419 
Q 3406 3131 3298 2873 
Q 3191 2616 2906 2266 
Q 2828 2175 2409 1742 
Q 1991 1309 1228 531 
z
" id="DejaVuSans-32" transform="scale(0.015625)"/>
       </defs>
       <use xlink:href="#DejaVuSans-32"/>
       <use x="63.623047" xlink:href="#DejaVuSans-30"/>
      </g>
     </g>
    </g>
    <g id="text_7">
     <!-- career length -->
     <g style="fill:#262626;" transform="translate(31.793832 131.977937)rotate(-90)scale(0.12 -0.12)">
      <defs>
       <path d="M 2194 1759 
Q 1497 1759 1228 1600 
Q 959 1441 959 1056 
Q 959 750 1161 570 
Q 1363 391 1709 391 
Q 2188 391 2477 730 
Q 2766 1069 2766 1631 
L 2766 1759 
L 2194 1759 
z
M 3341 1997 
L 3341 0 
L 2766 0 
L 2766 531 
Q 2569 213 2275 61 
Q 1981 -91 1556 -91 
Q 1019 -91 701 211 
Q 384 513 384 1019 
Q 384 1609 779 1909 
Q 1175 2209 1959 2209 
L 2766 2209 
L 2766 2266 
Q 2766 2663 2505 2880 
Q 2244 3097 1772 3097 
Q 1472 3097 1187 3025 
Q 903 2953 641 2809 
L 641 3341 
Q 956 3463 1253 3523 
Q 1550 3584 1831 3584 
Q 2591 3584 2966 3190 
Q 3341 2797 3341 1997 
z
" id="DejaVuSans-61" transform="scale(0.015625)"/>
       <path id="DejaVuSans-20" transform="scale(0.015625)"/>
       <path d="M 2906 1791 
Q 2906 2416 2648 2759 
Q 2391 3103 1925 3103 
Q 1463 3103 1205 2759 
Q 947 2416 947 1791 
Q 947 1169 1205 825 
Q 1463 481 1925 481 
Q 2391 481 2648 825 
Q 2906 1169 2906 1791 
z
M 3481 434 
Q 3481 -459 3084 -895 
Q 2688 -1331 1869 -1331 
Q 1566 -1331 1297 -1286 
Q 1028 -1241 775 -1147 
L 775 -588 
Q 1028 -725 1275 -790 
Q 1522 -856 1778 -856 
Q 2344 -856 2625 -561 
Q 2906 -266 2906 331 
L 2906 616 
Q 2728 306 2450 153 
Q 2172 0 1784 0 
Q 1141 0 747 490 
Q 353 981 353 1791 
Q 353 2603 747 3093 
Q 1141 3584 1784 3584 
Q 2172 3584 2450 3431 
Q 2728 3278 2906 2969 
L 2906 3500 
L 3481 3500 
L 3481 434 
z
" id="DejaVuSans-67" transform="scale(0.015625)"/>
       <path d="M 3513 2113 
L 3513 0 
L 2938 0 
L 2938 2094 
Q 2938 2591 2744 2837 
Q 2550 3084 2163 3084 
Q 1697 3084 1428 2787 
Q 1159 2491 1159 1978 
L 1159 0 
L 581 0 
L 581 4863 
L 1159 4863 
L 1159 2956 
Q 1366 3272 1645 3428 
Q 1925 3584 2291 3584 
Q 2894 3584 3203 3211 
Q 3513 2838 3513 2113 
z
" id="DejaVuSans-68" transform="scale(0.015625)"/>
      </defs>
      <use xlink:href="#DejaVuSans-63"/>
      <use x="54.980469" xlink:href="#DejaVuSans-61"/>
      <use x="116.259766" xlink:href="#DejaVuSans-72"/>
      <use x="155.123047" xlink:href="#DejaVuSans-65"/>
      <use x="216.646484" xlink:href="#DejaVuSans-65"/>
      <use x="278.169922" xlink:href="#DejaVuSans-72"/>
      <use x="319.283203" xlink:href="#DejaVuSans-20"/>
      <use x="351.070312" xlink:href="#DejaVuSans-6c"/>
      <use x="378.853516" xlink:href="#DejaVuSans-65"/>
      <use x="440.376953" xlink:href="#DejaVuSans-6e"/>
      <use x="503.755859" xlink:href="#DejaVuSans-67"/>
      <use x="567.232422" xlink:href="#DejaVuSans-74"/>
      <use x="606.441406" xlink:href="#DejaVuSans-68"/>
     </g>
    </g>
   </g>
   <g id="line2d_7">
    <path clip-path="url(#pd95fa0d4e3)" d="M 92.113043 136.205074 
L 92.113043 151.090068 
" style="fill:none;stroke:#373737;"/>
   </g>
   <g id="line2d_8">
    <path clip-path="url(#pd95fa0d4e3)" d="M 92.113043 97.801788 
L 92.113043 40.196859 
" style="fill:none;stroke:#373737;"/>
   </g>
   <g id="line2d_9">
    <path clip-path="url(#pd95fa0d4e3)" d="M 87.56413 151.090068 
L 96.661957 151.090068 
" style="fill:none;stroke:#373737;stroke-linecap:round;"/>
   </g>
   <g id="line2d_10">
    <path clip-path="url(#pd95fa0d4e3)" d="M 87.56413 40.196859 
L 96.661957 40.196859 
" style="fill:none;stroke:#373737;stroke-linecap:round;"/>
   </g>
   <g id="line2d_11">
    <path clip-path="url(#pd95fa0d4e3)" d="M 152.765217 135.889512 
L 152.765217 151.090068 
" style="fill:none;stroke:#373737;"/>
   </g>
   <g id="line2d_12">
    <path clip-path="url(#pd95fa0d4e3)" d="M 152.765217 94.527089 
L 152.765217 32.486432 
" style="fill:none;stroke:#373737;"/>
   </g>
   <g id="line2d_13">
    <path clip-path="url(#pd95fa0d4e3)" d="M 148.216304 151.090068 
L 157.31413 151.090068 
" style="fill:none;stroke:#373737;stroke-linecap:round;"/>
   </g>
   <g id="line2d_14">
    <path clip-path="url(#pd95fa0d4e3)" d="M 148.216304 32.486432 
L 157.31413 32.486432 
" style="fill:none;stroke:#373737;stroke-linecap:round;"/>
   </g>
   <g id="patch_3">
    <path clip-path="url(#pd95fa0d4e3)" d="M 83.015217 136.205074 
L 101.21087 136.205074 
L 101.21087 97.801788 
L 83.015217 97.801788 
L 83.015217 136.205074 
z
" style="fill:#2b8e70;stroke:#373737;stroke-linejoin:miter;"/>
   </g>
   <g id="patch_4">
    <path clip-path="url(#pd95fa0d4e3)" d="M 143.667391 135.889512 
L 161.863043 135.889512 
L 161.863043 94.527089 
L 143.667391 94.527089 
L 143.667391 135.889512 
z
" style="fill:#7c78ab;stroke:#373737;stroke-linejoin:miter;"/>
   </g>
   <g id="line2d_15">
    <path clip-path="url(#pd95fa0d4e3)" d="M 83.015217 121.153367 
L 101.21087 121.153367 
" style="fill:none;stroke:#373737;"/>
   </g>
   <g id="line2d_16">
    <path clip-path="url(#pd95fa0d4e3)" d="M 143.667391 120.325762 
L 161.863043 120.325762 
" style="fill:none;stroke:#373737;"/>
   </g>
   <g id="patch_5">
    <path d="M 61.786957 157.02025 
L 61.786957 26.55625 
" style="fill:none;stroke:#262626;stroke-linecap:square;stroke-linejoin:miter;stroke-width:1.25;"/>
   </g>
   <g id="patch_6">
    <path d="M 61.786957 157.02025 
L 183.091304 157.02025 
" style="fill:none;stroke:#262626;stroke-linecap:square;stroke-linejoin:miter;stroke-width:1.25;"/>
   </g>
   <g id="text_8">
    <!-- a) -->
    <g style="fill:#262626;" transform="translate(7.2 22.396875)scale(0.2 -0.2)">
     <defs>
      <path d="M 2547 1044 
L 2547 1747 
L 1806 1747 
Q 1378 1747 1168 1562 
Q 959 1378 959 997 
Q 959 650 1171 447 
Q 1384 244 1747 244 
Q 2106 244 2326 466 
Q 2547 688 2547 1044 
z
M 3122 2075 
L 3122 331 
L 3634 331 
L 3634 0 
L 2547 0 
L 2547 359 
Q 2356 128 2106 18 
Q 1856 -91 1522 -91 
Q 969 -91 644 203 
Q 319 497 319 997 
Q 319 1513 691 1797 
Q 1063 2081 1741 2081 
L 2547 2081 
L 2547 2309 
Q 2547 2688 2317 2895 
Q 2088 3103 1672 3103 
Q 1328 3103 1125 2947 
Q 922 2791 872 2484 
L 575 2484 
L 575 3156 
Q 875 3284 1158 3348 
Q 1441 3413 1709 3413 
Q 2400 3413 2761 3070 
Q 3122 2728 3122 2075 
z
" id="DejaVuSerif-61" transform="scale(0.015625)"/>
      <path d="M 453 -997 
L 453 -691 
Q 934 -359 1145 242 
Q 1356 844 1356 1931 
Q 1356 3022 1145 3623 
Q 934 4225 453 4556 
L 453 4863 
Q 1216 4522 1603 3783 
Q 1991 3044 1991 1931 
Q 1991 822 1603 83 
Q 1216 -656 453 -997 
z
" id="DejaVuSerif-29" transform="scale(0.015625)"/>
     </defs>
     <use xlink:href="#DejaVuSerif-61"/>
     <use x="59.619141" xlink:href="#DejaVuSerif-29"/>
    </g>
   </g>
  </g>
  <g id="axes_2">
   <g id="patch_7">
    <path d="M 280.134783 157.02025 
L 401.43913 157.02025 
L 401.43913 26.55625 
L 280.134783 26.55625 
z
" style="fill:#ffffff;"/>
   </g>
   <g id="matplotlib.axis_3"/>
   <g id="matplotlib.axis_4">
    <g id="ytick_5">
     <g id="line2d_17">
      <g>
       <use style="fill:#262626;stroke:#262626;stroke-width:1.25;" x="280.134783" xlink:href="#mead3a41b5c" y="155.527"/>
      </g>
     </g>
     <g id="text_9">
      <!-- 0 -->
      <g style="fill:#262626;" transform="translate(263.636033 159.706141)scale(0.11 -0.11)">
       <use xlink:href="#DejaVuSans-30"/>
      </g>
     </g>
    </g>
    <g id="ytick_6">
     <g id="line2d_18">
      <g>
       <use style="fill:#262626;stroke:#262626;stroke-width:1.25;" x="280.134783" xlink:href="#mead3a41b5c" y="111.157678"/>
      </g>
     </g>
     <g id="text_10">
      <!-- 10 -->
      <g style="fill:#262626;" transform="translate(256.637283 115.336818)scale(0.11 -0.11)">
       <use xlink:href="#DejaVuSans-31"/>
       <use x="63.623047" xlink:href="#DejaVuSans-30"/>
      </g>
     </g>
    </g>
    <g id="ytick_7">
     <g id="line2d_19">
      <g>
       <use style="fill:#262626;stroke:#262626;stroke-width:1.25;" x="280.134783" xlink:href="#mead3a41b5c" y="66.788355"/>
      </g>
     </g>
     <g id="text_11">
      <!-- 20 -->
      <g style="fill:#262626;" transform="translate(256.637283 70.967496)scale(0.11 -0.11)">
       <use xlink:href="#DejaVuSans-32"/>
       <use x="63.623047" xlink:href="#DejaVuSans-30"/>
      </g>
     </g>
    </g>
    <g id="text_12">
     <!-- career length -->
     <g style="fill:#262626;" transform="translate(250.141658 131.977937)rotate(-90)scale(0.12 -0.12)">
      <use xlink:href="#DejaVuSans-63"/>
      <use x="54.980469" xlink:href="#DejaVuSans-61"/>
      <use x="116.259766" xlink:href="#DejaVuSans-72"/>
      <use x="155.123047" xlink:href="#DejaVuSans-65"/>
      <use x="216.646484" xlink:href="#DejaVuSans-65"/>
      <use x="278.169922" xlink:href="#DejaVuSans-72"/>
      <use x="319.283203" xlink:href="#DejaVuSans-20"/>
      <use x="351.070312" xlink:href="#DejaVuSans-6c"/>
      <use x="378.853516" xlink:href="#DejaVuSans-65"/>
      <use x="440.376953" xlink:href="#DejaVuSans-6e"/>
      <use x="503.755859" xlink:href="#DejaVuSans-67"/>
      <use x="567.232422" xlink:href="#DejaVuSans-74"/>
      <use x="606.441406" xlink:href="#DejaVuSans-68"/>
     </g>
    </g>
   </g>
   <g id="patch_8">
    <path clip-path="url(#pd6e8d0cded)" d="M 340.786957 155.527 
L 340.786957 155.527 
L 340.786957 155.527 
L 340.786957 155.527 
z
" style="fill:#b9dccc;stroke:#7a7a7a;stroke-linejoin:miter;"/>
   </g>
   <g id="patch_9">
    <path clip-path="url(#pd6e8d0cded)" d="M 340.786957 155.527 
L 340.786957 155.527 
L 340.786957 155.527 
L 340.786957 155.527 
z
" style="fill:#f3cfb6;stroke:#7a7a7a;stroke-linejoin:miter;"/>
   </g>
   <g id="patch_10">
    <path clip-path="url(#pd6e8d0cded)" d="M 340.786957 155.527 
L 340.786957 155.527 
L 340.786957 155.527 
L 340.786957 155.527 
z
" style="fill:#cfd6e4;stroke:#7a7a7a;stroke-linejoin:miter;"/>
   </g>
   <g id="patch_11">
    <path clip-path="url(#pd6e8d0cded)" d="M 340.786957 155.527 
L 340.786957 155.527 
L 340.786957 155.527 
L 340.786957 155.527 
z
" style="fill:#ece1d1;stroke:#7a7a7a;stroke-linejoin:miter;"/>
   </g>
   <g id="patch_12">
    <path clip-path="url(#pd6e8d0cded)" d="M 340.786957 155.527 
L 340.786957 155.527 
L 340.786957 155.527 
L 340.786957 155.527 
z
" style="fill:#e4f0ce;stroke:#7a7a7a;stroke-linejoin:miter;"/>
   </g>
   <g id="patch_13">
    <path clip-path="url(#pd6e8d0cded)" d="M 340.786957 155.527 
L 340.786957 155.527 
L 340.786957 155.527 
L 340.786957 155.527 
z
" style="fill:#f5ebb8;stroke:#7a7a7a;stroke-linejoin:miter;"/>
   </g>
   <g id="patch_14">
    <path clip-path="url(#pd6e8d0cded)" d="M 340.786957 155.527 
L 340.786957 155.527 
L 340.786957 155.527 
L 340.786957 155.527 
z
" style="fill:#efcfe3;stroke:#7a7a7a;stroke-linejoin:miter;"/>
   </g>
   <g id="line2d_20">
    <path clip-path="url(#pd6e8d0cded)" d="M 299.196894 132.1843 
L 299.196894 151.090068 
" style="fill:none;stroke:#7a7a7a;"/>
   </g>
   <g id="line2d_21">
    <path clip-path="url(#pd6e8d0cded)" d="M 299.196894 92.300716 
L 299.196894 32.486432 
" style="fill:none;stroke:#7a7a7a;"/>
   </g>
   <g id="line2d_22">
    <path clip-path="url(#pd6e8d0cded)" d="M 295.731056 151.090068 
L 302.662733 151.090068 
" style="fill:none;stroke:#7a7a7a;stroke-linecap:round;"/>
   </g>
   <g id="line2d_23">
    <path clip-path="url(#pd6e8d0cded)" d="M 295.731056 32.486432 
L 302.662733 32.486432 
" style="fill:none;stroke:#7a7a7a;stroke-linecap:round;"/>
   </g>
   <g id="line2d_24">
    <path clip-path="url(#pd6e8d0cded)" d="M 313.060248 134.819838 
L 313.060248 151.090068 
" style="fill:none;stroke:#7a7a7a;"/>
   </g>
   <g id="line2d_25">
    <path clip-path="url(#pd6e8d0cded)" d="M 313.060248 99.386497 
L 313.060248 46.440584 
" style="fill:none;stroke:#7a7a7a;"/>
   </g>
   <g id="line2d_26">
    <path clip-path="url(#pd6e8d0cded)" d="M 309.59441 151.090068 
L 316.526087 151.090068 
" style="fill:none;stroke:#7a7a7a;stroke-linecap:round;"/>
   </g>
   <g id="line2d_27">
    <path clip-path="url(#pd6e8d0cded)" d="M 309.59441 46.440584 
L 316.526087 46.440584 
" style="fill:none;stroke:#7a7a7a;stroke-linecap:round;"/>
   </g>
   <g id="line2d_28">
    <path clip-path="url(#pd6e8d0cded)" d="M 326.923602 140.614471 
L 326.923602 151.090068 
" style="fill:none;stroke:#7a7a7a;"/>
   </g>
   <g id="line2d_29">
    <path clip-path="url(#pd6e8d0cded)" d="M 326.923602 113.003442 
L 326.923602 71.593553 
" style="fill:none;stroke:#7a7a7a;"/>
   </g>
   <g id="line2d_30">
    <path clip-path="url(#pd6e8d0cded)" d="M 323.457764 151.090068 
L 330.389441 151.090068 
" style="fill:none;stroke:#7a7a7a;stroke-linecap:round;"/>
   </g>
   <g id="line2d_31">
    <path clip-path="url(#pd6e8d0cded)" d="M 323.457764 71.593553 
L 330.389441 71.593553 
" style="fill:none;stroke:#7a7a7a;stroke-linecap:round;"/>
   </g>
   <g id="line2d_32">
    <path clip-path="url(#pd6e8d0cded)" d="M 340.786957 137.641726 
L 340.786957 151.090068 
" style="fill:none;stroke:#7a7a7a;"/>
   </g>
   <g id="line2d_33">
    <path clip-path="url(#pd6e8d0cded)" d="M 340.786957 103.761312 
L 340.786957 52.962874 
" style="fill:none;stroke:#7a7a7a;"/>
   </g>
   <g id="line2d_34">
    <path clip-path="url(#pd6e8d0cded)" d="M 337.321118 151.090068 
L 344.252795 151.090068 
" style="fill:none;stroke:#7a7a7a;stroke-linecap:round;"/>
   </g>
   <g id="line2d_35">
    <path clip-path="url(#pd6e8d0cded)" d="M 337.321118 52.962874 
L 344.252795 52.962874 
" style="fill:none;stroke:#7a7a7a;stroke-linecap:round;"/>
   </g>
   <g id="line2d_36">
    <path clip-path="url(#pd6e8d0cded)" d="M 354.650311 138.520239 
L 354.650311 151.090068 
" style="fill:none;stroke:#7a7a7a;"/>
   </g>
   <g id="line2d_37">
    <path clip-path="url(#pd6e8d0cded)" d="M 354.650311 108.930338 
L 354.650311 64.556578 
" style="fill:none;stroke:#7a7a7a;"/>
   </g>
   <g id="line2d_38">
    <path clip-path="url(#pd6e8d0cded)" d="M 351.184472 151.090068 
L 358.116149 151.090068 
" style="fill:none;stroke:#7a7a7a;stroke-linecap:round;"/>
   </g>
   <g id="line2d_39">
    <path clip-path="url(#pd6e8d0cded)" d="M 351.184472 64.556578 
L 358.116149 64.556578 
" style="fill:none;stroke:#7a7a7a;stroke-linecap:round;"/>
   </g>
   <g id="line2d_40">
    <path clip-path="url(#pd6e8d0cded)" d="M 368.513665 141.106971 
L 368.513665 151.090068 
" style="fill:none;stroke:#7a7a7a;"/>
   </g>
   <g id="line2d_41">
    <path clip-path="url(#pd6e8d0cded)" d="M 368.513665 115.275151 
L 368.513665 76.549606 
" style="fill:none;stroke:#7a7a7a;"/>
   </g>
   <g id="line2d_42">
    <path clip-path="url(#pd6e8d0cded)" d="M 365.047826 151.090068 
L 371.979503 151.090068 
" style="fill:none;stroke:#7a7a7a;stroke-linecap:round;"/>
   </g>
   <g id="line2d_43">
    <path clip-path="url(#pd6e8d0cded)" d="M 365.047826 76.549606 
L 371.979503 76.549606 
" style="fill:none;stroke:#7a7a7a;stroke-linecap:round;"/>
   </g>
   <g id="line2d_44">
    <path clip-path="url(#pd6e8d0cded)" d="M 382.377019 142.957171 
L 382.377019 151.090068 
" style="fill:none;stroke:#7a7a7a;"/>
   </g>
   <g id="line2d_45">
    <path clip-path="url(#pd6e8d0cded)" d="M 382.377019 122.622711 
L 382.377019 92.127675 
" style="fill:none;stroke:#7a7a7a;"/>
   </g>
   <g id="line2d_46">
    <path clip-path="url(#pd6e8d0cded)" d="M 378.91118 151.090068 
L 385.842857 151.090068 
" style="fill:none;stroke:#7a7a7a;stroke-linecap:round;"/>
   </g>
   <g id="line2d_47">
    <path clip-path="url(#pd6e8d0cded)" d="M 378.91118 92.127675 
L 385.842857 92.127675 
" style="fill:none;stroke:#7a7a7a;stroke-linecap:round;"/>
   </g>
   <g id="patch_15">
    <path clip-path="url(#pd6e8d0cded)" d="M 292.265217 132.1843 
L 306.128571 132.1843 
L 306.128571 92.300716 
L 292.265217 92.300716 
L 292.265217 132.1843 
z
" style="fill:#b9dccc;stroke:#7a7a7a;stroke-linejoin:miter;"/>
   </g>
   <g id="patch_16">
    <path clip-path="url(#pd6e8d0cded)" d="M 306.128571 134.819838 
L 319.991925 134.819838 
L 319.991925 99.386497 
L 306.128571 99.386497 
L 306.128571 134.819838 
z
" style="fill:#f3cfb6;stroke:#7a7a7a;stroke-linejoin:miter;"/>
   </g>
   <g id="patch_17">
    <path clip-path="url(#pd6e8d0cded)" d="M 319.991925 140.614471 
L 333.85528 140.614471 
L 333.85528 113.003442 
L 319.991925 113.003442 
L 319.991925 140.614471 
z
" style="fill:#cfd6e4;stroke:#7a7a7a;stroke-linejoin:miter;"/>
   </g>
   <g id="patch_18">
    <path clip-path="url(#pd6e8d0cded)" d="M 333.85528 137.641726 
L 347.718634 137.641726 
L 347.718634 103.761312 
L 333.85528 103.761312 
L 333.85528 137.641726 
z
" style="fill:#ece1d1;stroke:#7a7a7a;stroke-linejoin:miter;"/>
   </g>
   <g id="patch_19">
    <path clip-path="url(#pd6e8d0cded)" d="M 347.718634 138.520239 
L 361.581988 138.520239 
L 361.581988 108.930338 
L 347.718634 108.930338 
L 347.718634 138.520239 
z
" style="fill:#e4f0ce;stroke:#7a7a7a;stroke-linejoin:miter;"/>
   </g>
   <g id="patch_20">
    <path clip-path="url(#pd6e8d0cded)" d="M 361.581988 141.106971 
L 375.445342 141.106971 
L 375.445342 115.275151 
L 361.581988 115.275151 
L 361.581988 141.106971 
z
" style="fill:#f5ebb8;stroke:#7a7a7a;stroke-linejoin:miter;"/>
   </g>
   <g id="patch_21">
    <path clip-path="url(#pd6e8d0cded)" d="M 375.445342 142.957171 
L 389.308696 142.957171 
L 389.308696 122.622711 
L 375.445342 122.622711 
L 375.445342 142.957171 
z
" style="fill:#efcfe3;stroke:#7a7a7a;stroke-linejoin:miter;"/>
   </g>
   <g id="line2d_48">
    <path clip-path="url(#pd6e8d0cded)" d="M 292.265217 115.42157 
L 306.128571 115.42157 
" style="fill:none;stroke:#7a7a7a;"/>
   </g>
   <g id="line2d_49">
    <path clip-path="url(#pd6e8d0cded)" d="M 306.128571 120.031542 
L 319.991925 120.031542 
" style="fill:none;stroke:#7a7a7a;"/>
   </g>
   <g id="line2d_50">
    <path clip-path="url(#pd6e8d0cded)" d="M 319.991925 129.646375 
L 333.85528 129.646375 
" style="fill:none;stroke:#7a7a7a;"/>
   </g>
   <g id="line2d_51">
    <path clip-path="url(#pd6e8d0cded)" d="M 333.85528 124.100209 
L 347.718634 124.100209 
" style="fill:none;stroke:#7a7a7a;"/>
   </g>
   <g id="line2d_52">
    <path clip-path="url(#pd6e8d0cded)" d="M 347.718634 126.686941 
L 361.581988 126.686941 
" style="fill:none;stroke:#7a7a7a;"/>
   </g>
   <g id="line2d_53">
    <path clip-path="url(#pd6e8d0cded)" d="M 361.581988 130.755608 
L 375.445342 130.755608 
" style="fill:none;stroke:#7a7a7a;"/>
   </g>
   <g id="line2d_54">
    <path clip-path="url(#pd6e8d0cded)" d="M 375.445342 135.19254 
L 389.308696 135.19254 
" style="fill:none;stroke:#7a7a7a;"/>
   </g>
   <g id="text_13">
    <!-- b) -->
    <g style="fill:#262626;" transform="translate(225.547826 22.396875)scale(0.2 -0.2)">
     <defs>
      <path d="M 738 331 
L 738 4531 
L 184 4531 
L 184 4863 
L 1313 4863 
L 1313 2803 
Q 1481 3116 1742 3264 
Q 2003 3413 2388 3413 
Q 3000 3413 3387 2928 
Q 3775 2444 3775 1663 
Q 3775 881 3387 395 
Q 3000 -91 2388 -91 
Q 2003 -91 1742 57 
Q 1481 206 1313 519 
L 1313 0 
L 184 0 
L 184 331 
L 738 331 
z
M 1313 1497 
Q 1313 897 1542 583 
Q 1772 269 2209 269 
Q 2650 269 2876 622 
Q 3103 975 3103 1663 
Q 3103 2353 2876 2703 
Q 2650 3053 2209 3053 
Q 1772 3053 1542 2737 
Q 1313 2422 1313 1825 
L 1313 1497 
z
" id="DejaVuSerif-62" transform="scale(0.015625)"/>
     </defs>
     <use xlink:href="#DejaVuSerif-62"/>
     <use x="64.013672" xlink:href="#DejaVuSerif-29"/>
    </g>
   </g>
   <g id="legend_1">
    <g id="patch_22">
     <path d="M 297.865217 91.66875 
L 426.666467 91.66875 
Q 428.266467 91.66875 428.266467 90.06875 
L 428.266467 32.15625 
Q 428.266467 30.55625 426.666467 30.55625 
L 297.865217 30.55625 
Q 296.265217 30.55625 296.265217 32.15625 
L 296.265217 90.06875 
Q 296.265217 91.66875 297.865217 91.66875 
z
" style="fill:#ffffff;opacity:0.35;stroke:#cccccc;stroke-linejoin:miter;"/>
    </g>
    <g id="text_14">
     <!-- core age composition -->
     <g style="fill:#262626;" transform="translate(319.222092 39.835)scale(0.08 -0.08)">
      <defs>
       <path d="M 1159 525 
L 1159 -1331 
L 581 -1331 
L 581 3500 
L 1159 3500 
L 1159 2969 
Q 1341 3281 1617 3432 
Q 1894 3584 2278 3584 
Q 2916 3584 3314 3078 
Q 3713 2572 3713 1747 
Q 3713 922 3314 415 
Q 2916 -91 2278 -91 
Q 1894 -91 1617 61 
Q 1341 213 1159 525 
z
M 3116 1747 
Q 3116 2381 2855 2742 
Q 2594 3103 2138 3103 
Q 1681 3103 1420 2742 
Q 1159 2381 1159 1747 
Q 1159 1113 1420 752 
Q 1681 391 2138 391 
Q 2594 391 2855 752 
Q 3116 1113 3116 1747 
z
" id="DejaVuSans-70" transform="scale(0.015625)"/>
      </defs>
      <use xlink:href="#DejaVuSans-63"/>
      <use x="54.980469" xlink:href="#DejaVuSans-6f"/>
      <use x="116.162109" xlink:href="#DejaVuSans-72"/>
      <use x="155.025391" xlink:href="#DejaVuSans-65"/>
      <use x="216.548828" xlink:href="#DejaVuSans-20"/>
      <use x="248.335938" xlink:href="#DejaVuSans-61"/>
      <use x="309.615234" xlink:href="#DejaVuSans-67"/>
      <use x="373.091797" xlink:href="#DejaVuSans-65"/>
      <use x="434.615234" xlink:href="#DejaVuSans-20"/>
      <use x="466.402344" xlink:href="#DejaVuSans-63"/>
      <use x="521.382812" xlink:href="#DejaVuSans-6f"/>
      <use x="582.564453" xlink:href="#DejaVuSans-6d"/>
      <use x="679.976562" xlink:href="#DejaVuSans-70"/>
      <use x="743.453125" xlink:href="#DejaVuSans-6f"/>
      <use x="804.634766" xlink:href="#DejaVuSans-73"/>
      <use x="856.734375" xlink:href="#DejaVuSans-69"/>
      <use x="884.517578" xlink:href="#DejaVuSans-74"/>
      <use x="923.726562" xlink:href="#DejaVuSans-69"/>
      <use x="951.509766" xlink:href="#DejaVuSans-6f"/>
      <use x="1012.691406" xlink:href="#DejaVuSans-6e"/>
     </g>
    </g>
    <g id="patch_23">
     <path d="M 299.465217 51.5775 
L 315.465217 51.5775 
L 315.465217 45.9775 
L 299.465217 45.9775 
z
" style="fill:#b9dccc;stroke:#7a7a7a;stroke-linejoin:miter;"/>
    </g>
    <g id="text_15">
     <!-- Y -->
     <g style="fill:#262626;" transform="translate(321.865217 51.5775)scale(0.08 -0.08)">
      <defs>
       <path d="M -13 4666 
L 666 4666 
L 1959 2747 
L 3244 4666 
L 3922 4666 
L 2272 2222 
L 2272 0 
L 1638 0 
L 1638 2222 
L -13 4666 
z
" id="DejaVuSans-59" transform="scale(0.015625)"/>
      </defs>
      <use xlink:href="#DejaVuSans-59"/>
     </g>
    </g>
    <g id="patch_24">
     <path d="M 299.465217 63.32 
L 315.465217 63.32 
L 315.465217 57.72 
L 299.465217 57.72 
z
" style="fill:#f3cfb6;stroke:#7a7a7a;stroke-linejoin:miter;"/>
    </g>
    <g id="text_16">
     <!-- Em -->
     <g style="fill:#262626;" transform="translate(321.865217 63.32)scale(0.08 -0.08)">
      <defs>
       <path d="M 628 4666 
L 3578 4666 
L 3578 4134 
L 1259 4134 
L 1259 2753 
L 3481 2753 
L 3481 2222 
L 1259 2222 
L 1259 531 
L 3634 531 
L 3634 0 
L 628 0 
L 628 4666 
z
" id="DejaVuSans-45" transform="scale(0.015625)"/>
      </defs>
      <use xlink:href="#DejaVuSans-45"/>
      <use x="63.183594" xlink:href="#DejaVuSans-6d"/>
     </g>
    </g>
    <g id="patch_25">
     <path d="M 299.465217 75.0625 
L 315.465217 75.0625 
L 315.465217 69.4625 
L 299.465217 69.4625 
z
" style="fill:#cfd6e4;stroke:#7a7a7a;stroke-linejoin:miter;"/>
    </g>
    <g id="text_17">
     <!-- Es -->
     <g style="fill:#262626;" transform="translate(321.865217 75.0625)scale(0.08 -0.08)">
      <use xlink:href="#DejaVuSans-45"/>
      <use x="63.183594" xlink:href="#DejaVuSans-73"/>
     </g>
    </g>
    <g id="patch_26">
     <path d="M 299.465217 86.805 
L 315.465217 86.805 
L 315.465217 81.205 
L 299.465217 81.205 
z
" style="fill:#ece1d1;stroke:#7a7a7a;stroke-linejoin:miter;"/>
    </g>
    <g id="text_18">
     <!-- Y+Em -->
     <g style="fill:#262626;" transform="translate(321.865217 86.805)scale(0.08 -0.08)">
      <defs>
       <path d="M 2944 4013 
L 2944 2272 
L 4684 2272 
L 4684 1741 
L 2944 1741 
L 2944 0 
L 2419 0 
L 2419 1741 
L 678 1741 
L 678 2272 
L 2419 2272 
L 2419 4013 
L 2944 4013 
z
" id="DejaVuSans-2b" transform="scale(0.015625)"/>
      </defs>
      <use xlink:href="#DejaVuSans-59"/>
      <use x="61.083984" xlink:href="#DejaVuSans-2b"/>
      <use x="144.873047" xlink:href="#DejaVuSans-45"/>
      <use x="208.056641" xlink:href="#DejaVuSans-6d"/>
     </g>
    </g>
    <g id="patch_27">
     <path d="M 362.302717 51.5775 
L 378.302717 51.5775 
L 378.302717 45.9775 
L 362.302717 45.9775 
z
" style="fill:#e4f0ce;stroke:#7a7a7a;stroke-linejoin:miter;"/>
    </g>
    <g id="text_19">
     <!-- Y+Es -->
     <g style="fill:#262626;" transform="translate(384.702717 51.5775)scale(0.08 -0.08)">
      <use xlink:href="#DejaVuSans-59"/>
      <use x="61.083984" xlink:href="#DejaVuSans-2b"/>
      <use x="144.873047" xlink:href="#DejaVuSans-45"/>
      <use x="208.056641" xlink:href="#DejaVuSans-73"/>
     </g>
    </g>
    <g id="patch_28">
     <path d="M 362.302717 63.32 
L 378.302717 63.32 
L 378.302717 57.72 
L 362.302717 57.72 
z
" style="fill:#f5ebb8;stroke:#7a7a7a;stroke-linejoin:miter;"/>
    </g>
    <g id="text_20">
     <!-- Em+Es -->
     <g style="fill:#262626;" transform="translate(384.702717 63.32)scale(0.08 -0.08)">
      <use xlink:href="#DejaVuSans-45"/>
      <use x="63.183594" xlink:href="#DejaVuSans-6d"/>
      <use x="160.595703" xlink:href="#DejaVuSans-2b"/>
      <use x="244.384766" xlink:href="#DejaVuSans-45"/>
      <use x="307.568359" xlink:href="#DejaVuSans-73"/>
     </g>
    </g>
    <g id="patch_29">
     <path d="M 362.302717 75.0625 
L 378.302717 75.0625 
L 378.302717 69.4625 
L 362.302717 69.4625 
z
" style="fill:#efcfe3;stroke:#7a7a7a;stroke-linejoin:miter;"/>
    </g>
    <g id="text_21">
     <!-- Y+Em+Es -->
     <g style="fill:#262626;" transform="translate(384.702717 75.0625)scale(0.08 -0.08)">
      <use xlink:href="#DejaVuSans-59"/>
      <use x="61.083984" xlink:href="#DejaVuSans-2b"/>
      <use x="144.873047" xlink:href="#DejaVuSans-45"/>
      <use x="208.056641" xlink:href="#DejaVuSans-6d"/>
      <use x="305.46875" xlink:href="#DejaVuSans-2b"/>
      <use x="389.257812" xlink:href="#DejaVuSans-45"/>
      <use x="452.441406" xlink:href="#DejaVuSans-73"/>
     </g>
    </g>
   </g>
  </g>
  <g id="axes_3">
   <g id="patch_30">
    <path d="M 498.482609 157.02025 
L 619.786957 157.02025 
L 619.786957 26.55625 
L 498.482609 26.55625 
z
" style="fill:#ffffff;"/>
   </g>
   <g id="matplotlib.axis_5">
    <g id="xtick_3">
     <g id="line2d_55">
      <g>
       <use style="fill:#262626;stroke:#262626;stroke-width:1.25;" x="498.482609" xlink:href="#m60aee8a293" y="157.02025"/>
      </g>
     </g>
     <g id="text_22">
      <!-- 0.0 -->
      <g style="fill:#262626;" transform="translate(489.73589 174.878531)scale(0.11 -0.11)">
       <defs>
        <path d="M 684 794 
L 1344 794 
L 1344 0 
L 684 0 
L 684 794 
z
" id="DejaVuSans-2e" transform="scale(0.015625)"/>
       </defs>
       <use xlink:href="#DejaVuSans-30"/>
       <use x="63.623047" xlink:href="#DejaVuSans-2e"/>
       <use x="95.410156" xlink:href="#DejaVuSans-30"/>
      </g>
     </g>
    </g>
    <g id="xtick_4">
     <g id="line2d_56">
      <g>
       <use style="fill:#262626;stroke:#262626;stroke-width:1.25;" x="559.134783" xlink:href="#m60aee8a293" y="157.02025"/>
      </g>
     </g>
     <g id="text_23">
      <!-- 0.5 -->
      <g style="fill:#262626;" transform="translate(550.388064 174.878531)scale(0.11 -0.11)">
       <use xlink:href="#DejaVuSans-30"/>
       <use x="63.623047" xlink:href="#DejaVuSans-2e"/>
       <use x="95.410156" xlink:href="#DejaVuSans-35"/>
      </g>
     </g>
    </g>
    <g id="xtick_5">
     <g id="line2d_57">
      <g>
       <use style="fill:#262626;stroke:#262626;stroke-width:1.25;" x="619.786957" xlink:href="#m60aee8a293" y="157.02025"/>
      </g>
     </g>
     <g id="text_24">
      <!-- 1.0 -->
      <g style="fill:#262626;" transform="translate(611.040238 174.878531)scale(0.11 -0.11)">
       <use xlink:href="#DejaVuSans-31"/>
       <use x="63.623047" xlink:href="#DejaVuSans-2e"/>
       <use x="95.410156" xlink:href="#DejaVuSans-30"/>
      </g>
     </g>
    </g>
    <g id="text_25">
     <!-- knowledge broadness -->
     <g style="fill:#262626;" transform="translate(493.66072 190.284312)scale(0.12 -0.12)">
      <defs>
       <path d="M 581 4863 
L 1159 4863 
L 1159 1991 
L 2875 3500 
L 3609 3500 
L 1753 1863 
L 3688 0 
L 2938 0 
L 1159 1709 
L 1159 0 
L 581 0 
L 581 4863 
z
" id="DejaVuSans-6b" transform="scale(0.015625)"/>
       <path d="M 269 3500 
L 844 3500 
L 1563 769 
L 2278 3500 
L 2956 3500 
L 3675 769 
L 4391 3500 
L 4966 3500 
L 4050 0 
L 3372 0 
L 2619 2869 
L 1863 0 
L 1184 0 
L 269 3500 
z
" id="DejaVuSans-77" transform="scale(0.015625)"/>
       <path d="M 2906 2969 
L 2906 4863 
L 3481 4863 
L 3481 0 
L 2906 0 
L 2906 525 
Q 2725 213 2448 61 
Q 2172 -91 1784 -91 
Q 1150 -91 751 415 
Q 353 922 353 1747 
Q 353 2572 751 3078 
Q 1150 3584 1784 3584 
Q 2172 3584 2448 3432 
Q 2725 3281 2906 2969 
z
M 947 1747 
Q 947 1113 1208 752 
Q 1469 391 1925 391 
Q 2381 391 2643 752 
Q 2906 1113 2906 1747 
Q 2906 2381 2643 2742 
Q 2381 3103 1925 3103 
Q 1469 3103 1208 2742 
Q 947 2381 947 1747 
z
" id="DejaVuSans-64" transform="scale(0.015625)"/>
       <path d="M 3116 1747 
Q 3116 2381 2855 2742 
Q 2594 3103 2138 3103 
Q 1681 3103 1420 2742 
Q 1159 2381 1159 1747 
Q 1159 1113 1420 752 
Q 1681 391 2138 391 
Q 2594 391 2855 752 
Q 3116 1113 3116 1747 
z
M 1159 2969 
Q 1341 3281 1617 3432 
Q 1894 3584 2278 3584 
Q 2916 3584 3314 3078 
Q 3713 2572 3713 1747 
Q 3713 922 3314 415 
Q 2916 -91 2278 -91 
Q 1894 -91 1617 61 
Q 1341 213 1159 525 
L 1159 0 
L 581 0 
L 581 4863 
L 1159 4863 
L 1159 2969 
z
" id="DejaVuSans-62" transform="scale(0.015625)"/>
      </defs>
      <use xlink:href="#DejaVuSans-6b"/>
      <use x="57.910156" xlink:href="#DejaVuSans-6e"/>
      <use x="121.289062" xlink:href="#DejaVuSans-6f"/>
      <use x="182.470703" xlink:href="#DejaVuSans-77"/>
      <use x="264.257812" xlink:href="#DejaVuSans-6c"/>
      <use x="292.041016" xlink:href="#DejaVuSans-65"/>
      <use x="353.564453" xlink:href="#DejaVuSans-64"/>
      <use x="417.041016" xlink:href="#DejaVuSans-67"/>
      <use x="480.517578" xlink:href="#DejaVuSans-65"/>
      <use x="542.041016" xlink:href="#DejaVuSans-20"/>
      <use x="573.828125" xlink:href="#DejaVuSans-62"/>
      <use x="637.304688" xlink:href="#DejaVuSans-72"/>
      <use x="676.167969" xlink:href="#DejaVuSans-6f"/>
      <use x="737.349609" xlink:href="#DejaVuSans-61"/>
      <use x="798.628906" xlink:href="#DejaVuSans-64"/>
      <use x="862.105469" xlink:href="#DejaVuSans-6e"/>
      <use x="925.484375" xlink:href="#DejaVuSans-65"/>
      <use x="987.007812" xlink:href="#DejaVuSans-73"/>
      <use x="1039.107422" xlink:href="#DejaVuSans-73"/>
     </g>
    </g>
   </g>
   <g id="matplotlib.axis_6">
    <g id="ytick_8">
     <g id="line2d_58">
      <g>
       <use style="fill:#262626;stroke:#262626;stroke-width:1.25;" x="498.482609" xlink:href="#mead3a41b5c" y="156.602528"/>
      </g>
     </g>
     <g id="text_26">
      <!-- 4 -->
      <g style="fill:#262626;" transform="translate(481.983859 160.781668)scale(0.11 -0.11)">
       <defs>
        <path d="M 2419 4116 
L 825 1625 
L 2419 1625 
L 2419 4116 
z
M 2253 4666 
L 3047 4666 
L 3047 1625 
L 3713 1625 
L 3713 1100 
L 3047 1100 
L 3047 0 
L 2419 0 
L 2419 1100 
L 313 1100 
L 313 1709 
L 2253 4666 
z
" id="DejaVuSans-34" transform="scale(0.015625)"/>
       </defs>
       <use xlink:href="#DejaVuSans-34"/>
      </g>
     </g>
    </g>
    <g id="ytick_9">
     <g id="line2d_59">
      <g>
       <use style="fill:#262626;stroke:#262626;stroke-width:1.25;" x="498.482609" xlink:href="#mead3a41b5c" y="121.405544"/>
      </g>
     </g>
     <g id="text_27">
      <!-- 6 -->
      <g style="fill:#262626;" transform="translate(481.983859 125.584684)scale(0.11 -0.11)">
       <defs>
        <path d="M 2113 2584 
Q 1688 2584 1439 2293 
Q 1191 2003 1191 1497 
Q 1191 994 1439 701 
Q 1688 409 2113 409 
Q 2538 409 2786 701 
Q 3034 994 3034 1497 
Q 3034 2003 2786 2293 
Q 2538 2584 2113 2584 
z
M 3366 4563 
L 3366 3988 
Q 3128 4100 2886 4159 
Q 2644 4219 2406 4219 
Q 1781 4219 1451 3797 
Q 1122 3375 1075 2522 
Q 1259 2794 1537 2939 
Q 1816 3084 2150 3084 
Q 2853 3084 3261 2657 
Q 3669 2231 3669 1497 
Q 3669 778 3244 343 
Q 2819 -91 2113 -91 
Q 1303 -91 875 529 
Q 447 1150 447 2328 
Q 447 3434 972 4092 
Q 1497 4750 2381 4750 
Q 2619 4750 2861 4703 
Q 3103 4656 3366 4563 
z
" id="DejaVuSans-36" transform="scale(0.015625)"/>
       </defs>
       <use xlink:href="#DejaVuSans-36"/>
      </g>
     </g>
    </g>
    <g id="ytick_10">
     <g id="line2d_60">
      <g>
       <use style="fill:#262626;stroke:#262626;stroke-width:1.25;" x="498.482609" xlink:href="#mead3a41b5c" y="86.20856"/>
      </g>
     </g>
     <g id="text_28">
      <!-- 8 -->
      <g style="fill:#262626;" transform="translate(481.983859 90.387701)scale(0.11 -0.11)">
       <defs>
        <path d="M 2034 2216 
Q 1584 2216 1326 1975 
Q 1069 1734 1069 1313 
Q 1069 891 1326 650 
Q 1584 409 2034 409 
Q 2484 409 2743 651 
Q 3003 894 3003 1313 
Q 3003 1734 2745 1975 
Q 2488 2216 2034 2216 
z
M 1403 2484 
Q 997 2584 770 2862 
Q 544 3141 544 3541 
Q 544 4100 942 4425 
Q 1341 4750 2034 4750 
Q 2731 4750 3128 4425 
Q 3525 4100 3525 3541 
Q 3525 3141 3298 2862 
Q 3072 2584 2669 2484 
Q 3125 2378 3379 2068 
Q 3634 1759 3634 1313 
Q 3634 634 3220 271 
Q 2806 -91 2034 -91 
Q 1263 -91 848 271 
Q 434 634 434 1313 
Q 434 1759 690 2068 
Q 947 2378 1403 2484 
z
M 1172 3481 
Q 1172 3119 1398 2916 
Q 1625 2713 2034 2713 
Q 2441 2713 2670 2916 
Q 2900 3119 2900 3481 
Q 2900 3844 2670 4047 
Q 2441 4250 2034 4250 
Q 1625 4250 1398 4047 
Q 1172 3844 1172 3481 
z
" id="DejaVuSans-38" transform="scale(0.015625)"/>
       </defs>
       <use xlink:href="#DejaVuSans-38"/>
      </g>
     </g>
    </g>
    <g id="ytick_11">
     <g id="line2d_61">
      <g>
       <use style="fill:#262626;stroke:#262626;stroke-width:1.25;" x="498.482609" xlink:href="#mead3a41b5c" y="51.011576"/>
      </g>
     </g>
     <g id="text_29">
      <!-- 10 -->
      <g style="fill:#262626;" transform="translate(474.985109 55.190717)scale(0.11 -0.11)">
       <use xlink:href="#DejaVuSans-31"/>
       <use x="63.623047" xlink:href="#DejaVuSans-30"/>
      </g>
     </g>
    </g>
    <g id="text_30">
     <!-- career length -->
     <g style="fill:#262626;" transform="translate(468.489484 131.977937)rotate(-90)scale(0.12 -0.12)">
      <use xlink:href="#DejaVuSans-63"/>
      <use x="54.980469" xlink:href="#DejaVuSans-61"/>
      <use x="116.259766" xlink:href="#DejaVuSans-72"/>
      <use x="155.123047" xlink:href="#DejaVuSans-65"/>
      <use x="216.646484" xlink:href="#DejaVuSans-65"/>
      <use x="278.169922" xlink:href="#DejaVuSans-72"/>
      <use x="319.283203" xlink:href="#DejaVuSans-20"/>
      <use x="351.070312" xlink:href="#DejaVuSans-6c"/>
      <use x="378.853516" xlink:href="#DejaVuSans-65"/>
      <use x="440.376953" xlink:href="#DejaVuSans-6e"/>
      <use x="503.755859" xlink:href="#DejaVuSans-67"/>
      <use x="567.232422" xlink:href="#DejaVuSans-74"/>
      <use x="606.441406" xlink:href="#DejaVuSans-68"/>
     </g>
    </g>
   </g>
   <g id="PolyCollection_1">
    <defs>
     <path d="M 504.547826 -92.378186 
L 504.547826 -86.423118 
L 516.678261 -132.780392 
L 528.808696 -151.14933 
L 540.93913 -160.096644 
L 553.069565 -160.891118 
L 565.2 -161.936549 
L 577.330435 -161.873606 
L 589.46087 -177.816573 
L 601.591304 -185.85838 
L 613.721739 -144.47035 
L 613.721739 -188.950954 
L 613.721739 -188.950954 
L 601.591304 -195.642568 
L 589.46087 -181.86462 
L 577.330435 -164.466515 
L 565.2 -163.913813 
L 553.069565 -162.94704 
L 540.93913 -163.277176 
L 528.808696 -161.364158 
L 516.678261 -140.932425 
L 504.547826 -92.378186 
z
" id="mb800205285" style="stroke:#61aa90;stroke-opacity:0.2;"/>
    </defs>
    <g clip-path="url(#p466dd9382f)">
     <use style="fill:#61aa90;fill-opacity:0.2;stroke:#61aa90;stroke-opacity:0.2;" x="0" xlink:href="#mb800205285" y="228.129"/>
    </g>
   </g>
   <g id="PolyCollection_2">
    <defs>
     <path d="M 504.547826 -99.547295 
L 504.547826 -94.439883 
L 516.678261 -99.456816 
L 528.808696 -119.457632 
L 540.93913 -133.75199 
L 553.069565 -132.23037 
L 565.2 -130.837486 
L 577.330435 -131.70214 
L 589.46087 -140.662638 
L 601.591304 -151.197929 
L 613.721739 -133.294974 
L 613.721739 -159.481975 
L 613.721739 -159.481975 
L 601.591304 -156.580826 
L 589.46087 -143.20652 
L 577.330435 -133.447148 
L 565.2 -132.552419 
L 553.069565 -134.665866 
L 540.93913 -139.357767 
L 528.808696 -128.500672 
L 516.678261 -105.09306 
L 504.547826 -99.547295 
z
" id="m121e827e81" style="stroke:#33858d;stroke-opacity:0.2;"/>
    </defs>
    <g clip-path="url(#p466dd9382f)">
     <use style="fill:#33858d;fill-opacity:0.2;stroke:#33858d;stroke-opacity:0.2;" x="0" xlink:href="#m121e827e81" y="228.129"/>
    </g>
   </g>
   <g id="PolyCollection_3">
    <defs>
     <path d="M 504.547826 -89.317819 
L 504.547826 -77.038932 
L 516.678261 -90.325206 
L 528.808696 -98.734072 
L 540.93913 -106.899753 
L 553.069565 -120.901325 
L 565.2 -118.406432 
L 577.330435 -115.987972 
L 589.46087 -116.316694 
L 601.591304 -121.069381 
L 613.721739 -119.900236 
L 613.721739 -131.477908 
L 613.721739 -131.477908 
L 601.591304 -124.250125 
L 589.46087 -118.00394 
L 577.330435 -117.442495 
L 565.2 -120.570633 
L 553.069565 -125.018296 
L 540.93913 -111.768339 
L 528.808696 -104.030836 
L 516.678261 -95.94345 
L 504.547826 -89.317819 
z
" id="m1135a0aba8" style="stroke:#1e5d86;stroke-opacity:0.2;"/>
    </defs>
    <g clip-path="url(#p466dd9382f)">
     <use style="fill:#1e5d86;fill-opacity:0.2;stroke:#1e5d86;stroke-opacity:0.2;" x="0" xlink:href="#m1135a0aba8" y="228.129"/>
    </g>
   </g>
   <g id="line2d_62">
    <path clip-path="url(#p466dd9382f)" d="M 504.547826 138.727345 
L 516.678261 91.362756 
L 528.808696 71.65146 
L 540.93913 66.480994 
L 553.069565 66.209609 
L 565.2 65.25779 
L 577.330435 64.933997 
L 589.46087 48.360773 
L 601.591304 37.484768 
L 613.721739 61.526195 
" style="fill:none;stroke:#61aa90;stroke-linecap:round;stroke-width:1.5;"/>
   </g>
   <g id="line2d_63">
    <path clip-path="url(#p466dd9382f)" d="M 504.547826 131.278216 
L 516.678261 125.885691 
L 528.808696 104.160346 
L 540.93913 91.523027 
L 553.069565 94.773024 
L 565.2 96.425377 
L 577.330435 95.552278 
L 589.46087 86.228494 
L 601.591304 74.212681 
L 613.721739 81.830184 
" style="fill:none;stroke:#33858d;stroke-linecap:round;stroke-width:1.5;"/>
   </g>
   <g id="line2d_64">
    <path clip-path="url(#p466dd9382f)" d="M 504.547826 145.141361 
L 516.678261 135.089649 
L 528.808696 126.752452 
L 540.93913 118.861821 
L 553.069565 105.191525 
L 565.2 108.641715 
L 577.330435 111.405641 
L 589.46087 110.923684 
L 601.591304 105.384379 
L 613.721739 102.281738 
" style="fill:none;stroke:#1e5d86;stroke-linecap:round;stroke-width:1.5;"/>
   </g>
   <g id="line2d_65"/>
   <g id="line2d_66"/>
   <g id="line2d_67"/>
   <g id="patch_31">
    <path d="M 498.482609 157.02025 
L 498.482609 26.55625 
" style="fill:none;stroke:#262626;stroke-linecap:square;stroke-linejoin:miter;stroke-width:1.25;"/>
   </g>
   <g id="patch_32">
    <path d="M 498.482609 157.02025 
L 619.786957 157.02025 
" style="fill:none;stroke:#262626;stroke-linecap:square;stroke-linejoin:miter;stroke-width:1.25;"/>
   </g>
   <g id="text_31">
    <!-- c) -->
    <g style="fill:#262626;" transform="translate(443.895652 22.396875)scale(0.2 -0.2)">
     <defs>
      <path d="M 3291 997 
Q 3169 466 2822 187 
Q 2475 -91 1925 -91 
Q 1200 -91 759 389 
Q 319 869 319 1663 
Q 319 2459 759 2936 
Q 1200 3413 1925 3413 
Q 2241 3413 2553 3339 
Q 2866 3266 3181 3116 
L 3181 2266 
L 2847 2266 
Q 2781 2703 2561 2903 
Q 2341 3103 1931 3103 
Q 1466 3103 1228 2742 
Q 991 2381 991 1663 
Q 991 944 1227 581 
Q 1463 219 1931 219 
Q 2303 219 2525 412 
Q 2747 606 2828 997 
L 3291 997 
z
" id="DejaVuSerif-63" transform="scale(0.015625)"/>
     </defs>
     <use xlink:href="#DejaVuSerif-63"/>
     <use x="56.005859" xlink:href="#DejaVuSerif-29"/>
    </g>
   </g>
   <g id="legend_2">
    <g id="patch_33">
     <path d="M 564.734783 88.8845 
L 623.213533 88.8845 
Q 624.813533 88.8845 624.813533 87.2845 
L 624.813533 32.15625 
Q 624.813533 30.55625 623.213533 30.55625 
L 564.734783 30.55625 
Q 563.134783 30.55625 563.134783 32.15625 
L 563.134783 87.2845 
Q 563.134783 88.8845 564.734783 88.8845 
z
" style="fill:#ffffff;opacity:0.35;stroke:#cccccc;stroke-linejoin:miter;"/>
    </g>
    <g id="text_32">
     <!-- core diversity -->
     <g style="fill:#262626;" transform="translate(566.786033 39.835)scale(0.08 -0.08)">
      <use xlink:href="#DejaVuSans-63"/>
      <use x="54.980469" xlink:href="#DejaVuSans-6f"/>
      <use x="116.162109" xlink:href="#DejaVuSans-72"/>
      <use x="155.025391" xlink:href="#DejaVuSans-65"/>
      <use x="216.548828" xlink:href="#DejaVuSans-20"/>
      <use x="248.335938" xlink:href="#DejaVuSans-64"/>
      <use x="311.8125" xlink:href="#DejaVuSans-69"/>
      <use x="339.595703" xlink:href="#DejaVuSans-76"/>
      <use x="398.775391" xlink:href="#DejaVuSans-65"/>
      <use x="460.298828" xlink:href="#DejaVuSans-72"/>
      <use x="501.412109" xlink:href="#DejaVuSans-73"/>
      <use x="553.511719" xlink:href="#DejaVuSans-69"/>
      <use x="581.294922" xlink:href="#DejaVuSans-74"/>
      <use x="620.503906" xlink:href="#DejaVuSans-79"/>
     </g>
     <!-- (quartiles) -->
     <g style="fill:#262626;" transform="translate(566.786033 48.79325)scale(0.08 -0.08)">
      <defs>
       <path d="M 1984 4856 
Q 1566 4138 1362 3434 
Q 1159 2731 1159 2009 
Q 1159 1288 1364 580 
Q 1569 -128 1984 -844 
L 1484 -844 
Q 1016 -109 783 600 
Q 550 1309 550 2009 
Q 550 2706 781 3412 
Q 1013 4119 1484 4856 
L 1984 4856 
z
" id="DejaVuSans-28" transform="scale(0.015625)"/>
       <path d="M 947 1747 
Q 947 1113 1208 752 
Q 1469 391 1925 391 
Q 2381 391 2643 752 
Q 2906 1113 2906 1747 
Q 2906 2381 2643 2742 
Q 2381 3103 1925 3103 
Q 1469 3103 1208 2742 
Q 947 2381 947 1747 
z
M 2906 525 
Q 2725 213 2448 61 
Q 2172 -91 1784 -91 
Q 1150 -91 751 415 
Q 353 922 353 1747 
Q 353 2572 751 3078 
Q 1150 3584 1784 3584 
Q 2172 3584 2448 3432 
Q 2725 3281 2906 2969 
L 2906 3500 
L 3481 3500 
L 3481 -1331 
L 2906 -1331 
L 2906 525 
z
" id="DejaVuSans-71" transform="scale(0.015625)"/>
       <path d="M 513 4856 
L 1013 4856 
Q 1481 4119 1714 3412 
Q 1947 2706 1947 2009 
Q 1947 1309 1714 600 
Q 1481 -109 1013 -844 
L 513 -844 
Q 928 -128 1133 580 
Q 1338 1288 1338 2009 
Q 1338 2731 1133 3434 
Q 928 4138 513 4856 
z
" id="DejaVuSans-29" transform="scale(0.015625)"/>
      </defs>
      <use xlink:href="#DejaVuSans-28"/>
      <use x="39.013672" xlink:href="#DejaVuSans-71"/>
      <use x="102.490234" xlink:href="#DejaVuSans-75"/>
      <use x="165.869141" xlink:href="#DejaVuSans-61"/>
      <use x="227.148438" xlink:href="#DejaVuSans-72"/>
      <use x="268.261719" xlink:href="#DejaVuSans-74"/>
      <use x="307.470703" xlink:href="#DejaVuSans-69"/>
      <use x="335.253906" xlink:href="#DejaVuSans-6c"/>
      <use x="363.037109" xlink:href="#DejaVuSans-65"/>
      <use x="424.560547" xlink:href="#DejaVuSans-73"/>
      <use x="476.660156" xlink:href="#DejaVuSans-29"/>
     </g>
    </g>
    <g id="line2d_68">
     <path d="M 566.334783 57.73575 
L 582.334783 57.73575 
" style="fill:none;stroke:#61aa90;stroke-linecap:round;stroke-width:1.5;"/>
    </g>
    <g id="line2d_69"/>
    <g id="text_33">
     <!-- low -->
     <g style="fill:#262626;" transform="translate(588.734783 60.53575)scale(0.08 -0.08)">
      <use xlink:href="#DejaVuSans-6c"/>
      <use x="27.783203" xlink:href="#DejaVuSans-6f"/>
      <use x="88.964844" xlink:href="#DejaVuSans-77"/>
     </g>
    </g>
    <g id="line2d_70">
     <path d="M 566.334783 69.47825 
L 582.334783 69.47825 
" style="fill:none;stroke:#33858d;stroke-linecap:round;stroke-width:1.5;"/>
    </g>
    <g id="line2d_71"/>
    <g id="text_34">
     <!-- medium -->
     <g style="fill:#262626;" transform="translate(588.734783 72.27825)scale(0.08 -0.08)">
      <use xlink:href="#DejaVuSans-6d"/>
      <use x="97.412109" xlink:href="#DejaVuSans-65"/>
      <use x="158.935547" xlink:href="#DejaVuSans-64"/>
      <use x="222.412109" xlink:href="#DejaVuSans-69"/>
      <use x="250.195312" xlink:href="#DejaVuSans-75"/>
      <use x="313.574219" xlink:href="#DejaVuSans-6d"/>
     </g>
    </g>
    <g id="line2d_72">
     <path d="M 566.334783 81.22075 
L 582.334783 81.22075 
" style="fill:none;stroke:#1e5d86;stroke-linecap:round;stroke-width:1.5;"/>
    </g>
    <g id="line2d_73"/>
    <g id="text_35">
     <!-- high -->
     <g style="fill:#262626;" transform="translate(588.734783 84.02075)scale(0.08 -0.08)">
      <use xlink:href="#DejaVuSans-68"/>
      <use x="63.378906" xlink:href="#DejaVuSans-69"/>
      <use x="91.162109" xlink:href="#DejaVuSans-67"/>
      <use x="154.638672" xlink:href="#DejaVuSans-68"/>
     </g>
    </g>
   </g>
  </g>
 </g>
 <defs>
  <clipPath id="pd95fa0d4e3">
   <rect height="130.464" width="121.304348" x="61.786957" y="26.55625"/>
  </clipPath>
  <clipPath id="pd6e8d0cded">
   <rect height="130.464" width="121.304348" x="280.134783" y="26.55625"/>
  </clipPath>
  <clipPath id="p466dd9382f">
   <rect height="130.464" width="121.304348" x="498.482609" y="26.55625"/>
  </clipPath>
 </defs>
</svg>
